<svg width="492" height="226" viewBox="0 0 492 226" fill="none" xmlns="http://www.w3.org/2000/svg">
<g clip-path="url(#clip0_5_41)">
<path d="M210.421 146.068H187.444H164.468V207.446H158.577V146.068H39.2759V141.642L155.336 0.885254H162.406L47.2293 140.461H158.577V86.4604H164.468V140.461H210.421V146.068Z" fill="#42424B"/>
<path d="M210.421 146.068H187.444H164.468V207.446H158.577V146.068H39.2759V141.642L155.336 0.885254H162.406L47.2293 140.461H158.577V86.4604H164.468V140.461H210.421V146.068Z" fill="#181721" fill-opacity="0.2"/>
<path d="M261.25 208.331C245.736 208.331 231.989 204.102 220.01 195.642C208.227 186.987 198.997 174.79 192.321 159.052C185.84 143.314 182.6 125.018 182.6 104.166C182.6 83.3128 185.84 65.0174 192.321 49.2795C198.997 33.5415 208.227 21.443 220.01 12.9838C231.989 4.32793 245.736 0 261.25 0C276.764 0 290.412 4.32793 302.195 12.9838C314.174 21.443 323.404 33.5415 329.885 49.2795C336.561 65.0174 339.9 83.3128 339.9 104.166C339.9 125.018 336.561 143.314 329.885 159.052C323.404 174.79 314.174 186.987 302.195 195.642C290.412 204.102 276.764 208.331 261.25 208.331ZM261.25 202.724C275.586 202.724 288.252 198.692 299.249 190.626C310.247 182.56 318.789 171.15 324.877 156.396C330.965 141.445 334.009 124.035 334.009 104.166C334.009 84.2964 330.965 66.9846 324.877 52.2303C318.789 37.2793 310.247 25.7709 299.249 17.7052C288.252 9.63949 275.586 5.60664 261.25 5.60664C246.914 5.60664 234.248 9.63949 223.25 17.7052C212.253 25.7709 203.711 37.2793 197.623 52.2303C191.535 66.9846 188.491 84.2964 188.491 104.166C188.491 124.035 191.535 141.445 197.623 156.396C203.711 171.15 212.253 182.56 223.25 190.626C234.248 198.692 246.914 202.724 261.25 202.724Z" fill="#42424B"/>
<path d="M261.25 208.331C245.736 208.331 231.989 204.102 220.01 195.642C208.227 186.987 198.997 174.79 192.321 159.052C185.84 143.314 182.6 125.018 182.6 104.166C182.6 83.3128 185.84 65.0174 192.321 49.2795C198.997 33.5415 208.227 21.443 220.01 12.9838C231.989 4.32793 245.736 0 261.25 0C276.764 0 290.412 4.32793 302.195 12.9838C314.174 21.443 323.404 33.5415 329.885 49.2795C336.561 65.0174 339.9 83.3128 339.9 104.166C339.9 125.018 336.561 143.314 329.885 159.052C323.404 174.79 314.174 186.987 302.195 195.642C290.412 204.102 276.764 208.331 261.25 208.331ZM261.25 202.724C275.586 202.724 288.252 198.692 299.249 190.626C310.247 182.56 318.789 171.15 324.877 156.396C330.965 141.445 334.009 124.035 334.009 104.166C334.009 84.2964 330.965 66.9846 324.877 52.2303C318.789 37.2793 310.247 25.7709 299.249 17.7052C288.252 9.63949 275.586 5.60664 261.25 5.60664C246.914 5.60664 234.248 9.63949 223.25 17.7052C212.253 25.7709 203.711 37.2793 197.623 52.2303C191.535 66.9846 188.491 84.2964 188.491 104.166C188.491 124.035 191.535 141.445 197.623 156.396C203.711 171.15 212.253 182.56 223.25 190.626C234.248 198.692 246.914 202.724 261.25 202.724Z" fill="#181721" fill-opacity="0.2"/>
<path d="M492 146.068H446.047V207.446H440.156V146.068H320.855V141.642L436.915 0.885254H443.985L328.808 140.461H440.156V86.4604H446.047V140.461H492V146.068Z" fill="#42424B"/>
<path d="M492 146.068H446.047V207.446H440.156V146.068H320.855V141.642L436.915 0.885254H443.985L328.808 140.461H440.156V86.4604H446.047V140.461H492V146.068Z" fill="#181721" fill-opacity="0.2"/>
<path d="M210.421 146.068H187.444H164.468V207.446H158.577V146.068H39.2759V141.642L155.336 0.885254H162.406L47.2293 140.461H158.577V86.4604H164.468V140.461H210.421V146.068Z" stroke="#181721" stroke-width="2"/>
<path d="M261.25 208.331C245.736 208.331 231.989 204.102 220.01 195.642C208.227 186.987 198.997 174.79 192.321 159.052C185.84 143.314 182.6 125.018 182.6 104.166C182.6 83.3128 185.84 65.0174 192.321 49.2795C198.997 33.5415 208.227 21.443 220.01 12.9838C231.989 4.32793 245.736 0 261.25 0C276.764 0 290.412 4.32793 302.195 12.9838C314.174 21.443 323.404 33.5415 329.885 49.2795C336.561 65.0174 339.9 83.3128 339.9 104.166C339.9 125.018 336.561 143.314 329.885 159.052C323.404 174.79 314.174 186.987 302.195 195.642C290.412 204.102 276.764 208.331 261.25 208.331ZM261.25 202.724C275.586 202.724 288.252 198.692 299.249 190.626C310.247 182.56 318.789 171.15 324.877 156.396C330.965 141.445 334.009 124.035 334.009 104.166C334.009 84.2964 330.965 66.9846 324.877 52.2303C318.789 37.2793 310.247 25.7709 299.249 17.7052C288.252 9.63949 275.586 5.60664 261.25 5.60664C246.914 5.60664 234.248 9.63949 223.25 17.7052C212.253 25.7709 203.711 37.2793 197.623 52.2303C191.535 66.9846 188.491 84.2964 188.491 104.166C188.491 124.035 191.535 141.445 197.623 156.396C203.711 171.15 212.253 182.56 223.25 190.626C234.248 198.692 246.914 202.724 261.25 202.724Z" stroke="#181721" stroke-width="2"/>
<path d="M492 146.068H446.047V207.446H440.156V146.068H320.855V141.642L436.915 0.885254H443.985L328.808 140.461H440.156V86.4604H446.047V140.461H492V146.068Z" stroke="#181721" stroke-width="2"/>
<path d="M171.145 163.737H125.192V225.115H119.301V163.737H0V159.31L116.06 18.5542H123.13L7.95338 158.13H119.301V104.129H125.192V158.13H171.145V163.737Z" fill="url(#paint0_linear_5_41)"/>
<path d="M171.145 163.737H125.192V225.115H119.301V163.737H0V159.31L116.06 18.5542H123.13L7.95338 158.13H119.301V104.129H125.192V158.13H171.145V163.737Z" fill="#181721" fill-opacity="0.2"/>
<path d="M221.974 226C206.46 226 192.713 221.77 180.734 213.311C168.951 204.655 159.721 192.459 153.045 176.721C146.564 160.983 143.324 142.687 143.324 121.834C143.324 100.982 146.564 82.6863 153.045 66.9483C159.721 51.2104 168.951 39.1118 180.734 30.6527C192.713 21.9968 206.46 17.6689 221.974 17.6689C237.488 17.6689 251.136 21.9968 262.919 30.6527C274.898 39.1118 284.128 51.2104 290.609 66.9483C297.285 82.6863 300.624 100.982 300.624 121.834C300.624 142.687 297.285 160.983 290.609 176.721C284.128 192.459 274.898 204.655 262.919 213.311C251.136 221.77 237.488 226 221.974 226ZM221.974 220.393C236.31 220.393 248.976 216.36 259.973 208.295C270.971 200.229 279.513 188.819 285.601 174.065C291.689 159.114 294.733 141.704 294.733 121.834C294.733 101.965 291.689 84.6535 285.601 69.8992C279.513 54.9481 270.971 43.4398 259.973 35.3741C248.976 27.3084 236.31 23.2755 221.974 23.2755C207.638 23.2755 194.972 27.3084 183.974 35.3741C172.977 43.4398 164.435 54.9481 158.347 69.8992C152.259 84.6535 149.215 101.965 149.215 121.834C149.215 141.704 152.259 159.114 158.347 174.065C164.435 188.819 172.977 200.229 183.974 208.295C194.972 216.36 207.638 220.393 221.974 220.393Z" fill="url(#paint1_linear_5_41)"/>
<path d="M221.974 226C206.46 226 192.713 221.77 180.734 213.311C168.951 204.655 159.721 192.459 153.045 176.721C146.564 160.983 143.324 142.687 143.324 121.834C143.324 100.982 146.564 82.6863 153.045 66.9483C159.721 51.2104 168.951 39.1118 180.734 30.6527C192.713 21.9968 206.46 17.6689 221.974 17.6689C237.488 17.6689 251.136 21.9968 262.919 30.6527C274.898 39.1118 284.128 51.2104 290.609 66.9483C297.285 82.6863 300.624 100.982 300.624 121.834C300.624 142.687 297.285 160.983 290.609 176.721C284.128 192.459 274.898 204.655 262.919 213.311C251.136 221.77 237.488 226 221.974 226ZM221.974 220.393C236.31 220.393 248.976 216.36 259.973 208.295C270.971 200.229 279.513 188.819 285.601 174.065C291.689 159.114 294.733 141.704 294.733 121.834C294.733 101.965 291.689 84.6535 285.601 69.8992C279.513 54.9481 270.971 43.4398 259.973 35.3741C248.976 27.3084 236.31 23.2755 221.974 23.2755C207.638 23.2755 194.972 27.3084 183.974 35.3741C172.977 43.4398 164.435 54.9481 158.347 69.8992C152.259 84.6535 149.215 101.965 149.215 121.834C149.215 141.704 152.259 159.114 158.347 174.065C164.435 188.819 172.977 200.229 183.974 208.295C194.972 216.36 207.638 220.393 221.974 220.393Z" fill="#181721" fill-opacity="0.2"/>
<path d="M452.724 163.737H429.748H406.771V225.115H400.88V163.737H281.579V159.31L397.64 18.5542H404.709L289.533 158.13H400.88V104.129H406.771V158.13H452.724V163.737Z" fill="url(#paint2_linear_5_41)"/>
<path d="M452.724 163.737H429.748H406.771V225.115H400.88V163.737H281.579V159.31L397.64 18.5542H404.709L289.533 158.13H400.88V104.129H406.771V158.13H452.724V163.737Z" fill="#181721" fill-opacity="0.2"/>
<path d="M171.145 163.737V164.737H172.145V163.737H171.145ZM125.192 163.737V162.737H124.192V163.737H125.192ZM125.192 225.115V226.115H126.192V225.115H125.192ZM119.301 225.115H118.301V226.115H119.301V225.115ZM119.301 163.737H120.301V162.737H119.301V163.737ZM0 163.737H-1V164.737H0V163.737ZM0 159.31L-0.771544 158.674L-1 158.951V159.31H0ZM116.06 18.5542V17.5542H115.589L115.289 17.918L116.06 18.5542ZM123.13 18.5542L123.901 19.1906L125.252 17.5542H123.13V18.5542ZM7.95338 158.13L7.18208 157.494L5.83168 159.13H7.95338V158.13ZM119.301 158.13V159.13H120.301V158.13H119.301ZM119.301 104.129V103.129H118.301V104.129H119.301ZM125.192 104.129H126.192V103.129H125.192V104.129ZM125.192 158.13H124.192V159.13H125.192V158.13ZM171.145 158.13H172.145V157.13H171.145V158.13ZM180.734 213.311L180.142 214.117L180.15 214.123L180.157 214.128L180.734 213.311ZM153.045 176.721L152.12 177.101L152.124 177.111L153.045 176.721ZM153.045 66.9483L152.124 66.5578L152.12 66.5676L153.045 66.9483ZM180.734 30.6527L181.317 31.465L181.32 31.4632L180.734 30.6527ZM262.919 30.6527L262.327 31.4586L262.335 31.4641L262.342 31.4695L262.919 30.6527ZM290.609 66.9483L289.684 67.3291L289.688 67.3389L290.609 66.9483ZM290.609 176.721L289.688 176.33L289.684 176.34L290.609 176.721ZM262.919 213.311L263.502 214.124L263.505 214.122L262.919 213.311ZM285.601 174.065L286.525 174.446L286.527 174.442L285.601 174.065ZM285.601 69.8992L284.675 70.2763L284.676 70.2806L285.601 69.8992ZM158.347 69.8992L159.271 70.2806L159.273 70.2763L158.347 69.8992ZM158.347 174.065L157.421 174.442L157.422 174.446L158.347 174.065ZM452.724 163.737V164.737H453.724V163.737H452.724ZM406.771 163.737V162.737H405.771V163.737H406.771ZM406.771 225.115V226.115H407.771V225.115H406.771ZM400.88 225.115H399.88V226.115H400.88V225.115ZM400.88 163.737H401.88V162.737H400.88V163.737ZM281.579 163.737H280.579V164.737H281.579V163.737ZM281.579 159.31L280.808 158.674L280.579 158.951V159.31H281.579ZM397.64 18.5542V17.5542H397.168L396.868 17.918L397.64 18.5542ZM404.709 18.5542L405.481 19.1906L406.831 17.5542H404.709V18.5542ZM289.533 158.13L288.761 157.494L287.411 159.13H289.533V158.13ZM400.88 158.13V159.13H401.88V158.13H400.88ZM400.88 104.129V103.129H399.88V104.129H400.88ZM406.771 104.129H407.771V103.129H406.771V104.129ZM406.771 158.13H405.771V159.13H406.771V158.13ZM452.724 158.13H453.724V157.13H452.724V158.13ZM171.145 162.737H125.192V164.737H171.145V162.737ZM124.192 163.737V225.115H126.192V163.737H124.192ZM125.192 224.115H119.301V226.115H125.192V224.115ZM120.301 225.115V163.737H118.301V225.115H120.301ZM119.301 162.737H0V164.737H119.301V162.737ZM1 163.737V159.31H-1V163.737H1ZM0.771544 159.947L116.832 19.1903L115.289 17.918L-0.771544 158.674L0.771544 159.947ZM116.06 19.5542H123.13V17.5542H116.06V19.5542ZM122.359 17.9177L7.18208 157.494L8.72468 158.767L123.901 19.1906L122.359 17.9177ZM7.95338 159.13H119.301V157.13H7.95338V159.13ZM120.301 158.13V104.129H118.301V158.13H120.301ZM119.301 105.129H125.192V103.129H119.301V105.129ZM124.192 104.129V158.13H126.192V104.129H124.192ZM125.192 159.13H171.145V157.13H125.192V159.13ZM170.145 158.13V163.737H172.145V158.13H170.145ZM221.974 225C206.654 225 193.111 220.827 181.311 212.494L180.157 214.128C192.315 222.714 206.266 227 221.974 227V225ZM181.326 212.505C169.711 203.973 160.584 191.931 153.965 176.33L152.124 177.111C158.859 192.986 168.191 205.338 180.142 214.117L181.326 212.505ZM153.969 176.34C147.548 160.747 144.324 142.585 144.324 121.834H142.324C142.324 142.789 145.58 161.219 152.12 177.101L153.969 176.34ZM144.324 121.834C144.324 101.084 147.548 82.9224 153.969 67.3291L152.12 66.5676C145.58 82.4502 142.324 100.88 142.324 121.834H144.324ZM153.965 67.3389C160.583 51.7393 169.708 39.7994 181.317 31.465L180.151 29.8404C168.194 38.4243 158.86 50.6815 152.124 66.5578L153.965 67.3389ZM181.32 31.4632C193.12 22.9369 206.659 18.6689 221.974 18.6689V16.6689C206.261 16.6689 192.307 21.0567 180.148 29.8421L181.32 31.4632ZM221.974 18.6689C237.289 18.6689 250.727 22.9368 262.327 31.4586L263.511 29.8468C251.546 21.0569 237.687 16.6689 221.974 16.6689V18.6689ZM262.342 31.4695C274.143 39.8026 283.264 51.7378 289.684 67.3291L291.533 66.5676C284.992 50.6829 275.654 38.421 263.496 29.8358L262.342 31.4695ZM289.688 67.3389C296.302 82.9293 299.624 101.087 299.624 121.834H301.624C301.624 100.876 298.269 82.4432 291.529 66.5578L289.688 67.3389ZM299.624 121.834C299.624 142.582 296.302 160.74 289.688 176.33L291.529 177.111C298.269 161.226 301.624 142.793 301.624 121.834H299.624ZM289.684 176.34C283.263 191.932 274.14 203.969 262.333 212.501L263.505 214.122C275.656 205.341 284.993 192.985 291.533 177.101L289.684 176.34ZM262.336 212.499C250.735 220.827 237.294 225 221.974 225V227C237.682 227 251.537 222.713 263.502 214.124L262.336 212.499ZM221.974 221.393C236.511 221.393 249.387 217.299 260.565 209.101L259.382 207.488C248.565 215.422 236.108 219.393 221.974 219.393V221.393ZM260.565 209.101C271.733 200.91 280.38 189.341 286.525 174.446L284.676 173.683C278.647 188.297 270.208 199.548 259.382 207.488L260.565 209.101ZM286.527 174.442C292.673 159.347 295.733 141.804 295.733 121.834H293.733C293.733 141.603 290.704 158.881 284.675 173.688L286.527 174.442ZM295.733 121.834C295.733 101.865 292.674 84.4188 286.525 69.5178L284.676 70.2806C290.704 84.8883 293.733 102.065 293.733 121.834H295.733ZM286.527 69.5221C280.382 54.4316 271.737 42.7615 260.565 34.5677L259.382 36.1804C270.205 44.1181 278.644 55.4647 284.675 70.2763L286.527 69.5221ZM260.565 34.5677C249.387 26.3695 236.511 22.2755 221.974 22.2755V24.2755C236.108 24.2755 248.565 28.2472 259.382 36.1804L260.565 34.5677ZM221.974 22.2755C207.437 22.2755 194.561 26.3695 183.383 34.5677L184.566 36.1804C195.382 28.2472 207.839 24.2755 221.974 24.2755V22.2755ZM183.383 34.5677C172.211 42.7615 163.565 54.4316 157.421 69.5221L159.273 70.2763C165.304 55.4647 173.743 44.1181 184.566 36.1804L183.383 34.5677ZM157.422 69.5178C151.274 84.4188 148.215 101.865 148.215 121.834H150.215C150.215 102.065 153.244 84.8883 159.271 70.2806L157.422 69.5178ZM148.215 121.834C148.215 141.804 151.274 159.347 157.421 174.442L159.273 173.688C153.244 158.881 150.215 141.603 150.215 121.834H148.215ZM157.422 174.446C163.568 189.341 172.214 200.91 183.383 209.101L184.566 207.488C173.74 199.548 165.301 188.297 159.271 173.683L157.422 174.446ZM183.383 209.101C194.561 217.299 207.437 221.393 221.974 221.393V219.393C207.839 219.393 195.382 215.422 184.566 207.488L183.383 209.101ZM405.771 163.737V225.115H407.771V163.737H405.771ZM406.771 224.115H400.88V226.115H406.771V224.115ZM401.88 225.115V163.737H399.88V225.115H401.88ZM400.88 162.737H281.579V164.737H400.88V162.737ZM282.579 163.737V159.31H280.579V163.737H282.579ZM282.351 159.947L398.411 19.1903L396.868 17.918L280.808 158.674L282.351 159.947ZM397.64 19.5542H404.709V17.5542H397.64V19.5542ZM403.938 17.9177L288.761 157.494L290.304 158.767L405.481 19.1906L403.938 17.9177ZM289.533 159.13H400.88V157.13H289.533V159.13ZM401.88 158.13V104.129H399.88V158.13H401.88ZM400.88 105.129H406.771V103.129H400.88V105.129ZM405.771 104.129V158.13H407.771V104.129H405.771ZM406.771 159.13H452.724V157.13H406.771V159.13ZM451.724 158.13V163.737H453.724V158.13H451.724ZM452.724 162.737H429.748V164.737H452.724V162.737ZM429.748 162.737H406.771V164.737H429.748V162.737Z" fill="#181721"/>
</g>
<defs>
<linearGradient id="paint0_linear_5_41" x1="226.362" y1="17.6689" x2="226.362" y2="226" gradientUnits="userSpaceOnUse">
<stop stop-color="#8F93E5"/>
<stop offset="0.494995" stop-color="#E4E7FB"/>
<stop offset="1" stop-color="#CDECFC"/>
</linearGradient>
<linearGradient id="paint1_linear_5_41" x1="226.362" y1="17.6689" x2="226.362" y2="226" gradientUnits="userSpaceOnUse">
<stop stop-color="#8F93E5"/>
<stop offset="0.510417" stop-color="#CCEAF9"/>
<stop offset="1" stop-color="#CDECFC"/>
</linearGradient>
<linearGradient id="paint2_linear_5_41" x1="226.362" y1="17.6689" x2="226.362" y2="226" gradientUnits="userSpaceOnUse">
<stop offset="0.00520833" stop-color="#D8F5FF"/>
<stop offset="0.744792" stop-color="#8E90F3"/>
<stop offset="0.942708" stop-color="#CDECFC"/>
</linearGradient>
<clipPath id="clip0_5_41">
<rect width="492" height="226" fill="white"/>
</clipPath>
</defs>
</svg>
