<svg width="14" height="14" viewBox="0 0 14 14" fill="none" xmlns="http://www.w3.org/2000/svg">
<g clip-path="url(#clip0_438_954)">
<path d="M7.648 6.15105C7.19749 5.70073 6.58658 5.44775 5.9496 5.44775C5.31261 5.44775 4.70171 5.70073 4.2512 6.15105L2.55225 7.84945C2.10173 8.29996 1.84863 8.911 1.84863 9.54812C1.84863 10.1852 2.10173 10.7963 2.55225 11.2468C3.00276 11.6973 3.6138 11.9504 4.25092 11.9504C4.88805 11.9504 5.49908 11.6973 5.9496 11.2468L6.7988 10.3976" stroke="#B1DFF7" stroke-width="2" stroke-linecap="round" stroke-linejoin="round"/>
<path d="M5.94922 7.84966C6.39973 8.29998 7.01064 8.55295 7.64762 8.55295C8.2846 8.55295 8.89551 8.29998 9.34602 7.84966L11.045 6.15126C11.4955 5.70074 11.7486 5.08971 11.7486 4.45258C11.7486 3.81546 11.4955 3.20442 11.045 2.75391C10.5945 2.30339 9.98342 2.05029 9.34629 2.05029C8.70917 2.05029 8.09813 2.30339 7.64762 2.75391L6.79842 3.60311" stroke="#B1DFF7" stroke-width="2" stroke-linecap="round" stroke-linejoin="round"/>
</g>
<defs>
<clipPath id="clip0_438_954">
<rect width="13.2" height="13.2" fill="white" transform="translate(0.199219 0.400391)"/>
</clipPath>
</defs>
</svg>
