<svg width="13" height="12" viewBox="0 0 13 12" fill="none" xmlns="http://www.w3.org/2000/svg">
<g clip-path="url(#clip0_438_959)">
<path d="M12.4214 2.46829C12.0039 2.65329 11.5554 2.77829 11.0839 2.83479C11.5704 2.54369 11.9343 2.08553 12.1079 1.54579C11.6508 1.81729 11.1505 2.00839 10.6289 2.11079C10.2781 1.73623 9.81339 1.48796 9.30702 1.40453C8.80065 1.32111 8.28091 1.40719 7.82848 1.64942C7.37605 1.89165 7.01625 2.27648 6.80494 2.74415C6.59363 3.21182 6.54263 3.73617 6.65986 4.23579C5.7337 4.18929 4.82767 3.94857 4.00057 3.52925C3.17347 3.10992 2.44378 2.52137 1.85886 1.80179C1.65886 2.14679 1.54386 2.54679 1.54386 2.97279C1.54364 3.35629 1.63808 3.73392 1.8188 4.07216C1.99952 4.41041 2.26094 4.69881 2.57986 4.91179C2.21 4.90003 1.8483 4.80009 1.52486 4.62029V4.65029C1.52482 5.18816 1.71088 5.70948 2.05145 6.12579C2.39203 6.5421 2.86615 6.82776 3.39336 6.93429C3.05025 7.02715 2.69053 7.04083 2.34136 6.97429C2.49011 7.4371 2.77986 7.84181 3.17004 8.13176C3.56023 8.42171 4.03132 8.58238 4.51736 8.59129C3.69228 9.239 2.6733 9.59034 1.62436 9.58879C1.43855 9.58884 1.2529 9.57799 1.06836 9.55629C2.1331 10.2409 3.37253 10.6042 4.63836 10.6028C8.92336 10.6028 11.2659 7.05379 11.2659 3.97579C11.2659 3.87579 11.2634 3.77479 11.2589 3.67479C11.7145 3.34528 12.1078 2.93724 12.4204 2.46979L12.4214 2.46829Z" fill="#B1DFF7"/>
</g>
<defs>
<clipPath id="clip0_438_959">
<rect width="12" height="12" fill="white" transform="translate(0.600586)"/>
</clipPath>
</defs>
</svg>
