<svg width="104" height="185" viewBox="0 0 104 185" fill="none" xmlns="http://www.w3.org/2000/svg">
<path d="M79.5853 108.009L103.034 110.14L102.324 124.352L79.5853 108.009Z" fill="#F359EF"/>
<path d="M52.5835 184.04L102.324 124.352L79.5854 108.009L52.5835 184.04Z" fill="url(#paint0_linear_1_42)"/>
<path d="M82.4275 134.3C79.0168 129.752 79.1115 114.877 79.5852 108.009L52.5835 184.04L88.1123 140.695C87.6385 140.458 85.8383 138.848 82.4275 134.3Z" fill="black" fill-opacity="0.08"/>
<path d="M36.239 132.878L20.6063 139.273L52.5822 184.039L36.239 132.878Z" fill="url(#paint1_linear_1_42)"/>
<path d="M36.2383 132.878L24.1585 137.852L52.5816 184.039L36.2383 132.878Z" fill="black" fill-opacity="0.1"/>
<path d="M36.239 132.878L20.6063 139.273L41.9236 169.117L46.187 164.143L36.239 132.878Z" fill="black" fill-opacity="0.1"/>
<path d="M79.5842 108.009L36.239 132.879L52.5823 184.04L79.5842 108.009Z" fill="url(#paint2_linear_1_42)"/>
<path d="M79.5842 108.009L36.239 132.879L46.1871 164.144L79.5842 108.009Z" fill="url(#paint3_linear_1_42)"/>
<path d="M79.5842 108.009L36.239 132.879L46.1871 164.144L79.5842 108.009Z" fill="url(#paint4_linear_1_42)"/>
<path d="M36.239 132.879L79.5842 108.009L103.033 110.14L102.323 121.509L79.5842 108.009L46.1871 163.433L36.239 132.879Z" fill="url(#paint5_linear_1_42)"/>
<path d="M20.6067 139.272H0L52.5826 184.038L20.6067 139.272Z" fill="url(#paint6_linear_1_42)"/>
<path d="M20.6067 139.272H0L21.3173 157.037L44.7663 173.38L20.6067 139.272Z" fill="black" fill-opacity="0.19"/>
<path d="M0 139.274L7.10576 44.0564L36.2394 132.878L20.6067 139.274H0Z" fill="url(#paint7_linear_1_42)"/>
<path d="M0 139.274L7.10576 44.0564L36.2394 132.878L20.6067 139.274H0Z" fill="url(#paint8_linear_1_42)"/>
<path d="M20.6067 139.274H0L5.14372 70.3477L20.6067 139.274Z" fill="url(#paint9_linear_1_42)"/>
<path d="M64.6624 41.9256L7.10574 44.0574L36.2394 132.879L79.5845 108.009L64.6624 41.9256Z" fill="url(#paint10_linear_1_42)"/>
<path d="M64.6624 41.9256L7.10574 44.0574L36.2394 132.879L79.5845 108.009L64.6624 41.9256Z" fill="url(#paint11_linear_1_42)"/>
<path d="M64.6624 41.9256L7.10574 44.0574L36.2394 132.879L79.5845 108.009L64.6624 41.9256Z" fill="url(#paint12_linear_1_42)"/>
<path d="M64.6615 41.9248L46.1866 42.6354L64.6615 116.535L79.5836 108.008L64.6615 41.9248Z" fill="url(#paint13_linear_1_42)"/>
<path d="M29.8439 43.2032L7.10548 44.0559L36.2391 132.878L46.1872 127.193L29.8439 43.2032Z" fill="url(#paint14_linear_1_42)"/>
<path d="M24.8695 98.7721L36.2388 132.88C55.4243 121.511 77.4522 109.431 77.4522 109.431C58.2666 113.694 51.8714 112.984 44.0551 112.984C36.2388 110.141 28.6593 103.509 24.8695 98.7721Z" fill="url(#paint15_linear_1_42)"/>
<path d="M64.6618 41.924L34.1071 0L7.10518 44.0557L64.6618 41.924Z" fill="url(#paint16_linear_1_42)"/>
<path d="M64.6618 41.924L34.1071 0L7.10518 44.0557L64.6618 41.924Z" fill="url(#paint17_linear_1_42)"/>
<path d="M40.5023 9.23749L34.1071 0L7.10518 44.0557L23.4484 43.3451L25.5802 37.6605L40.5023 9.23749Z" fill="#9DC5E6" fill-opacity="0.2"/>
<path d="M64.663 41.924L34.1083 0L78.8746 35.5288L64.663 41.924Z" fill="url(#paint18_linear_1_42)"/>
<path d="M64.663 41.924L34.1083 0L78.8746 35.5288L64.663 41.924Z" fill="url(#paint19_linear_1_42)"/>
<path d="M78.8749 35.5288L64.6634 41.924L79.5855 108.008L103.035 110.139L78.8749 35.5288Z" fill="url(#paint20_linear_1_42)"/>
<path d="M78.8749 35.5288L64.6634 41.924L79.5855 108.008L68.9269 43.3452L79.5855 37.6606L78.8749 35.5288Z" fill="url(#paint21_linear_1_42)"/>
<defs>
<linearGradient id="paint0_linear_1_42" x1="103.745" y1="118.667" x2="52.5835" y2="163.433" gradientUnits="userSpaceOnUse">
<stop stop-color="#B1DFF7"/>
<stop offset="1" stop-color="#B573E9"/>
</linearGradient>
<linearGradient id="paint1_linear_1_42" x1="37.3048" y1="132.167" x2="37.3048" y2="183.329" gradientUnits="userSpaceOnUse">
<stop stop-color="#1E96CC"/>
<stop offset="1" stop-color="#62B5DB"/>
</linearGradient>
<linearGradient id="paint2_linear_1_42" x1="41.2131" y1="167.697" x2="83.1371" y2="105.877" gradientUnits="userSpaceOnUse">
<stop stop-color="#92B7DD"/>
<stop offset="1" stop-color="#7DD9F1"/>
</linearGradient>
<linearGradient id="paint3_linear_1_42" x1="45.4765" y1="159.881" x2="72.4784" y2="111.561" gradientUnits="userSpaceOnUse">
<stop stop-color="#3A89AD"/>
<stop offset="1" stop-color="#74D9EA"/>
</linearGradient>
<linearGradient id="paint4_linear_1_42" x1="45.4765" y1="159.881" x2="72.4784" y2="111.561" gradientUnits="userSpaceOnUse">
<stop stop-color="#3A89AD"/>
<stop offset="1" stop-color="#74D9EA"/>
</linearGradient>
<linearGradient id="paint5_linear_1_42" x1="62.5303" y1="113.693" x2="66.7938" y2="120.799" gradientUnits="userSpaceOnUse">
<stop stop-color="white" stop-opacity="0.59"/>
<stop offset="1" stop-color="white" stop-opacity="0"/>
</linearGradient>
<linearGradient id="paint6_linear_1_42" x1="1.42115" y1="134.298" x2="51.1615" y2="183.328" gradientUnits="userSpaceOnUse">
<stop stop-color="#BC4ADB"/>
<stop offset="1" stop-color="#CCD7E8"/>
</linearGradient>
<linearGradient id="paint7_linear_1_42" x1="5.68461" y1="44.0564" x2="21.3173" y2="135.721" gradientUnits="userSpaceOnUse">
<stop stop-color="#DA5CDF"/>
<stop offset="1" stop-color="#68B0D8"/>
</linearGradient>
<linearGradient id="paint8_linear_1_42" x1="27.7125" y1="98.7707" x2="21.3173" y2="100.902" gradientUnits="userSpaceOnUse">
<stop stop-color="white"/>
<stop offset="1" stop-color="#68B0D8" stop-opacity="0"/>
</linearGradient>
<linearGradient id="paint9_linear_1_42" x1="-3.55288" y1="132.878" x2="21.3173" y2="117.956" gradientUnits="userSpaceOnUse">
<stop stop-color="white"/>
<stop offset="1" stop-color="#C4C4C4" stop-opacity="0"/>
</linearGradient>
<linearGradient id="paint10_linear_1_42" x1="47.6086" y1="36.9516" x2="43.3451" y2="133.59" gradientUnits="userSpaceOnUse">
<stop stop-color="#D682FF"/>
<stop offset="1" stop-color="#2C87B9"/>
</linearGradient>
<linearGradient id="paint11_linear_1_42" x1="2.13171" y1="48.3208" x2="83.848" y2="109.43" gradientUnits="userSpaceOnUse">
<stop stop-color="#AD6BD3" stop-opacity="0"/>
<stop offset="1" stop-color="white" stop-opacity="0.2"/>
</linearGradient>
<linearGradient id="paint12_linear_1_42" x1="27.0019" y1="88.8237" x2="22.7384" y2="90.2448" gradientUnits="userSpaceOnUse">
<stop stop-color="#AD6BD3" stop-opacity="0"/>
<stop offset="1" stop-color="white" stop-opacity="0.5"/>
</linearGradient>
<linearGradient id="paint13_linear_1_42" x1="48.3183" y1="100.192" x2="82.4259" y2="100.192" gradientUnits="userSpaceOnUse">
<stop stop-color="#CD99E6" stop-opacity="0"/>
<stop offset="0.969497" stop-color="#D2FDFD"/>
</linearGradient>
<linearGradient id="paint14_linear_1_42" x1="26.291" y1="44.0558" x2="26.291" y2="133.588" gradientUnits="userSpaceOnUse">
<stop stop-color="#101010" stop-opacity="0.2"/>
<stop offset="0.359375" stop-color="#101010" stop-opacity="0"/>
<stop offset="0.65625" stop-color="#101010" stop-opacity="0.0612618"/>
<stop offset="1" stop-color="#101010" stop-opacity="0.35"/>
</linearGradient>
<linearGradient id="paint15_linear_1_42" x1="53.2926" y1="95.2193" x2="37.6599" y2="132.169" gradientUnits="userSpaceOnUse">
<stop stop-color="#167EB5" stop-opacity="0"/>
<stop offset="0.494792" stop-color="#167EB5" stop-opacity="0.3"/>
<stop offset="0.911458" stop-color="#167EB5" stop-opacity="0.5"/>
</linearGradient>
<linearGradient id="paint16_linear_1_42" x1="30.5542" y1="3.26988e-07" x2="43.3446" y2="44.0557" gradientUnits="userSpaceOnUse">
<stop stop-color="#CDFBFA"/>
<stop offset="1" stop-color="#C7F9FA"/>
</linearGradient>
<linearGradient id="paint17_linear_1_42" x1="30.5542" y1="1.18158e-06" x2="54.0032" y2="44.0557" gradientUnits="userSpaceOnUse">
<stop stop-color="#CDFBFA" stop-opacity="0"/>
<stop offset="1" stop-color="#72CFDC"/>
</linearGradient>
<linearGradient id="paint18_linear_1_42" x1="34.1083" y1="-5.68461" x2="79.5851" y2="41.2134" gradientUnits="userSpaceOnUse">
<stop stop-color="#BE4DC4"/>
<stop offset="1" stop-color="#CFFAFB"/>
</linearGradient>
<linearGradient id="paint19_linear_1_42" x1="71.0582" y1="13.5009" x2="66.0842" y2="41.2134" gradientUnits="userSpaceOnUse">
<stop stop-color="#BE4DC4" stop-opacity="0"/>
<stop offset="1" stop-color="#71CFDC"/>
</linearGradient>
<linearGradient id="paint20_linear_1_42" x1="68.9269" y1="32.6865" x2="95.9288" y2="112.271" gradientUnits="userSpaceOnUse">
<stop stop-color="#F961F3"/>
<stop offset="1" stop-color="#BFF6F9"/>
</linearGradient>
<linearGradient id="paint21_linear_1_42" x1="61.1105" y1="34.1077" x2="99.4816" y2="83.1374" gradientUnits="userSpaceOnUse">
<stop stop-opacity="0.21"/>
<stop offset="1" stop-opacity="0"/>
</linearGradient>
</defs>
</svg>
