<svg width="430" height="622" viewBox="0 0 430 622" fill="none" xmlns="http://www.w3.org/2000/svg">
<mask id="path-1-inside-1_581_730" fill="white">
<path d="M622 311C622 372.51 603.76 432.639 569.587 483.782C535.414 534.926 486.842 574.788 430.015 598.327C373.187 621.865 310.655 628.024 250.327 616.024C189.999 604.024 134.584 574.404 91.0898 530.91C47.5957 487.416 17.9758 432.001 5.97578 371.673C-6.02423 311.345 0.134612 248.813 23.6735 191.985C47.2123 135.158 87.074 86.5861 138.218 52.4129C189.361 18.2398 249.49 -7.33499e-07 311 0V185.059C286.091 185.059 261.742 192.446 241.031 206.284C220.32 220.123 204.178 239.792 194.646 262.805C185.114 285.817 182.62 311.14 187.479 335.57C192.339 360 204.333 382.44 221.947 400.053C239.56 417.667 262 429.661 286.43 434.521C310.86 439.38 336.183 436.886 359.195 427.354C382.208 417.822 401.877 401.68 415.716 380.969C429.554 360.258 436.941 335.909 436.941 311H622Z"/>
</mask>
<path d="M622 311C622 372.51 603.76 432.639 569.587 483.782C535.414 534.926 486.842 574.788 430.015 598.327C373.187 621.865 310.655 628.024 250.327 616.024C189.999 604.024 134.584 574.404 91.0898 530.91C47.5957 487.416 17.9758 432.001 5.97578 371.673C-6.02423 311.345 0.134612 248.813 23.6735 191.985C47.2123 135.158 87.074 86.5861 138.218 52.4129C189.361 18.2398 249.49 -7.33499e-07 311 0V185.059C286.091 185.059 261.742 192.446 241.031 206.284C220.32 220.123 204.178 239.792 194.646 262.805C185.114 285.817 182.62 311.14 187.479 335.57C192.339 360 204.333 382.44 221.947 400.053C239.56 417.667 262 429.661 286.43 434.521C310.86 439.38 336.183 436.886 359.195 427.354C382.208 417.822 401.877 401.68 415.716 380.969C429.554 360.258 436.941 335.909 436.941 311H622Z" stroke="#ECEFF4" stroke-opacity="0.05" stroke-width="2" mask="url(#path-1-inside-1_581_730)"/>
<mask id="path-2-inside-2_581_730" fill="white">
<path d="M554.618 387.718C541.506 428.155 518.466 464.661 487.604 493.896C456.743 523.132 419.044 544.164 377.957 555.069C336.869 565.975 293.703 566.407 252.405 556.324C211.108 546.242 172.997 525.967 141.557 497.355C110.117 468.742 86.352 432.704 72.4345 392.536C58.517 352.369 54.8912 309.353 61.8888 267.422C68.8863 225.492 86.2838 185.984 112.491 152.513C138.697 119.041 172.877 92.6734 211.904 75.8205L279.086 231.397C266.066 237.02 254.664 245.816 245.921 256.982C237.178 268.149 231.374 281.329 229.04 295.317C226.705 309.305 227.915 323.656 232.558 337.056C237.201 350.456 245.129 362.479 255.618 372.024C266.106 381.57 278.82 388.333 292.597 391.697C306.375 395.061 320.775 394.917 334.482 391.278C348.189 387.64 360.766 380.624 371.062 370.871C381.357 361.117 389.044 348.939 393.418 335.449L554.618 387.718Z"/>
</mask>
<path d="M554.618 387.718C541.506 428.155 518.466 464.661 487.604 493.896C456.743 523.132 419.044 544.164 377.957 555.069C336.869 565.975 293.703 566.407 252.405 556.324C211.108 546.242 172.997 525.967 141.557 497.355C110.117 468.742 86.352 432.704 72.4345 392.536C58.517 352.369 54.8912 309.353 61.8888 267.422C68.8863 225.492 86.2838 185.984 112.491 152.513C138.697 119.041 172.877 92.6734 211.904 75.8205L279.086 231.397C266.066 237.02 254.664 245.816 245.921 256.982C237.178 268.149 231.374 281.329 229.04 295.317C226.705 309.305 227.915 323.656 232.558 337.056C237.201 350.456 245.129 362.479 255.618 372.024C266.106 381.57 278.82 388.333 292.597 391.697C306.375 395.061 320.775 394.917 334.482 391.278C348.189 387.64 360.766 380.624 371.062 370.871C381.357 361.117 389.044 348.939 393.418 335.449L554.618 387.718Z" stroke="#ECEFF4" stroke-opacity="0.05" stroke-width="2" mask="url(#path-2-inside-2_581_730)"/>
<path d="M595.726 335.55C595.532 388.341 564.44 452.201 530.937 492.175C497.343 532.257 453.359 562.313 403.809 579.045C354.259 595.776 301.058 598.537 250.042 587.025C199.026 575.512 152.167 550.171 114.604 513.782C77.0417 477.392 50.2274 431.36 37.103 380.735C23.9786 330.11 25.0512 276.848 40.2029 226.792C55.3547 176.736 84.0004 131.821 122.997 96.973C161.881 62.226 219.771 33.296 284.727 28.0338V150.789C255.446 156.226 226.346 167.863 204.105 187.738C181.78 207.688 165.38 233.401 156.706 262.058C148.032 290.714 147.418 321.206 154.931 350.188C162.445 379.17 177.796 405.523 199.3 426.356C220.804 447.189 247.631 461.696 276.837 468.287C306.043 474.878 336.5 473.297 364.867 463.718C393.233 454.14 418.414 436.933 437.646 413.986C456.811 391.119 465.027 363.456 469.506 334.065L595.726 335.55Z" stroke="#ECEFF4" stroke-opacity="0.05"/>
<path d="M386.37 151.252L388.804 74.4231C426.67 77.4587 465.398 96.3322 491.793 123.639C518.198 150.956 537.241 190.129 539.002 228.063H460.617C459.672 208.435 451.621 189.815 437.956 175.679C424.291 161.542 405.955 152.863 386.37 151.252Z" stroke="#ECEFF4" stroke-opacity="0.05"/>
<g filter="url(#filter0_dd_581_730)">
<mask id="path-5-inside-3_581_730" fill="white">
<path d="M567.016 249.143C567.016 222.292 561.728 195.704 551.452 170.896C541.177 146.089 526.115 123.548 507.129 104.562C488.142 85.5748 465.601 70.5137 440.794 60.2381C415.987 49.9626 389.398 44.6738 362.547 44.6738L362.547 169.789C372.968 169.789 383.287 171.842 392.914 175.83C402.542 179.817 411.29 185.663 418.659 193.031C426.028 200.4 431.873 209.148 435.861 218.776C439.849 228.404 441.901 238.722 441.901 249.143H567.016Z"/>
</mask>
<path d="M567.016 249.143C567.016 222.292 561.728 195.704 551.452 170.896C541.177 146.089 526.115 123.548 507.129 104.562C488.142 85.5748 465.601 70.5137 440.794 60.2381C415.987 49.9626 389.398 44.6738 362.547 44.6738L362.547 169.789C372.968 169.789 383.287 171.842 392.914 175.83C402.542 179.817 411.29 185.663 418.659 193.031C426.028 200.4 431.873 209.148 435.861 218.776C439.849 228.404 441.901 238.722 441.901 249.143H567.016Z" stroke="#ECEFF4" stroke-opacity="0.05" stroke-width="2" shape-rendering="crispEdges" mask="url(#path-5-inside-3_581_730)"/>
</g>
<defs>
<filter id="filter0_dd_581_730" x="358.547" y="44.6738" width="212.469" height="212.47" filterUnits="userSpaceOnUse" color-interpolation-filters="sRGB">
<feFlood flood-opacity="0" result="BackgroundImageFix"/>
<feColorMatrix in="SourceAlpha" type="matrix" values="0 0 0 0 0 0 0 0 0 0 0 0 0 0 0 0 0 0 127 0" result="hardAlpha"/>
<feOffset dy="4"/>
<feGaussianBlur stdDeviation="2"/>
<feComposite in2="hardAlpha" operator="out"/>
<feColorMatrix type="matrix" values="0 0 0 0 0 0 0 0 0 0 0 0 0 0 0 0 0 0 0.25 0"/>
<feBlend mode="normal" in2="BackgroundImageFix" result="effect1_dropShadow_581_730"/>
<feColorMatrix in="SourceAlpha" type="matrix" values="0 0 0 0 0 0 0 0 0 0 0 0 0 0 0 0 0 0 127 0" result="hardAlpha"/>
<feOffset dy="4"/>
<feGaussianBlur stdDeviation="2"/>
<feComposite in2="hardAlpha" operator="out"/>
<feColorMatrix type="matrix" values="0 0 0 0 0 0 0 0 0 0 0 0 0 0 0 0 0 0 0.25 0"/>
<feBlend mode="normal" in2="effect1_dropShadow_581_730" result="effect2_dropShadow_581_730"/>
<feBlend mode="normal" in="SourceGraphic" in2="effect2_dropShadow_581_730" result="shape"/>
</filter>
</defs>
</svg>
