<svg width="137" height="189" viewBox="0 0 137 189" fill="none" xmlns="http://www.w3.org/2000/svg">
<g filter="url(#filter0_d_581_821)">
<path d="M86.1104 104.513L101.065 105.872L100.612 114.936L86.1104 104.513Z" fill="#F359EF"/>
<path d="M68.8899 153.002L100.612 114.936L86.1102 104.513L68.8899 153.002Z" fill="url(#paint0_linear_581_821)"/>
<path d="M87.9228 121.28C85.7476 118.38 85.808 108.893 86.1101 104.513L68.8899 153.002L91.5482 125.358C91.2461 125.207 90.098 124.18 87.9228 121.28Z" fill="black" fill-opacity="0.08"/>
<path d="M58.4667 120.373L48.4971 124.452L68.8896 153.001L58.4667 120.373Z" fill="url(#paint1_linear_581_821)"/>
<path d="M58.4668 120.373L50.7629 123.545L68.8896 153.001L58.4668 120.373Z" fill="black" fill-opacity="0.1"/>
<path d="M58.4667 120.373L48.4971 124.452L62.0921 143.485L64.8111 140.312L58.4667 120.373Z" fill="black" fill-opacity="0.1"/>
<path d="M86.11 104.513L58.4668 120.374L68.8896 153.002L86.11 104.513Z" fill="url(#paint2_linear_581_821)"/>
<path d="M86.11 104.513L58.4668 120.374L64.8111 140.313L86.11 104.513Z" fill="url(#paint3_linear_581_821)"/>
<path d="M86.11 104.513L58.4668 120.374L64.8111 140.313L86.11 104.513Z" fill="url(#paint4_linear_581_821)"/>
<path d="M58.4668 120.374L86.11 104.513L101.064 105.872L100.611 113.123L86.11 104.513L64.8111 139.86L58.4668 120.374Z" fill="url(#paint5_linear_581_821)"/>
<path d="M48.4973 124.451H35.3555L68.8898 153.001L48.4973 124.451Z" fill="url(#paint6_linear_581_821)"/>
<path d="M48.4973 124.451H35.3555L48.9505 135.78L63.905 146.203L48.4973 124.451Z" fill="black" fill-opacity="0.19"/>
<path d="M35.3555 124.452L39.8871 63.7275L58.467 120.373L48.4973 124.452H35.3555Z" fill="url(#paint7_linear_581_821)"/>
<path d="M35.3555 124.452L39.8871 63.7275L58.467 120.373L48.4973 124.452H35.3555Z" fill="url(#paint8_linear_581_821)"/>
<path d="M48.4973 124.452H35.3555L38.6359 80.4947L48.4973 124.452Z" fill="url(#paint9_linear_581_821)"/>
<path d="M76.594 62.3682L39.8875 63.7277L58.4673 120.374L86.1105 104.513L76.594 62.3682Z" fill="url(#paint10_linear_581_821)"/>
<path d="M76.594 62.3682L39.8875 63.7277L58.4673 120.374L86.1105 104.513L76.594 62.3682Z" fill="url(#paint11_linear_581_821)"/>
<path d="M76.594 62.3682L39.8875 63.7277L58.4673 120.374L86.1105 104.513L76.594 62.3682Z" fill="url(#paint12_linear_581_821)"/>
<path d="M76.5936 62.3682L64.8113 62.8213L76.5936 109.951L86.1101 104.513L76.5936 62.3682Z" fill="url(#paint13_linear_581_821)"/>
<path d="M54.3885 63.1836L39.8872 63.7274L58.467 120.373L64.8114 116.748L54.3885 63.1836Z" fill="url(#paint14_linear_581_821)"/>
<path d="M51.2163 98.6221L58.467 120.374C70.7025 113.123 84.7507 105.42 84.7507 105.42C72.5151 108.139 68.4366 107.685 63.4518 107.685C58.467 105.873 53.6332 101.643 51.2163 98.6221Z" fill="url(#paint15_linear_581_821)"/>
<path d="M76.5937 62.3677L57.1075 35.6309L39.8872 63.7272L76.5937 62.3677Z" fill="url(#paint16_linear_581_821)"/>
<path d="M76.5937 62.3677L57.1075 35.6309L39.8872 63.7272L76.5937 62.3677Z" fill="url(#paint17_linear_581_821)"/>
<path d="M61.186 41.522L57.1075 35.6309L39.8872 63.7272L50.31 63.274L51.6695 59.6487L61.186 41.522Z" fill="#9DC5E6" fill-opacity="0.2"/>
<path d="M76.5936 62.3677L57.1074 35.6309L85.6569 58.2892L76.5936 62.3677Z" fill="url(#paint18_linear_581_821)"/>
<path d="M76.5936 62.3677L57.1074 35.6309L85.6569 58.2892L76.5936 62.3677Z" fill="url(#paint19_linear_581_821)"/>
<path d="M85.6571 58.2891L76.5938 62.3676L86.1103 104.512L101.065 105.872L85.6571 58.2891Z" fill="url(#paint20_linear_581_821)"/>
<path d="M85.6571 58.2891L76.5938 62.3676L86.1103 104.512L79.3128 63.2739L86.1103 59.6486L85.6571 58.2891Z" fill="url(#paint21_linear_581_821)"/>
</g>
<defs>
<filter id="filter0_d_581_821" x="0.355469" y="0.630859" width="135.709" height="187.371" filterUnits="userSpaceOnUse" color-interpolation-filters="sRGB">
<feFlood flood-opacity="0" result="BackgroundImageFix"/>
<feColorMatrix in="SourceAlpha" type="matrix" values="0 0 0 0 0 0 0 0 0 0 0 0 0 0 0 0 0 0 127 0" result="hardAlpha"/>
<feOffset/>
<feGaussianBlur stdDeviation="17.5"/>
<feComposite in2="hardAlpha" operator="out"/>
<feColorMatrix type="matrix" values="0 0 0 0 0.8125 0 0 0 0 0.572135 0 0 0 0 0.803012 0 0 0 0.8 0"/>
<feBlend mode="normal" in2="BackgroundImageFix" result="effect1_dropShadow_581_821"/>
<feBlend mode="normal" in="SourceGraphic" in2="effect1_dropShadow_581_821" result="shape"/>
</filter>
<linearGradient id="paint0_linear_581_821" x1="101.518" y1="111.31" x2="68.8899" y2="139.86" gradientUnits="userSpaceOnUse">
<stop stop-color="#B1DFF7"/>
<stop offset="1" stop-color="#B573E9"/>
</linearGradient>
<linearGradient id="paint1_linear_581_821" x1="59.1465" y1="119.92" x2="59.1465" y2="152.548" gradientUnits="userSpaceOnUse">
<stop stop-color="#1E96CC"/>
<stop offset="1" stop-color="#62B5DB"/>
</linearGradient>
<linearGradient id="paint2_linear_581_821" x1="61.639" y1="142.579" x2="88.3758" y2="103.153" gradientUnits="userSpaceOnUse">
<stop stop-color="#92B7DD"/>
<stop offset="1" stop-color="#7DD9F1"/>
</linearGradient>
<linearGradient id="paint3_linear_581_821" x1="64.358" y1="137.594" x2="81.5783" y2="106.779" gradientUnits="userSpaceOnUse">
<stop stop-color="#3A89AD"/>
<stop offset="1" stop-color="#74D9EA"/>
</linearGradient>
<linearGradient id="paint4_linear_581_821" x1="64.358" y1="137.594" x2="81.5783" y2="106.779" gradientUnits="userSpaceOnUse">
<stop stop-color="#3A89AD"/>
<stop offset="1" stop-color="#74D9EA"/>
</linearGradient>
<linearGradient id="paint5_linear_581_821" x1="75.234" y1="108.138" x2="77.953" y2="112.67" gradientUnits="userSpaceOnUse">
<stop stop-color="white" stop-opacity="0.59"/>
<stop offset="1" stop-color="white" stop-opacity="0"/>
</linearGradient>
<linearGradient id="paint6_linear_581_821" x1="36.2618" y1="121.279" x2="67.9835" y2="152.548" gradientUnits="userSpaceOnUse">
<stop stop-color="#BC4ADB"/>
<stop offset="1" stop-color="#CCD7E8"/>
</linearGradient>
<linearGradient id="paint7_linear_581_821" x1="38.9808" y1="63.7275" x2="48.9505" y2="122.186" gradientUnits="userSpaceOnUse">
<stop stop-color="#DA5CDF"/>
<stop offset="1" stop-color="#68B0D8"/>
</linearGradient>
<linearGradient id="paint8_linear_581_821" x1="53.029" y1="98.6214" x2="48.9505" y2="99.9809" gradientUnits="userSpaceOnUse">
<stop stop-color="white"/>
<stop offset="1" stop-color="#68B0D8" stop-opacity="0"/>
</linearGradient>
<linearGradient id="paint9_linear_581_821" x1="33.0896" y1="120.373" x2="48.9505" y2="110.857" gradientUnits="userSpaceOnUse">
<stop stop-color="white"/>
<stop offset="1" stop-color="#C4C4C4" stop-opacity="0"/>
</linearGradient>
<linearGradient id="paint10_linear_581_821" x1="65.718" y1="59.196" x2="62.999" y2="120.827" gradientUnits="userSpaceOnUse">
<stop stop-color="#D682FF"/>
<stop offset="1" stop-color="#2C87B9"/>
</linearGradient>
<linearGradient id="paint11_linear_581_821" x1="36.7153" y1="66.4467" x2="88.8295" y2="105.419" gradientUnits="userSpaceOnUse">
<stop stop-color="#AD6BD3" stop-opacity="0"/>
<stop offset="1" stop-color="white" stop-opacity="0.2"/>
</linearGradient>
<linearGradient id="paint12_linear_581_821" x1="52.5761" y1="92.2772" x2="49.8571" y2="93.1835" gradientUnits="userSpaceOnUse">
<stop stop-color="#AD6BD3" stop-opacity="0"/>
<stop offset="1" stop-color="white" stop-opacity="0.5"/>
</linearGradient>
<linearGradient id="paint13_linear_581_821" x1="66.1708" y1="99.5278" x2="87.9228" y2="99.5278" gradientUnits="userSpaceOnUse">
<stop stop-color="#CD99E6" stop-opacity="0"/>
<stop offset="0.969497" stop-color="#D2FDFD"/>
</linearGradient>
<linearGradient id="paint14_linear_581_821" x1="52.1227" y1="63.7274" x2="52.1227" y2="120.826" gradientUnits="userSpaceOnUse">
<stop stop-color="#101010" stop-opacity="0.2"/>
<stop offset="0.359375" stop-color="#101010" stop-opacity="0"/>
<stop offset="0.65625" stop-color="#101010" stop-opacity="0.0612618"/>
<stop offset="1" stop-color="#101010" stop-opacity="0.35"/>
</linearGradient>
<linearGradient id="paint15_linear_581_821" x1="69.343" y1="96.3562" x2="59.3733" y2="119.921" gradientUnits="userSpaceOnUse">
<stop stop-color="#167EB5" stop-opacity="0"/>
<stop offset="0.494792" stop-color="#167EB5" stop-opacity="0.3"/>
<stop offset="0.911458" stop-color="#167EB5" stop-opacity="0.5"/>
</linearGradient>
<linearGradient id="paint16_linear_581_821" x1="54.8417" y1="35.6309" x2="62.9987" y2="63.7272" gradientUnits="userSpaceOnUse">
<stop stop-color="#CDFBFA"/>
<stop offset="1" stop-color="#C7F9FA"/>
</linearGradient>
<linearGradient id="paint17_linear_581_821" x1="54.8417" y1="35.6309" x2="69.7962" y2="63.7272" gradientUnits="userSpaceOnUse">
<stop stop-color="#CDFBFA" stop-opacity="0"/>
<stop offset="1" stop-color="#72CFDC"/>
</linearGradient>
<linearGradient id="paint18_linear_581_821" x1="57.1074" y1="32.0055" x2="86.1101" y2="61.9145" gradientUnits="userSpaceOnUse">
<stop stop-color="#BE4DC4"/>
<stop offset="1" stop-color="#CFFAFB"/>
</linearGradient>
<linearGradient id="paint19_linear_581_821" x1="80.6721" y1="44.241" x2="77.4999" y2="61.9145" gradientUnits="userSpaceOnUse">
<stop stop-color="#BE4DC4" stop-opacity="0"/>
<stop offset="1" stop-color="#71CFDC"/>
</linearGradient>
<linearGradient id="paint20_linear_581_821" x1="79.3128" y1="56.4764" x2="96.5331" y2="107.231" gradientUnits="userSpaceOnUse">
<stop stop-color="#F961F3"/>
<stop offset="1" stop-color="#BFF6F9"/>
</linearGradient>
<linearGradient id="paint21_linear_581_821" x1="74.3279" y1="57.3827" x2="98.7989" y2="88.6512" gradientUnits="userSpaceOnUse">
<stop stop-opacity="0.21"/>
<stop offset="1" stop-opacity="0"/>
</linearGradient>
</defs>
</svg>
