<svg width="207" height="153" viewBox="0 0 207 153" fill="none" xmlns="http://www.w3.org/2000/svg">
<g filter="url(#filter0_d_1_2)">
<path d="M40.8919 67.6075C42.898 75.6572 37.823 79.5937 35.0348 80.5558C36.3968 81.3741 38.7807 83.5764 37.4209 85.839C38.7829 86.6573 41.1654 88.86 39.8056 91.1225C41.1675 91.9409 43.5515 94.1432 42.1917 96.4057C43.5537 97.2241 45.9369 99.4266 44.5771 101.689C45.9391 102.507 48.323 104.71 46.9632 106.972C48.3252 107.791 50.7092 109.993 49.3494 112.256C52.3678 111.147 59.0949 110.628 61.8565 117.421L145.318 84.5985C144.524 81.056 144.772 73.1926 152.119 70.0793C149.352 70.1275 149.25 66.7866 149.544 65.1101C146.778 65.1584 146.675 61.8174 146.97 60.1409C144.203 60.1892 144.101 56.8483 144.396 55.1718C141.629 55.2201 141.527 51.8791 141.822 50.2026C139.055 50.2509 138.953 46.91 139.247 45.2335C136.481 45.2818 136.378 41.9408 136.673 40.2644C129.78 42.6234 125.42 38.3488 123.724 35.4761L40.8919 67.6075Z" fill="url(#paint0_linear_1_2)"/>
<path d="M40.8919 67.6075C42.898 75.6572 37.823 79.5937 35.0348 80.5558C36.3968 81.3741 38.7807 83.5764 37.4209 85.839C38.7829 86.6573 41.1654 88.86 39.8056 91.1225C41.1675 91.9409 43.5515 94.1432 42.1917 96.4057C43.5537 97.2241 45.9369 99.4266 44.5771 101.689C45.9391 102.507 48.323 104.71 46.9632 106.972C48.3252 107.791 50.7092 109.993 49.3494 112.256C52.3678 111.147 59.0949 110.628 61.8565 117.421L145.318 84.5985C144.524 81.056 144.772 73.1926 152.119 70.0793C149.352 70.1275 149.25 66.7866 149.544 65.1101C146.778 65.1584 146.675 61.8174 146.97 60.1409C144.203 60.1892 144.101 56.8483 144.396 55.1718C141.629 55.2201 141.527 51.8791 141.822 50.2026C139.055 50.2509 138.953 46.91 139.247 45.2335C136.481 45.2818 136.378 41.9408 136.673 40.2644C129.78 42.6234 125.42 38.3488 123.724 35.4761L40.8919 67.6075Z" fill="url(#paint1_linear_1_2)"/>
<path d="M40.891 67.6075C42.8971 75.6572 37.8221 79.5937 35.0339 80.5558C36.3959 81.3741 38.7798 83.5764 37.42 85.839C38.782 86.6573 41.1645 88.86 39.8047 91.1225C41.1667 91.9409 43.5506 94.1432 42.1908 96.4057C43.5528 97.2241 45.936 99.4266 44.5762 101.689C45.9382 102.507 48.3221 104.71 46.9623 106.972C48.3243 107.791 50.7083 109.993 49.3485 112.256C52.3669 111.147 59.0941 110.628 61.8556 117.421L145.317 84.5985C144.523 81.056 144.771 73.1926 152.118 70.0793C149.351 70.1275 149.249 66.7866 149.543 65.1101C146.777 65.1584 146.675 61.8174 146.969 60.1409C144.203 60.1892 144.1 56.8483 144.395 55.1718C141.628 55.2201 141.526 51.8791 141.821 50.2026C139.054 50.2509 138.952 46.91 139.246 45.2335C136.48 45.2818 136.378 41.9408 136.672 40.2644C129.779 42.6234 125.419 38.3488 123.723 35.4761L40.891 67.6075Z" fill="url(#paint2_radial_1_2)"/>
<path d="M40.8919 67.6075C42.898 75.6572 37.823 79.5937 35.0348 80.5558C36.3968 81.3741 38.7807 83.5764 37.4209 85.839C38.7829 86.6573 41.1654 88.86 39.8056 91.1225C41.1675 91.9409 43.5515 94.1432 42.1917 96.4057C43.5537 97.2241 45.9369 99.4266 44.5771 101.689C45.9391 102.507 48.323 104.71 46.9632 106.972C48.3252 107.791 50.7092 109.993 49.3494 112.256C52.3678 111.147 59.0949 110.628 61.8565 117.421L145.318 84.5985C144.524 81.056 144.772 73.1926 152.119 70.0793C149.352 70.1275 149.25 66.7866 149.544 65.1101C146.778 65.1584 146.675 61.8174 146.97 60.1409C144.203 60.1892 144.101 56.8483 144.396 55.1718C141.629 55.2201 141.527 51.8791 141.822 50.2026C139.055 50.2509 138.953 46.91 139.247 45.2335C136.481 45.2818 136.378 41.9408 136.673 40.2644C129.78 42.6234 125.42 38.3488 123.724 35.4761L40.8919 67.6075Z" fill="url(#paint3_linear_1_2)"/>
<path d="M67.1278 57.5726L123.722 35.4762C125.418 38.3488 129.778 42.6235 136.671 40.2644C136.377 41.9409 136.479 45.2818 139.246 45.2336C138.951 46.9101 139.053 50.251 141.82 50.2027C141.525 51.8792 141.627 55.2201 144.394 55.1719C144.099 56.8484 144.202 60.1893 146.968 60.141C146.699 61.6724 146.761 64.5926 148.883 65.0498L149.543 65.1102C149.303 65.1144 149.084 65.0931 148.883 65.0498L67.1278 57.5726Z" fill="black" fill-opacity="0.1"/>
<path d="M71.8007 73.5779L72.1236 74.435C72.2347 74.73 72.2592 74.9532 72.1972 75.1046C72.1454 75.2308 71.9813 75.3483 71.7047 75.4572L68.593 76.6821L74.999 93.6873C75.1101 93.9822 75.1346 94.2054 75.0726 94.3569C75.0208 94.4831 74.8567 94.6006 74.5801 94.7095L73.2058 95.2504L66.5185 77.4987L62.7585 78.9787L62.4356 78.1215C62.3245 77.8266 62.2948 77.6159 62.3465 77.4898C62.4086 77.3383 62.5779 77.2082 62.8545 77.0993L71.8007 73.5779ZM76.3613 71.7827L83.3714 90.3917C83.4825 90.6867 83.5071 90.9098 83.445 91.0613C83.3933 91.1874 83.2291 91.305 82.9525 91.4139L81.5782 91.9548L74.5681 73.3458C74.4569 73.0509 74.4272 72.8403 74.4789 72.7142C74.541 72.5627 74.7104 72.4325 74.9869 72.3237L76.3613 71.7827ZM89.7888 88.723C88.8898 89.0768 88.1773 89.135 87.6511 88.8976C87.1353 88.635 86.6969 88.0244 86.3357 87.0658L81.0235 72.9639C80.6624 72.0053 80.5904 71.261 80.8076 70.731C81.0352 70.1758 81.5984 69.7213 82.4973 69.3674L85.8424 68.0507C86.3438 67.8534 86.7502 67.8521 87.0618 68.047C87.3838 68.2166 87.6973 68.5483 88.0024 69.042L83.9313 70.6445C83.3954 70.8555 83.1034 71.108 83.0554 71.4021C83.0073 71.6961 83.091 72.1289 83.3063 72.7003L88.2019 85.6963C88.4172 86.2677 88.6391 86.646 88.8677 86.8312C89.0962 87.0164 89.4785 87.0035 90.0144 86.7926L94.0855 85.1901L94.4085 86.0472C94.5195 86.3422 94.5527 86.562 94.508 86.7066C94.4735 86.826 94.318 86.9401 94.0414 87.049L89.7888 88.723ZM92.2642 65.5229L99.2743 84.1319C99.3854 84.4269 99.41 84.6501 99.3479 84.8015C99.2962 84.9277 99.132 85.0452 98.8555 85.1541L97.4811 85.6951L90.471 67.0861C90.3598 66.7911 90.3301 66.5806 90.3818 66.4544C90.4439 66.3029 90.6133 66.1728 90.8899 66.0639L92.2642 65.5229ZM107.075 81.9185L105.779 82.4288C105.502 82.5377 105.222 82.5845 104.939 82.5691C104.648 82.5354 104.393 82.4132 104.175 82.2028L97.1763 75.4007L96.4367 73.4375L97.2389 64.422C97.2627 64.1163 97.3748 63.8605 97.5751 63.6547C97.7685 63.4304 98.0035 63.2638 98.2801 63.1549L99.3692 62.7262L98.305 73.6547L107.075 81.9185ZM107.928 70.9782L110.803 78.6098L115.755 76.6603L116.078 77.5175C116.189 77.8124 116.214 78.0356 116.152 78.187C116.1 78.3132 115.936 78.4307 115.659 78.5396L109.332 81.0301L102.322 62.4211C102.211 62.1262 102.181 61.9156 102.233 61.7894C102.295 61.638 102.464 61.5078 102.741 61.399L109.068 58.9084L109.391 59.7656C109.502 60.0606 109.535 60.2804 109.491 60.425C109.456 60.5444 109.301 60.6585 109.024 60.7674L104.72 62.4617L107.324 69.3744L111.498 67.7311L111.821 68.5883C111.932 68.8832 111.966 69.103 111.921 69.2476C111.886 69.367 111.731 69.4812 111.454 69.59L107.928 70.9782ZM120.573 54.3798L120.896 55.2371C121.007 55.5319 121.032 55.7552 120.969 55.9066C120.918 56.0328 120.754 56.1503 120.477 56.2593L117.365 57.4841L123.771 74.4892C123.883 74.7842 123.907 75.0074 123.845 75.1589C123.793 75.285 123.629 75.4026 123.353 75.5114L121.978 76.0524L115.291 58.3006L111.531 59.7806L111.208 58.9235C111.097 58.6285 111.067 58.418 111.119 58.2918C111.181 58.1403 111.35 58.0102 111.627 57.9013L120.573 54.3798Z" fill="#D2FDFD"/>
<path d="M64.3242 63.408C64.2077 71.7031 58.2956 74.2127 55.3542 74.4307C56.4619 75.5698 58.2043 78.308 56.3117 80.1481C57.4195 81.2872 59.1603 84.0254 57.2677 85.8655C58.3755 87.0046 60.1179 89.7428 58.2253 91.583C59.333 92.722 61.0747 95.4602 59.1821 97.3004C60.2898 98.4395 62.0322 101.178 60.1396 103.018C61.2474 104.157 62.9898 106.895 61.0971 108.735C64.2986 108.435 70.9351 109.651 71.87 116.924L160.947 106.508C161.083 102.88 163.332 95.3408 171.23 94.2073C168.543 93.5473 169.297 90.291 170.011 88.7454C167.323 88.0854 168.078 84.8292 168.791 83.2836C166.104 82.6236 166.858 79.3674 167.571 77.8217C164.884 77.1617 165.639 73.9055 166.352 72.3599C163.664 71.6999 164.419 68.4437 165.132 66.8981C162.445 66.2381 163.199 62.9818 163.912 61.4362C156.645 61.9564 153.521 56.7098 152.616 53.4994L64.3242 63.408Z" fill="url(#paint4_linear_1_2)"/>
<path d="M64.3242 63.408C64.2077 71.7031 58.2956 74.2127 55.3542 74.4307C56.4619 75.5698 58.2043 78.308 56.3117 80.1481C57.4195 81.2872 59.1603 84.0254 57.2677 85.8655C58.3755 87.0046 60.1179 89.7428 58.2253 91.583C59.333 92.722 61.0747 95.4602 59.1821 97.3004C60.2898 98.4395 62.0322 101.178 60.1396 103.018C61.2474 104.157 62.9898 106.895 61.0971 108.735C64.2986 108.435 70.9351 109.651 71.87 116.924L160.947 106.508C161.083 102.88 163.332 95.3408 171.23 94.2073C168.543 93.5473 169.297 90.291 170.011 88.7454C167.323 88.0854 168.078 84.8292 168.791 83.2836C166.104 82.6236 166.858 79.3674 167.571 77.8217C164.884 77.1617 165.639 73.9055 166.352 72.3599C163.664 71.6999 164.419 68.4437 165.132 66.8981C162.445 66.2381 163.199 62.9818 163.912 61.4362C156.645 61.9564 153.521 56.7098 152.616 53.4994L64.3242 63.408Z" fill="url(#paint5_linear_1_2)"/>
<path d="M64.3242 63.408C64.2077 71.7031 58.2956 74.2127 55.3542 74.4307C56.4619 75.5698 58.2043 78.308 56.3117 80.1481C57.4195 81.2872 59.1603 84.0254 57.2677 85.8655C58.3755 87.0046 60.1179 89.7428 58.2253 91.583C59.333 92.722 61.0747 95.4602 59.1821 97.3004C60.2898 98.4395 62.0322 101.178 60.1396 103.018C61.2474 104.157 62.9898 106.895 61.0971 108.735C64.2986 108.435 70.9351 109.651 71.87 116.924L160.947 106.508C161.083 102.88 163.332 95.3408 171.23 94.2073C168.543 93.5473 169.297 90.291 170.011 88.7454C167.323 88.0854 168.078 84.8292 168.791 83.2836C166.104 82.6236 166.858 79.3674 167.571 77.8217C164.884 77.1617 165.639 73.9055 166.352 72.3599C163.664 71.6999 164.419 68.4437 165.132 66.8981C162.445 66.2381 163.199 62.9818 163.912 61.4362C156.645 61.9564 153.521 56.7098 152.616 53.4994L64.3242 63.408Z" fill="url(#paint6_linear_1_2)"/>
<path d="M64.3242 63.408C64.2077 71.7031 58.2956 74.2127 55.3542 74.4307C56.4619 75.5698 58.2043 78.308 56.3117 80.1481C57.4195 81.2872 59.1603 84.0254 57.2677 85.8655C58.3755 87.0046 60.1179 89.7428 58.2253 91.583C59.333 92.722 61.0747 95.4602 59.1821 97.3004C60.2898 98.4395 62.0322 101.178 60.1396 103.018C61.2474 104.157 62.9898 106.895 61.0971 108.735C64.2986 108.435 70.9351 109.651 71.87 116.924L160.947 106.508C161.083 102.88 163.332 95.3408 171.23 94.2073C168.543 93.5473 169.297 90.291 170.011 88.7454C167.323 88.0854 168.078 84.8292 168.791 83.2836C166.104 82.6236 166.858 79.3674 167.571 77.8217C164.884 77.1617 165.639 73.9055 166.352 72.3599C163.664 71.6999 164.419 68.4437 165.132 66.8981C162.445 66.2381 163.199 62.9818 163.912 61.4362C156.645 61.9564 153.521 56.7098 152.616 53.4994L64.3242 63.408Z" fill="url(#paint7_radial_1_2)"/>
<path d="M136.046 55.4801L152.614 53.4987C153.52 56.7091 156.644 61.9557 163.911 61.4355C163.198 62.9811 162.443 66.2374 165.131 66.8974C164.417 68.443 163.663 71.6992 166.35 72.3592C165.637 73.9048 164.883 77.1611 167.57 77.8211C166.857 79.3667 166.102 82.6229 168.789 83.2829C168.361 84.2116 167.918 85.7578 168.215 86.9873L170.009 88.7447C168.937 88.4813 168.412 87.8042 168.215 86.9873L136.046 55.4801Z" fill="black" fill-opacity="0.1"/>
<path d="M56.3123 80.1483C58.2049 78.3081 56.4625 75.5699 55.3548 74.4308C56.5822 74.6232 59.7563 74.0422 62.6336 70.1788L117.768 111.341L71.8706 116.924C70.9357 109.651 64.2991 108.435 61.0977 108.735C62.9903 106.895 61.248 104.157 60.1402 103.018C62.0328 101.178 60.2904 98.4396 59.1827 97.3005C61.0753 95.4604 59.3336 92.7222 58.2259 91.5831C60.1185 89.7429 58.3761 87.0047 57.2683 85.8657C59.1609 84.0255 57.4201 81.2873 56.3123 80.1483Z" fill="url(#paint8_linear_1_2)" fill-opacity="0.7"/>
<path d="M92.7862 76.8475L92.8783 77.7588C92.91 78.0724 92.8764 78.2944 92.7776 78.4249C92.6952 78.5335 92.5064 78.605 92.2112 78.6393L88.8894 79.0246L90.717 97.1043C90.7487 97.4178 90.7151 97.6398 90.6163 97.7703C90.5338 97.879 90.3451 97.9505 90.0498 97.9847L88.5827 98.1549L86.6748 79.2815L82.6609 79.747L82.5688 78.8357C82.5371 78.5221 82.5624 78.311 82.6448 78.2023C82.7436 78.0718 82.9407 77.9895 83.236 77.9553L92.7862 76.8475ZM97.6548 76.2828L99.6547 96.0675C99.6864 96.3811 99.6529 96.6031 99.554 96.7336C99.4716 96.8423 99.2828 96.9137 98.9875 96.948L97.5204 97.1182L95.5205 77.3334C95.4888 77.0198 95.5141 76.8087 95.5964 76.7C95.6953 76.5696 95.8924 76.4872 96.1876 76.4529L97.6548 76.2828ZM106.285 96.1015C105.326 96.2128 104.622 96.0862 104.175 95.7218C103.743 95.3355 103.476 94.6329 103.373 93.6138L101.858 78.6208C101.755 77.6017 101.876 76.8638 102.222 76.4073C102.585 75.9291 103.246 75.6343 104.205 75.523L107.776 75.1088C108.311 75.0467 108.704 75.1498 108.956 75.4181C109.223 75.6647 109.441 76.0657 109.609 76.6212L105.263 77.1253C104.691 77.1917 104.344 77.3608 104.222 77.6327C104.1 77.9046 104.07 78.3444 104.132 78.9519L105.528 92.7689C105.59 93.3765 105.707 93.7991 105.881 94.0368C106.054 94.2744 106.427 94.36 106.999 94.2937L111.345 93.7896L111.437 94.7009C111.469 95.0145 111.444 95.2354 111.364 95.3637C111.3 95.4703 111.12 95.5407 110.825 95.5749L106.285 96.1015ZM114.631 74.3136L116.631 94.0984C116.663 94.412 116.63 94.634 116.531 94.7644C116.448 94.8731 116.26 94.9446 115.964 94.9789L114.497 95.149L112.497 75.3642C112.465 75.0507 112.491 74.8395 112.573 74.7308C112.672 74.6004 112.869 74.5181 113.164 74.4838L114.631 74.3136ZM124.739 93.961L123.355 94.1215C123.06 94.1558 122.777 94.1291 122.507 94.0415C122.235 93.9343 122.02 93.7509 121.863 93.4916L116.844 85.1212L116.633 83.034L119.722 74.5262C119.824 74.2368 119.998 74.0184 120.244 73.8708C120.489 73.7037 120.758 73.603 121.054 73.5687L122.216 73.4339L118.383 83.7233L124.739 93.961ZM128.371 83.6058L129.191 91.7196L134.478 91.1063L134.57 92.0177C134.602 92.3312 134.568 92.5533 134.469 92.6837C134.387 92.7924 134.198 92.8638 133.903 92.8981L127.149 93.6816L125.149 73.8968C125.117 73.5832 125.142 73.3721 125.225 73.2634C125.323 73.1329 125.521 73.0506 125.816 73.0163L132.57 72.2329L132.662 73.1442C132.694 73.4578 132.67 73.6787 132.589 73.807C132.525 73.9136 132.346 73.984 132.05 74.0182L127.455 74.5512L128.198 81.9007L132.655 81.3838L132.747 82.2951C132.779 82.6087 132.754 82.8296 132.674 82.9579C132.61 83.0644 132.431 83.1349 132.135 83.1691L128.371 83.6058ZM144.852 70.8083L144.944 71.7196C144.976 72.0332 144.942 72.2552 144.843 72.3857C144.761 72.4944 144.572 72.5658 144.277 72.6001L140.955 72.9854L142.783 91.0651C142.814 91.3787 142.781 91.6006 142.682 91.7311C142.599 91.8398 142.411 91.9113 142.116 91.9455L140.648 92.1157L138.74 73.2423L134.727 73.7078L134.634 72.7965C134.603 72.4829 134.628 72.2718 134.71 72.1631C134.809 72.0327 135.006 71.9503 135.302 71.9161L144.852 70.8083Z" fill="#D2FDFD"/>
</g>
<defs>
<filter id="filter0_d_1_2" x="0.033905" y="0.476147" width="206.196" height="151.945" filterUnits="userSpaceOnUse" color-interpolation-filters="sRGB">
<feFlood flood-opacity="0" result="BackgroundImageFix"/>
<feColorMatrix in="SourceAlpha" type="matrix" values="0 0 0 0 0 0 0 0 0 0 0 0 0 0 0 0 0 0 127 0" result="hardAlpha"/>
<feOffset/>
<feGaussianBlur stdDeviation="17.5"/>
<feComposite in2="hardAlpha" operator="out"/>
<feColorMatrix type="matrix" values="0 0 0 0 0.811765 0 0 0 0 0.572549 0 0 0 0 0.803922 0 0 0 0.8 0"/>
<feBlend mode="normal" in2="BackgroundImageFix" result="effect1_dropShadow_1_2"/>
<feBlend mode="normal" in="SourceGraphic" in2="effect1_dropShadow_1_2" result="shape"/>
</filter>
<linearGradient id="paint0_linear_1_2" x1="56.4564" y1="121.352" x2="106.043" y2="22.6719" gradientUnits="userSpaceOnUse">
<stop stop-color="#6A1D8C"/>
<stop offset="1" stop-color="#61F6FF"/>
</linearGradient>
<linearGradient id="paint1_linear_1_2" x1="42.3685" y1="110.786" x2="51.1557" y2="106.355" gradientUnits="userSpaceOnUse">
<stop stop-color="white"/>
<stop offset="1" stop-color="white" stop-opacity="0"/>
</linearGradient>
<radialGradient id="paint2_radial_1_2" cx="0" cy="0" r="1" gradientUnits="userSpaceOnUse" gradientTransform="translate(54.84 114.771) rotate(-68.9625) scale(5.59125 10.0598)">
<stop stop-color="white"/>
<stop offset="1" stop-color="white" stop-opacity="0"/>
</radialGradient>
<linearGradient id="paint3_linear_1_2" x1="83.4847" y1="112.243" x2="81.8509" y2="107.693" gradientUnits="userSpaceOnUse">
<stop stop-color="white"/>
<stop offset="1" stop-color="white" stop-opacity="0"/>
</linearGradient>
<linearGradient id="paint4_linear_1_2" x1="75.9438" y1="118.633" x2="141.2" y2="31.1721" gradientUnits="userSpaceOnUse">
<stop stop-color="#6A1D8C"/>
<stop offset="1" stop-color="#61F6FF"/>
</linearGradient>
<linearGradient id="paint5_linear_1_2" x1="54.7233" y1="105.531" x2="64.3508" y2="103.492" gradientUnits="userSpaceOnUse">
<stop stop-color="white"/>
<stop offset="1" stop-color="white" stop-opacity="0"/>
</linearGradient>
<linearGradient id="paint6_linear_1_2" x1="94.1036" y1="117.442" x2="93.6859" y2="112.626" gradientUnits="userSpaceOnUse">
<stop stop-color="white"/>
<stop offset="1" stop-color="white" stop-opacity="0"/>
</linearGradient>
<radialGradient id="paint7_radial_1_2" cx="0" cy="0" r="1" gradientUnits="userSpaceOnUse" gradientTransform="translate(66.5866 112.764) rotate(-45) scale(4.54164 8.17131)">
<stop stop-color="white"/>
<stop offset="1" stop-color="white" stop-opacity="0"/>
</radialGradient>
<linearGradient id="paint8_linear_1_2" x1="44.8162" y1="143.701" x2="93.5742" y2="79.3076" gradientUnits="userSpaceOnUse">
<stop stop-color="white"/>
<stop offset="1" stop-color="white" stop-opacity="0"/>
</linearGradient>
</defs>
</svg>
