<svg width="605" height="605" viewBox="0 0 605 605" fill="none" xmlns="http://www.w3.org/2000/svg">
<mask id="path-1-inside-1_1_66" fill="white">
<path d="M151.507 150.638C181.472 120.845 219.599 100.606 261.067 92.4819C302.534 84.3574 345.48 88.7118 384.472 104.995C423.465 121.277 456.754 148.757 480.129 183.959C503.504 219.161 515.915 260.504 515.794 302.76C515.672 345.015 503.023 386.286 479.446 421.353C455.869 456.42 422.423 483.708 383.337 499.766C344.252 515.824 301.282 519.932 259.862 511.569C218.442 503.206 180.432 482.749 150.638 452.783L240.792 363.147C252.857 375.281 268.249 383.566 285.022 386.952C301.796 390.339 319.196 388.675 335.024 382.172C350.852 375.67 364.396 364.619 373.944 350.419C383.491 336.218 388.614 319.506 388.663 302.394C388.712 285.282 383.686 268.54 374.22 254.285C364.754 240.03 351.274 228.902 335.484 222.308C319.694 215.715 302.303 213.951 285.51 217.241C268.718 220.531 253.278 228.727 241.144 240.792L151.507 150.638Z"/>
</mask>
<path d="M151.507 150.638C181.472 120.845 219.599 100.606 261.067 92.4819C302.534 84.3574 345.48 88.7118 384.472 104.995C423.465 121.277 456.754 148.757 480.129 183.959C503.504 219.161 515.915 260.504 515.794 302.76C515.672 345.015 503.023 386.286 479.446 421.353C455.869 456.42 422.423 483.708 383.337 499.766C344.252 515.824 301.282 519.932 259.862 511.569C218.442 503.206 180.432 482.749 150.638 452.783L240.792 363.147C252.857 375.281 268.249 383.566 285.022 386.952C301.796 390.339 319.196 388.675 335.024 382.172C350.852 375.67 364.396 364.619 373.944 350.419C383.491 336.218 388.614 319.506 388.663 302.394C388.712 285.282 383.686 268.54 374.22 254.285C364.754 240.03 351.274 228.902 335.484 222.308C319.694 215.715 302.303 213.951 285.51 217.241C268.718 220.531 253.278 228.727 241.144 240.792L151.507 150.638Z" stroke="#ECEFF4" stroke-opacity="0.1" stroke-width="2" mask="url(#path-1-inside-1_1_66)"/>
<mask id="path-2-inside-2_1_66" fill="white">
<path d="M221.519 146.305C247.569 133.106 276.513 126.648 305.704 127.522C334.894 128.396 363.4 136.574 388.615 151.308C413.829 166.041 434.947 186.861 450.039 211.863C465.13 236.866 473.713 265.252 475.002 294.427C476.292 323.602 470.247 352.635 457.42 378.871C444.593 405.107 425.394 427.709 401.577 444.61C377.761 461.511 350.088 472.171 321.088 475.617C292.088 479.063 262.688 475.184 235.574 464.334L278.824 356.249C287.869 359.869 297.678 361.163 307.352 360.014C317.027 358.864 326.259 355.308 334.204 349.669C342.149 344.031 348.554 336.491 352.834 327.738C357.113 318.986 359.129 309.3 358.699 299.567C358.269 289.834 355.406 280.364 350.371 272.023C345.337 263.682 338.291 256.737 329.88 251.821C321.468 246.906 311.958 244.178 302.22 243.886C292.482 243.595 282.826 245.749 274.135 250.153L221.519 146.305Z"/>
</mask>
<path d="M221.519 146.305C247.569 133.106 276.513 126.648 305.704 127.522C334.894 128.396 363.4 136.574 388.615 151.308C413.829 166.041 434.947 186.861 450.039 211.863C465.13 236.866 473.713 265.252 475.002 294.427C476.292 323.602 470.247 352.635 457.42 378.871C444.593 405.107 425.394 427.709 401.577 444.61C377.761 461.511 350.088 472.171 321.088 475.617C292.088 479.063 262.688 475.184 235.574 464.334L278.824 356.249C287.869 359.869 297.678 361.163 307.352 360.014C317.027 358.864 326.259 355.308 334.204 349.669C342.149 344.031 348.554 336.491 352.834 327.738C357.113 318.986 359.129 309.3 358.699 299.567C358.269 289.834 355.406 280.364 350.371 272.023C345.337 263.682 338.291 256.737 329.88 251.821C321.468 246.906 311.958 244.178 302.22 243.886C292.482 243.595 282.826 245.749 274.135 250.153L221.519 146.305Z" stroke="#ECEFF4" stroke-opacity="0.1" stroke-width="2" mask="url(#path-2-inside-2_1_66)"/>
<path d="M176.414 151.55C202.211 126.172 248.261 110.436 283.889 107.402C319.659 104.355 355.577 111.219 387.702 127.241C419.828 143.263 446.92 167.823 466.007 198.228C485.094 228.632 495.437 263.707 495.904 299.603C496.37 335.499 486.94 370.83 468.649 401.72C450.358 432.61 423.913 457.866 392.214 474.716C360.515 491.567 324.788 499.361 288.951 497.244C253.266 495.136 211.227 480.992 177.252 451.996L236.841 392.749C253.665 404.353 273.416 412.873 293.864 414.081C314.425 415.295 334.924 410.823 353.111 401.156C371.298 391.488 386.471 376.997 396.965 359.274C407.459 341.551 412.87 321.28 412.602 300.685C412.335 280.089 406.4 259.965 395.449 242.521C384.498 225.076 368.954 210.984 350.522 201.792C332.09 192.6 311.482 188.661 290.96 190.409C270.541 192.149 253.09 201.526 236.624 213.549L176.414 151.55Z" stroke="#ECEFF4" stroke-opacity="0.1"/>
<path d="M187.6 342.791L149.222 378.606C132.451 358.727 122.94 330.818 123.456 304.824C123.973 278.817 133.781 250.668 151.309 231.47L189.056 269.434C179.989 279.415 174.84 292.347 174.572 305.839C174.304 319.332 178.936 332.458 187.6 342.791Z" stroke="#ECEFF4" stroke-opacity="0.1"/>
<g filter="url(#filter0_dd_1_66)">
<mask id="path-5-inside-3_1_66" fill="white">
<path d="M148.005 207.385C134.925 220.391 124.533 235.846 117.425 252.868C110.317 269.89 106.632 288.145 106.579 306.591C106.526 325.037 110.106 343.313 117.116 360.375C124.126 377.438 134.428 392.952 147.434 406.033L208.385 345.431C203.338 340.355 199.34 334.334 196.619 327.712C193.899 321.09 192.509 313.997 192.529 306.838C192.55 299.679 193.98 292.594 196.739 285.988C199.498 279.382 203.53 273.384 208.607 268.336L148.005 207.385Z"/>
</mask>
<path d="M148.005 207.385C134.925 220.391 124.533 235.846 117.425 252.868C110.317 269.89 106.632 288.145 106.579 306.591C106.526 325.037 110.106 343.313 117.116 360.375C124.126 377.438 134.428 392.952 147.434 406.033L208.385 345.431C203.338 340.355 199.34 334.334 196.619 327.712C193.899 321.09 192.509 313.997 192.529 306.838C192.55 299.679 193.98 292.594 196.739 285.988C199.498 279.382 203.53 273.384 208.607 268.336L148.005 207.385Z" stroke="#ECEFF4" stroke-opacity="0.1" stroke-width="2" shape-rendering="crispEdges" mask="url(#path-5-inside-3_1_66)"/>
</g>
<defs>
<filter id="filter0_dd_1_66" x="102.578" y="207.385" width="110.029" height="206.648" filterUnits="userSpaceOnUse" color-interpolation-filters="sRGB">
<feFlood flood-opacity="0" result="BackgroundImageFix"/>
<feColorMatrix in="SourceAlpha" type="matrix" values="0 0 0 0 0 0 0 0 0 0 0 0 0 0 0 0 0 0 127 0" result="hardAlpha"/>
<feOffset dy="4"/>
<feGaussianBlur stdDeviation="2"/>
<feComposite in2="hardAlpha" operator="out"/>
<feColorMatrix type="matrix" values="0 0 0 0 0 0 0 0 0 0 0 0 0 0 0 0 0 0 0.25 0"/>
<feBlend mode="normal" in2="BackgroundImageFix" result="effect1_dropShadow_1_66"/>
<feColorMatrix in="SourceAlpha" type="matrix" values="0 0 0 0 0 0 0 0 0 0 0 0 0 0 0 0 0 0 127 0" result="hardAlpha"/>
<feOffset dy="4"/>
<feGaussianBlur stdDeviation="2"/>
<feComposite in2="hardAlpha" operator="out"/>
<feColorMatrix type="matrix" values="0 0 0 0 0 0 0 0 0 0 0 0 0 0 0 0 0 0 0.25 0"/>
<feBlend mode="normal" in2="effect1_dropShadow_1_66" result="effect2_dropShadow_1_66"/>
<feBlend mode="normal" in="SourceGraphic" in2="effect2_dropShadow_1_66" result="shape"/>
</filter>
</defs>
</svg>
