<svg width="39" height="34" viewBox="0 0 39 34" fill="none" xmlns="http://www.w3.org/2000/svg">
<path d="M35.4994 0.392975H4.08301C3.24979 0.392975 2.4507 0.687991 1.86153 1.21312C1.27236 1.73826 0.941368 2.45049 0.941368 3.19314V31.1948C0.941368 31.9375 1.27236 32.6497 1.86153 33.1748C2.4507 33.6999 3.24979 33.995 4.08301 33.995H35.4994C36.3326 33.995 37.1317 33.6999 37.7209 33.1748C38.31 32.6497 38.641 31.9375 38.641 31.1948V3.19314C38.641 2.45049 38.31 1.73826 37.7209 1.21312C37.1317 0.687991 36.3326 0.392975 35.4994 0.392975ZM35.4994 31.1948H4.08301V22.7943L11.9371 15.7939L20.718 23.6204C21.3066 24.1419 22.1029 24.4346 22.9328 24.4346C23.7628 24.4346 24.5591 24.1419 25.1477 23.6204L27.6453 21.3942L35.4994 28.3946V31.1948ZM35.4994 24.4324L29.8602 19.4061C29.2715 18.8846 28.4753 18.5918 27.6453 18.5918C26.8153 18.5918 26.0191 18.8846 25.4304 19.4061L22.9328 21.6322L14.152 13.8058C13.5633 13.2842 12.7671 12.9915 11.9371 12.9915C11.1071 12.9915 10.3109 13.2842 9.72225 13.8058L4.08301 18.8321V3.19314H35.4994V24.4324Z" fill="#6E757C"/>
</svg>
