<svg width="124" height="121" viewBox="0 0 124 121" fill="none" xmlns="http://www.w3.org/2000/svg">
<path d="M77.5 50C80.5656 50 83.5624 49.1203 86.1113 47.472C88.6603 45.8238 90.647 43.4811 91.8201 40.7403C92.9933 37.9994 93.3002 34.9834 92.7022 32.0737C92.1041 29.1639 90.6279 26.4912 88.4602 24.3934C86.2924 22.2956 83.5306 20.867 80.5239 20.2882C77.5172 19.7094 74.4007 20.0065 71.5684 21.1418C68.7362 22.2771 66.3154 24.1997 64.6122 26.6665C62.9091 29.1332 62 32.0333 62 35C62 38.9783 63.633 42.7936 66.5398 45.6066C69.4467 48.4197 73.3891 50 77.5 50V50ZM77.5 30C78.5219 30 79.5208 30.2933 80.3704 30.8427C81.2201 31.3921 81.8823 32.173 82.2734 33.0866C82.6644 34.0002 82.7667 35.0056 82.5674 35.9755C82.368 36.9454 81.876 37.8363 81.1534 38.5355C80.4308 39.2348 79.5102 39.711 78.508 39.9039C77.5057 40.0969 76.4669 39.9978 75.5228 39.6194C74.5787 39.241 73.7718 38.6001 73.2041 37.7779C72.6363 36.9556 72.3333 35.9889 72.3333 35C72.3333 33.6739 72.8777 32.4022 73.8466 31.4645C74.8155 30.5268 76.1297 30 77.5 30Z" fill="#312F49"/>
<path d="M113.667 0H10.3333C7.59276 0 4.96444 1.06235 3.02656 2.95334C1.08869 4.84433 0 7.40907 0 10.0833V110.917C0 113.591 1.08869 116.156 3.02656 118.047C4.96444 119.938 7.59276 121 10.3333 121H113.667C116.407 121 119.036 119.938 120.973 118.047C122.911 116.156 124 113.591 124 110.917V10.0833C124 7.40907 122.911 4.84433 120.973 2.95334C119.036 1.06235 116.407 0 113.667 0V0ZM113.667 110.917H10.3333V80.6667L36.1667 55.4583L65.0483 83.6412C66.9844 85.5193 69.6034 86.5734 72.3333 86.5734C75.0633 86.5734 77.6823 85.5193 79.6183 83.6412L87.8333 75.625L113.667 100.833V110.917ZM113.667 86.5654L95.1183 68.4658C93.1823 66.5878 90.5632 65.5337 87.8333 65.5337C85.1034 65.5337 82.4844 66.5878 80.5483 68.4658L72.3333 76.4821L43.4517 48.2992C41.5156 46.4211 38.8966 45.367 36.1667 45.367C33.4367 45.367 30.8177 46.4211 28.8817 48.2992L10.3333 66.3987V10.0833H113.667V86.5654Z" fill="#312F49"/>
</svg>
