<svg width="600" height="600" viewBox="0 0 600 600" fill="none" xmlns="http://www.w3.org/2000/svg">
<g clip-path="url(#clip0_483_678)">
<rect width="600" height="600" rx="10" fill="white"/>
<rect width="700" height="700" fill="#16151A"/>
<path d="M315.5 265C318.566 265 321.562 264.12 324.111 262.472C326.66 260.824 328.647 258.481 329.82 255.74C330.993 252.999 331.3 249.983 330.702 247.074C330.104 244.164 328.628 241.491 326.46 239.393C324.292 237.296 321.531 235.867 318.524 235.288C315.517 234.709 312.401 235.006 309.568 236.142C306.736 237.277 304.315 239.2 302.612 241.666C300.909 244.133 300 247.033 300 250C300 253.978 301.633 257.794 304.54 260.607C307.447 263.42 311.389 265 315.5 265ZM315.5 245C316.522 245 317.521 245.293 318.37 245.843C319.22 246.392 319.882 247.173 320.273 248.087C320.664 249 320.767 250.006 320.567 250.975C320.368 251.945 319.876 252.836 319.153 253.536C318.431 254.235 317.51 254.711 316.508 254.904C315.506 255.097 314.467 254.998 313.523 254.619C312.579 254.241 311.772 253.6 311.204 252.778C310.636 251.956 310.333 250.989 310.333 250C310.333 248.674 310.878 247.402 311.847 246.464C312.816 245.527 314.13 245 315.5 245Z" fill="#312F49"/>
<path d="M351.667 215H248.333C245.593 215 242.964 216.062 241.027 217.953C239.089 219.844 238 222.409 238 225.083V325.917C238 328.591 239.089 331.156 241.027 333.047C242.964 334.938 245.593 336 248.333 336H351.667C354.407 336 357.036 334.938 358.973 333.047C360.911 331.156 362 328.591 362 325.917V225.083C362 222.409 360.911 219.844 358.973 217.953C357.036 216.062 354.407 215 351.667 215ZM351.667 325.917H248.333V295.667L274.167 270.458L303.048 298.641C304.984 300.519 307.603 301.573 310.333 301.573C313.063 301.573 315.682 300.519 317.618 298.641L325.833 290.625L351.667 315.833V325.917ZM351.667 301.565L333.118 283.466C331.182 281.588 328.563 280.534 325.833 280.534C323.103 280.534 320.484 281.588 318.548 283.466L310.333 291.482L281.452 263.299C279.516 261.421 276.897 260.367 274.167 260.367C271.437 260.367 268.818 261.421 266.882 263.299L248.333 281.399V225.083H351.667V301.565Z" fill="#312F49"/>
<path d="M271.196 356.2C272.684 356.2 273.972 356.448 275.06 356.944C276.164 357.44 277.012 358.144 277.604 359.056C278.196 359.968 278.492 361.048 278.492 362.296C278.492 363.528 278.196 364.608 277.604 365.536C277.012 366.448 276.164 367.152 275.06 367.648C273.972 368.128 272.684 368.368 271.196 368.368H267.812V373H263.924V356.2H271.196ZM270.98 365.2C272.148 365.2 273.036 364.952 273.644 364.456C274.252 363.944 274.556 363.224 274.556 362.296C274.556 361.352 274.252 360.632 273.644 360.136C273.036 359.624 272.148 359.368 270.98 359.368H267.812V365.2H270.98ZM289.086 359.896C290.686 359.896 291.974 360.376 292.95 361.336C293.942 362.296 294.438 363.72 294.438 365.608V373H290.694V366.184C290.694 365.16 290.47 364.4 290.022 363.904C289.574 363.392 288.926 363.136 288.078 363.136C287.134 363.136 286.382 363.432 285.822 364.024C285.262 364.6 284.982 365.464 284.982 366.616V373H281.238V355.192H284.982V361.432C285.478 360.936 286.078 360.56 286.782 360.304C287.486 360.032 288.254 359.896 289.086 359.896ZM304.117 373.192C302.757 373.192 301.533 372.912 300.445 372.352C299.373 371.776 298.533 370.984 297.925 369.976C297.317 368.968 297.013 367.824 297.013 366.544C297.013 365.264 297.317 364.12 297.925 363.112C298.533 362.104 299.373 361.32 300.445 360.76C301.533 360.184 302.757 359.896 304.117 359.896C305.477 359.896 306.693 360.184 307.765 360.76C308.837 361.32 309.677 362.104 310.285 363.112C310.893 364.12 311.197 365.264 311.197 366.544C311.197 367.824 310.893 368.968 310.285 369.976C309.677 370.984 308.837 371.776 307.765 372.352C306.693 372.912 305.477 373.192 304.117 373.192ZM304.117 370.12C305.077 370.12 305.861 369.8 306.469 369.16C307.093 368.504 307.405 367.632 307.405 366.544C307.405 365.456 307.093 364.592 306.469 363.952C305.861 363.296 305.077 362.968 304.117 362.968C303.157 362.968 302.365 363.296 301.741 363.952C301.117 364.592 300.805 365.456 300.805 366.544C300.805 367.632 301.117 368.504 301.741 369.16C302.365 369.8 303.157 370.12 304.117 370.12ZM322.027 372.376C321.659 372.648 321.203 372.856 320.659 373C320.131 373.128 319.571 373.192 318.979 373.192C317.443 373.192 316.251 372.8 315.403 372.016C314.571 371.232 314.155 370.08 314.155 368.56V363.256H312.163V360.376H314.155V357.232H317.899V360.376H321.115V363.256H317.899V368.512C317.899 369.056 318.035 369.48 318.307 369.784C318.595 370.072 318.995 370.216 319.507 370.216C320.099 370.216 320.603 370.056 321.019 369.736L322.027 372.376ZM329.874 373.192C328.514 373.192 327.29 372.912 326.202 372.352C325.13 371.776 324.29 370.984 323.682 369.976C323.074 368.968 322.77 367.824 322.77 366.544C322.77 365.264 323.074 364.12 323.682 363.112C324.29 362.104 325.13 361.32 326.202 360.76C327.29 360.184 328.514 359.896 329.874 359.896C331.234 359.896 332.45 360.184 333.522 360.76C334.594 361.32 335.434 362.104 336.042 363.112C336.65 364.12 336.954 365.264 336.954 366.544C336.954 367.824 336.65 368.968 336.042 369.976C335.434 370.984 334.594 371.776 333.522 372.352C332.45 372.912 331.234 373.192 329.874 373.192ZM329.874 370.12C330.834 370.12 331.618 369.8 332.226 369.16C332.85 368.504 333.162 367.632 333.162 366.544C333.162 365.456 332.85 364.592 332.226 363.952C331.618 363.296 330.834 362.968 329.874 362.968C328.914 362.968 328.122 363.296 327.498 363.952C326.874 364.592 326.562 365.456 326.562 366.544C326.562 367.632 326.874 368.504 327.498 369.16C328.122 369.8 328.914 370.12 329.874 370.12Z" fill="#312F49"/>
</g>
<defs>
<clipPath id="clip0_483_678">
<rect width="600" height="600" rx="10" fill="white"/>
</clipPath>
</defs>
</svg>
