<svg width="19" height="18" viewBox="0 0 19 18" fill="none" xmlns="http://www.w3.org/2000/svg">
<path d="M3.97693 16.1417H15.2598V13.5677C15.2586 12.6123 14.8422 11.6963 14.1019 11.0208C13.3615 10.3452 12.3578 9.96519 11.3108 9.9641H7.92594C6.87897 9.96519 5.87521 10.3452 5.13489 11.0208C4.39456 11.6963 3.97812 12.6123 3.97693 13.5677V16.1417Z" fill="#6E757C"/>
<path d="M5.66934 5.33091C5.66934 6.04364 5.90095 6.74035 6.33487 7.33296C6.76879 7.92557 7.38554 8.38745 8.10713 8.6602C8.82872 8.93294 9.62274 9.00431 10.3888 8.86526C11.1548 8.72622 11.8584 8.38301 12.4107 7.87904C12.963 7.37507 13.3391 6.73297 13.4915 6.03394C13.6439 5.33491 13.5657 4.61035 13.2668 3.95188C12.9679 3.29341 12.4617 2.73061 11.8123 2.33464C11.1629 1.93867 10.3994 1.72733 9.61835 1.72733C8.57101 1.72733 7.56656 2.10699 6.82598 2.78279C6.0854 3.4586 5.66934 4.37518 5.66934 5.33091Z" fill="#6E757C"/>
</svg>
