<svg width="465" height="835" viewBox="0 0 465 835" fill="none" xmlns="http://www.w3.org/2000/svg">
<mask id="path-1-inside-1_410_624" fill="white">
<path d="M835 417.5C835 500.074 810.514 580.793 764.639 649.451C718.763 718.108 653.558 771.62 577.27 803.22C500.982 834.819 417.037 843.087 336.05 826.978C255.063 810.869 180.671 771.106 122.283 712.717C63.8945 654.329 24.1315 579.937 8.02215 498.95C-8.08718 417.963 0.180709 334.018 31.7803 257.73C63.3799 181.442 116.892 116.237 185.549 70.3614C254.207 24.4859 334.926 -9.84681e-07 417.5 0V248.432C384.061 248.432 351.374 258.348 323.571 276.925C295.768 295.502 274.098 321.907 261.301 352.8C248.505 383.694 245.157 417.688 251.681 450.484C258.204 483.28 274.306 513.405 297.951 537.049C321.595 560.694 351.72 576.796 384.516 583.32C417.312 589.843 451.306 586.495 482.2 573.699C513.093 560.902 539.498 539.232 558.075 511.429C576.652 483.626 586.568 450.939 586.568 417.5H835Z"/>
</mask>
<path d="M835 417.5C835 500.074 810.514 580.793 764.639 649.451C718.763 718.108 653.558 771.62 577.27 803.22C500.982 834.819 417.037 843.087 336.05 826.978C255.063 810.869 180.671 771.106 122.283 712.717C63.8945 654.329 24.1315 579.937 8.02215 498.95C-8.08718 417.963 0.180709 334.018 31.7803 257.73C63.3799 181.442 116.892 116.237 185.549 70.3614C254.207 24.4859 334.926 -9.84681e-07 417.5 0V248.432C384.061 248.432 351.374 258.348 323.571 276.925C295.768 295.502 274.098 321.907 261.301 352.8C248.505 383.694 245.157 417.688 251.681 450.484C258.204 483.28 274.306 513.405 297.951 537.049C321.595 560.694 351.72 576.796 384.516 583.32C417.312 589.843 451.306 586.495 482.2 573.699C513.093 560.902 539.498 539.232 558.075 511.429C576.652 483.626 586.568 450.939 586.568 417.5H835Z" stroke="#181818" stroke-width="2" mask="url(#path-1-inside-1_410_624)"/>
<mask id="path-2-inside-2_410_624" fill="white">
<path d="M744.544 520.489C726.942 574.774 696.012 623.781 654.582 663.028C613.152 702.275 562.544 730.509 507.386 745.149C452.228 759.79 394.28 760.369 338.84 746.834C283.4 733.299 232.238 706.081 190.032 667.671C147.826 629.26 115.923 580.881 97.2395 526.958C78.5561 473.035 73.6887 415.289 83.0825 358.999C92.4763 302.71 115.832 249.673 151.013 204.74C186.194 159.806 232.078 124.409 284.47 101.785L374.657 310.638C357.179 318.185 341.872 329.994 330.135 344.984C318.398 359.975 310.607 377.668 307.473 396.447C304.339 415.225 305.963 434.49 312.196 452.479C318.429 470.468 329.072 486.607 343.152 499.422C357.233 512.236 374.301 521.316 392.796 525.831C411.291 530.346 430.623 530.153 449.024 525.269C467.425 520.385 484.308 510.966 498.13 497.873C511.951 484.78 522.269 468.431 528.142 450.321L744.544 520.489Z"/>
</mask>
<path d="M744.544 520.489C726.942 574.774 696.012 623.781 654.582 663.028C613.152 702.275 562.544 730.509 507.386 745.149C452.228 759.79 394.28 760.369 338.84 746.834C283.4 733.299 232.238 706.081 190.032 667.671C147.826 629.26 115.923 580.881 97.2395 526.958C78.5561 473.035 73.6887 415.289 83.0825 358.999C92.4763 302.71 115.832 249.673 151.013 204.74C186.194 159.806 232.078 124.409 284.47 101.785L374.657 310.638C357.179 318.185 341.872 329.994 330.135 344.984C318.398 359.975 310.607 377.668 307.473 396.447C304.339 415.225 305.963 434.49 312.196 452.479C318.429 470.468 329.072 486.607 343.152 499.422C357.233 512.236 374.301 521.316 392.796 525.831C411.291 530.346 430.623 530.153 449.024 525.269C467.425 520.385 484.308 510.966 498.13 497.873C511.951 484.78 522.269 468.431 528.142 450.321L744.544 520.489Z" stroke="#181818" stroke-width="2" mask="url(#path-2-inside-2_410_624)"/>
<path d="M799.9 450.288C799.707 521.243 757.911 607.103 712.885 660.827C667.767 714.66 608.693 755.026 542.146 777.497C475.598 799.968 404.146 803.676 335.63 788.215C267.113 772.753 204.179 738.719 153.731 689.846C103.283 640.973 67.2699 579.15 49.6432 511.158C32.0165 443.166 33.457 371.633 53.8065 304.406C74.1561 237.179 112.628 176.856 165.003 130.053C217.265 83.3518 295.087 44.4757 382.401 37.4482V202.568C343.067 209.852 303.976 225.469 274.114 252.155C244.167 278.916 222.169 313.408 210.533 351.847C198.898 390.287 198.074 431.188 208.153 470.065C218.231 508.941 238.823 544.291 267.668 572.236C296.514 600.181 332.499 619.641 371.676 628.482C410.852 637.322 451.707 635.202 489.758 622.353C527.809 609.505 561.587 586.424 587.384 555.643C613.115 524.942 624.133 487.789 630.139 448.291L799.9 450.288Z" stroke="#181818"/>
</svg>
