<svg width="207" height="153" viewBox="0 0 207 153" fill="none" xmlns="http://www.w3.org/2000/svg">
<g filter="url(#filter0_d_21_2)">
<path d="M41.1204 67.3956C43.1265 75.4453 38.0515 79.3818 35.2633 80.3438C36.6253 81.1622 39.0092 83.3645 37.6494 85.627C39.0114 86.4454 41.3939 88.6481 40.0341 90.9106C41.396 91.729 43.78 93.9313 42.4202 96.1938C43.7822 97.0122 46.1654 99.2147 44.8056 101.477C46.1676 102.296 48.5515 104.498 47.1917 106.76C48.5537 107.579 50.9377 109.781 49.5779 112.044C52.5963 110.935 59.3234 110.416 62.085 117.209L145.546 84.3866C144.752 80.8441 145 72.9807 152.347 69.8673C149.58 69.9156 149.478 66.5747 149.773 64.8982C147.006 64.9464 146.904 61.6055 147.199 59.929C144.432 59.9773 144.33 56.6364 144.624 54.9599C141.858 55.0081 141.755 51.6672 142.05 49.9907C139.283 50.039 139.181 46.6981 139.476 45.0216C136.709 45.0698 136.607 41.7289 136.902 40.0524C130.009 42.4115 125.648 38.1368 123.953 35.2642L41.1204 67.3956Z" fill="url(#paint0_linear_21_2)"/>
<path d="M41.1204 67.3956C43.1265 75.4453 38.0515 79.3818 35.2633 80.3438C36.6253 81.1622 39.0092 83.3645 37.6494 85.627C39.0114 86.4454 41.3939 88.6481 40.0341 90.9106C41.396 91.729 43.78 93.9313 42.4202 96.1938C43.7822 97.0122 46.1654 99.2147 44.8056 101.477C46.1676 102.296 48.5515 104.498 47.1917 106.76C48.5537 107.579 50.9377 109.781 49.5779 112.044C52.5963 110.935 59.3234 110.416 62.085 117.209L145.546 84.3866C144.752 80.8441 145 72.9807 152.347 69.8673C149.58 69.9156 149.478 66.5747 149.773 64.8982C147.006 64.9464 146.904 61.6055 147.199 59.929C144.432 59.9773 144.33 56.6364 144.624 54.9599C141.858 55.0081 141.755 51.6672 142.05 49.9907C139.283 50.039 139.181 46.6981 139.476 45.0216C136.709 45.0698 136.607 41.7289 136.902 40.0524C130.009 42.4115 125.648 38.1368 123.953 35.2642L41.1204 67.3956Z" fill="url(#paint1_linear_21_2)"/>
<path d="M41.1195 67.3956C43.1256 75.4453 38.0507 79.3818 35.2624 80.3438C36.6244 81.1622 39.0084 83.3645 37.6486 85.627C39.0105 86.4454 41.393 88.6481 40.0332 90.9106C41.3952 91.729 43.7792 93.9313 42.4194 96.1938C43.7813 97.0122 46.1646 99.2147 44.8047 101.477C46.1667 102.296 48.5507 104.498 47.1909 106.76C48.5528 107.579 50.9368 109.781 49.577 112.044C52.5954 110.935 59.3226 110.416 62.0841 117.209L145.546 84.3866C144.751 80.8441 144.999 72.9807 152.346 69.8673C149.58 69.9156 149.477 66.5747 149.772 64.8982C147.005 64.9464 146.903 61.6055 147.198 59.929C144.431 59.9773 144.329 56.6364 144.623 54.9599C141.857 55.0081 141.755 51.6672 142.049 49.9907C139.283 50.039 139.18 46.6981 139.475 45.0216C136.708 45.0698 136.606 41.7289 136.901 40.0524C130.008 42.4115 125.647 38.1368 123.952 35.2642L41.1195 67.3956Z" fill="url(#paint2_radial_21_2)"/>
<path d="M41.1204 67.3956C43.1265 75.4453 38.0515 79.3818 35.2633 80.3438C36.6253 81.1622 39.0092 83.3645 37.6494 85.627C39.0114 86.4454 41.3939 88.6481 40.0341 90.9106C41.396 91.729 43.78 93.9313 42.4202 96.1938C43.7822 97.0122 46.1654 99.2147 44.8056 101.477C46.1676 102.296 48.5515 104.498 47.1917 106.76C48.5537 107.579 50.9377 109.781 49.5779 112.044C52.5963 110.935 59.3234 110.416 62.085 117.209L145.546 84.3866C144.752 80.8441 145 72.9807 152.347 69.8673C149.58 69.9156 149.478 66.5747 149.773 64.8982C147.006 64.9464 146.904 61.6055 147.199 59.929C144.432 59.9773 144.33 56.6364 144.624 54.9599C141.858 55.0081 141.755 51.6672 142.05 49.9907C139.283 50.039 139.181 46.6981 139.476 45.0216C136.709 45.0698 136.607 41.7289 136.902 40.0524C130.009 42.4115 125.648 38.1368 123.953 35.2642L41.1204 67.3956Z" fill="url(#paint3_linear_21_2)"/>
<path d="M67.3563 57.3607L123.951 35.2643C125.646 38.1369 130.007 42.4116 136.9 40.0525C136.605 41.729 136.707 45.0699 139.474 45.0217C139.179 46.6982 139.282 50.0391 142.048 49.9908C141.754 51.6673 141.856 55.0082 144.623 54.96C144.328 56.6365 144.43 59.9774 147.197 59.9291C146.928 61.4605 146.99 64.3807 149.111 64.8379L149.771 64.8983C149.532 64.9025 149.312 64.8812 149.111 64.8379L67.3563 57.3607Z" fill="black" fill-opacity="0.1"/>
<path d="M72.0292 73.366L72.3521 74.2231C72.4632 74.5181 72.4877 74.7412 72.4257 74.8927C72.3739 75.0189 72.2098 75.1364 71.9332 75.2453L68.8215 76.4701L75.2275 93.4754C75.3386 93.7703 75.3631 93.9935 75.3011 94.1449C75.2493 94.2711 75.0852 94.3887 74.8086 94.4975L73.4343 95.0385L66.747 77.2867L62.987 78.7667L62.6641 77.9095C62.553 77.6146 62.5233 77.404 62.5751 77.2778C62.6371 77.1264 62.8064 76.9963 63.083 76.8874L72.0292 73.366ZM76.5898 71.5708L83.5999 90.1798C83.711 90.4747 83.7356 90.6979 83.6735 90.8493C83.6218 90.9755 83.4576 91.0931 83.181 91.2019L81.8067 91.7429L74.7966 73.1339C74.6854 72.8389 74.6557 72.6284 74.7075 72.5022C74.7695 72.3508 74.9389 72.2206 75.2154 72.1117L76.5898 71.5708ZM90.0173 88.5111C89.1183 88.8649 88.4058 88.9231 87.8796 88.6857C87.3638 88.423 86.9254 87.8124 86.5643 86.8539L81.252 72.752C80.8909 71.7934 80.8189 71.0491 81.0361 70.5191C81.2637 69.9638 81.8269 69.5093 82.7259 69.1554L86.0709 67.8387C86.5723 67.6414 86.9787 67.6402 87.2903 67.835C87.6123 68.0046 87.9258 68.3363 88.2309 68.8301L84.1598 70.4326C83.6239 70.6435 83.3319 70.896 83.2839 71.1901C83.2358 71.4842 83.3195 71.917 83.5348 72.4884L88.4304 85.4843C88.6457 86.0557 88.8676 86.4341 89.0962 86.6193C89.3248 86.8045 89.707 86.7916 90.2429 86.5806L94.3141 84.9782L94.637 85.8353C94.748 86.1303 94.7812 86.35 94.7365 86.4947C94.702 86.6141 94.5465 86.7282 94.2699 86.8371L90.0173 88.5111ZM92.4927 65.311L99.5028 83.92C99.6139 84.2149 99.6385 84.4381 99.5764 84.5896C99.5247 84.7157 99.3605 84.8333 99.084 84.9422L97.7096 85.4831L90.6995 66.8741C90.5883 66.5792 90.5586 66.3686 90.6103 66.2424C90.6724 66.091 90.8418 65.9608 91.1184 65.852L92.4927 65.311ZM107.304 81.7065L106.007 82.2169C105.731 82.3257 105.451 82.3725 105.167 82.3572C104.876 82.3234 104.622 82.2013 104.404 81.9909L97.4048 75.1888L96.6652 73.2256L97.4674 64.2101C97.4912 63.9044 97.6033 63.6486 97.8036 63.4427C97.997 63.2184 98.2321 63.0518 98.5087 62.9429L99.5977 62.5143L98.5335 73.4427L107.304 81.7065ZM108.156 70.7663L111.031 78.3978L115.984 76.4483L116.307 77.3055C116.418 77.6004 116.442 77.8236 116.38 77.9751C116.329 78.1013 116.165 78.2188 115.888 78.3277L109.561 80.8182L102.551 62.2092C102.44 61.9142 102.41 61.7037 102.462 61.5775C102.524 61.426 102.693 61.2959 102.97 61.187L109.297 58.6965L109.62 59.5537C109.731 59.8486 109.764 60.0684 109.719 60.213C109.685 60.3324 109.529 60.4465 109.253 60.5554L104.948 62.2498L107.552 69.1625L111.727 67.5192L112.05 68.3763C112.161 68.6713 112.194 68.8911 112.149 69.0357C112.115 69.1551 111.959 69.2692 111.683 69.3781L108.156 70.7663ZM120.802 54.1679L121.124 55.0252C121.236 55.32 121.26 55.5432 121.198 55.6947C121.146 55.8208 120.982 55.9384 120.705 56.0473L117.594 57.2721L124 74.2773C124.111 74.5723 124.135 74.7955 124.073 74.947C124.022 75.0731 123.858 75.1906 123.581 75.2995L122.207 75.8404L115.519 58.0887L111.759 59.5687L111.436 58.7115C111.325 58.4166 111.296 58.206 111.347 58.0798C111.409 57.9284 111.579 57.7982 111.855 57.6894L120.802 54.1679Z" fill="#D2FDFD"/>
<path d="M64.5528 63.1961C64.4363 71.4911 58.5242 74.0008 55.5828 74.2188C56.6905 75.3578 58.4329 78.096 56.5403 79.9362C57.6481 81.0753 59.3889 83.8134 57.4963 85.6536C58.6041 86.7927 60.3465 89.5309 58.4539 91.371C59.5616 92.5101 61.3033 95.2483 59.4107 97.0884C60.5184 98.2275 62.2608 100.966 60.3682 102.806C61.476 103.945 63.2183 106.683 61.3257 108.523C64.5271 108.223 71.1637 109.439 72.0986 116.712L161.175 106.296C161.312 102.668 163.56 95.1289 171.459 93.9953C168.772 93.3353 169.526 90.0791 170.239 88.5335C167.552 87.8735 168.306 84.6173 169.019 83.0716C166.332 82.4116 167.087 79.1554 167.8 77.6098C165.113 76.9498 165.867 73.6936 166.58 72.148C163.893 71.488 164.647 68.2317 165.361 66.6861C162.673 66.0261 163.428 62.7699 164.141 61.2243C156.874 61.7445 153.75 56.4979 152.844 53.2875L64.5528 63.1961Z" fill="url(#paint4_linear_21_2)"/>
<path d="M64.5528 63.1961C64.4363 71.4911 58.5242 74.0008 55.5828 74.2188C56.6905 75.3578 58.4329 78.096 56.5403 79.9362C57.6481 81.0753 59.3889 83.8134 57.4963 85.6536C58.6041 86.7927 60.3465 89.5309 58.4539 91.371C59.5616 92.5101 61.3033 95.2483 59.4107 97.0884C60.5184 98.2275 62.2608 100.966 60.3682 102.806C61.476 103.945 63.2183 106.683 61.3257 108.523C64.5271 108.223 71.1637 109.439 72.0986 116.712L161.175 106.296C161.312 102.668 163.56 95.1289 171.459 93.9953C168.772 93.3353 169.526 90.0791 170.239 88.5335C167.552 87.8735 168.306 84.6173 169.019 83.0716C166.332 82.4116 167.087 79.1554 167.8 77.6098C165.113 76.9498 165.867 73.6936 166.58 72.148C163.893 71.488 164.647 68.2317 165.361 66.6861C162.673 66.0261 163.428 62.7699 164.141 61.2243C156.874 61.7445 153.75 56.4979 152.844 53.2875L64.5528 63.1961Z" fill="url(#paint5_linear_21_2)"/>
<path d="M64.5528 63.1961C64.4363 71.4911 58.5242 74.0008 55.5828 74.2188C56.6905 75.3578 58.4329 78.096 56.5403 79.9362C57.6481 81.0753 59.3889 83.8134 57.4963 85.6536C58.6041 86.7927 60.3465 89.5309 58.4539 91.371C59.5616 92.5101 61.3033 95.2483 59.4107 97.0884C60.5184 98.2275 62.2608 100.966 60.3682 102.806C61.476 103.945 63.2183 106.683 61.3257 108.523C64.5271 108.223 71.1637 109.439 72.0986 116.712L161.175 106.296C161.312 102.668 163.56 95.1289 171.459 93.9953C168.772 93.3353 169.526 90.0791 170.239 88.5335C167.552 87.8735 168.306 84.6173 169.019 83.0716C166.332 82.4116 167.087 79.1554 167.8 77.6098C165.113 76.9498 165.867 73.6936 166.58 72.148C163.893 71.488 164.647 68.2317 165.361 66.6861C162.673 66.0261 163.428 62.7699 164.141 61.2243C156.874 61.7445 153.75 56.4979 152.844 53.2875L64.5528 63.1961Z" fill="url(#paint6_linear_21_2)"/>
<path d="M64.5528 63.1961C64.4363 71.4911 58.5242 74.0008 55.5828 74.2188C56.6905 75.3578 58.4329 78.096 56.5403 79.9362C57.6481 81.0753 59.3889 83.8134 57.4963 85.6536C58.6041 86.7927 60.3465 89.5309 58.4539 91.371C59.5616 92.5101 61.3033 95.2483 59.4107 97.0884C60.5184 98.2275 62.2608 100.966 60.3682 102.806C61.476 103.945 63.2183 106.683 61.3257 108.523C64.5271 108.223 71.1637 109.439 72.0986 116.712L161.175 106.296C161.312 102.668 163.56 95.1289 171.459 93.9953C168.772 93.3353 169.526 90.0791 170.239 88.5335C167.552 87.8735 168.306 84.6173 169.019 83.0716C166.332 82.4116 167.087 79.1554 167.8 77.6098C165.113 76.9498 165.867 73.6936 166.58 72.148C163.893 71.488 164.647 68.2317 165.361 66.6861C162.673 66.0261 163.428 62.7699 164.141 61.2243C156.874 61.7445 153.75 56.4979 152.844 53.2875L64.5528 63.1961Z" fill="url(#paint7_radial_21_2)"/>
<path d="M136.274 55.2682L152.843 53.2868C153.749 56.4972 156.873 61.7438 164.14 61.2236C163.426 62.7692 162.672 66.0254 165.359 66.6854C164.646 68.2311 163.892 71.4873 166.579 72.1473C165.866 73.6929 165.111 76.9491 167.798 77.6091C167.085 79.1547 166.331 82.411 169.018 83.071C168.59 83.9996 168.146 85.5458 168.443 86.7754L170.238 88.5328C169.165 88.2694 168.641 87.5923 168.443 86.7754L136.274 55.2682Z" fill="black" fill-opacity="0.1"/>
<path d="M56.5409 79.9363C58.4335 78.0962 56.6912 75.358 55.5834 74.2189C56.8108 74.4113 59.985 73.8303 62.8623 69.9669L117.997 111.129L72.0992 116.712C71.1643 109.439 64.5278 108.223 61.3264 108.523C63.219 106.683 61.4766 103.945 60.3688 102.806C62.2614 100.966 60.519 98.2277 59.4113 97.0886C61.3039 95.2484 59.5623 92.5102 58.4545 91.3712C60.3471 89.531 58.6047 86.7928 57.497 85.6537C59.3896 83.8136 57.6487 81.0754 56.5409 79.9363Z" fill="url(#paint8_linear_21_2)" fill-opacity="0.7"/>
<path d="M93.0148 76.6356L93.1069 77.5469C93.1386 77.8605 93.105 78.0825 93.0062 78.2129C92.9238 78.3216 92.735 78.3931 92.4397 78.4274L89.1179 78.8127L90.9455 96.8923C90.9772 97.2059 90.9436 97.4279 90.8448 97.5584C90.7624 97.667 90.5736 97.7385 90.2783 97.7728L88.8112 97.9429L86.9034 79.0695L82.8895 79.5351L82.7974 78.6237C82.7657 78.3102 82.791 78.099 82.8734 77.9904C82.9722 77.8599 83.1693 77.7776 83.4645 77.7433L93.0148 76.6356ZM97.8833 76.0709L99.8833 95.8556C99.915 96.1692 99.8814 96.3912 99.7826 96.5217C99.7002 96.6303 99.5114 96.7018 99.2161 96.7361L97.749 96.9062L95.749 77.1215C95.7173 76.8079 95.7426 76.5968 95.825 76.4881C95.9239 76.3576 96.1209 76.2753 96.4162 76.241L97.8833 76.0709ZM106.514 95.8896C105.554 96.0009 104.851 95.8743 104.403 95.5098C103.972 95.1236 103.705 94.4209 103.602 93.4018L102.086 78.4089C101.983 77.3898 102.105 76.6519 102.451 76.1954C102.813 75.7172 103.474 75.4224 104.434 75.3111L108.005 74.8969C108.54 74.8348 108.933 74.9379 109.184 75.2062C109.452 75.4528 109.67 75.8538 109.838 76.4093L105.492 76.9134C104.92 76.9797 104.573 77.1489 104.451 77.4208C104.329 77.6927 104.299 78.1324 104.36 78.74L105.757 92.557C105.818 93.1645 105.936 93.5871 106.109 93.8248C106.283 94.0625 106.655 94.1481 107.227 94.0817L111.573 93.5777L111.666 94.489C111.697 94.8026 111.673 95.0235 111.593 95.1518C111.529 95.2583 111.349 95.3288 111.054 95.363L106.514 95.8896ZM114.86 74.1017L116.86 93.8865C116.892 94.2001 116.858 94.4221 116.759 94.5525C116.677 94.6612 116.488 94.7327 116.193 94.7669L114.726 94.9371L112.726 75.1523C112.694 74.8387 112.719 74.6276 112.802 74.5189C112.901 74.3885 113.098 74.3061 113.393 74.2719L114.86 74.1017ZM124.968 93.7491L123.584 93.9096C123.289 93.9439 123.006 93.9172 122.736 93.8296C122.463 93.7223 122.249 93.539 122.092 93.2796L117.073 84.9093L116.862 82.822L119.951 74.3143C120.052 74.0249 120.226 73.8065 120.473 73.6589C120.717 73.4917 120.987 73.391 121.282 73.3568L122.445 73.2219L118.612 83.5113L124.968 93.7491ZM128.599 83.3939L129.419 91.5077L134.707 90.8944L134.799 91.8058C134.83 92.1193 134.797 92.3413 134.698 92.4717C134.616 92.5805 134.427 92.6519 134.132 92.6862L127.377 93.4696L125.377 73.6848C125.346 73.3713 125.371 73.1601 125.453 73.0514C125.552 72.921 125.749 72.8387 126.044 72.8044L132.799 72.021L132.891 72.9323C132.923 73.2459 132.898 73.4668 132.818 73.5951C132.754 73.7017 132.574 73.7721 132.279 73.8063L127.684 74.3393L128.427 81.6888L132.884 81.1718L132.976 82.0831C133.007 82.3967 132.983 82.6177 132.903 82.746C132.839 82.8525 132.659 82.9229 132.364 82.9572L128.599 83.3939ZM145.081 70.5964L145.172 71.5077C145.204 71.8213 145.171 72.0433 145.072 72.1737C144.989 72.2824 144.801 72.3539 144.505 72.3882L141.183 72.7735L143.011 90.8532C143.043 91.1667 143.009 91.3887 142.91 91.5192C142.828 91.6278 142.639 91.6993 142.344 91.7336L140.877 91.9038L138.969 73.0303L134.955 73.4959L134.863 72.5846C134.831 72.271 134.857 72.0599 134.939 71.9512C135.038 71.8207 135.235 71.7384 135.53 71.7041L145.081 70.5964Z" fill="#D2FDFD"/>
</g>
<defs>
<filter id="filter0_d_21_2" x="0.262451" y="0.264221" width="206.196" height="151.945" filterUnits="userSpaceOnUse" color-interpolation-filters="sRGB">
<feFlood flood-opacity="0" result="BackgroundImageFix"/>
<feColorMatrix in="SourceAlpha" type="matrix" values="0 0 0 0 0 0 0 0 0 0 0 0 0 0 0 0 0 0 127 0" result="hardAlpha"/>
<feOffset/>
<feGaussianBlur stdDeviation="17.5"/>
<feComposite in2="hardAlpha" operator="out"/>
<feColorMatrix type="matrix" values="0 0 0 0 0.811765 0 0 0 0 0.572549 0 0 0 0 0.803922 0 0 0 0.8 0"/>
<feBlend mode="normal" in2="BackgroundImageFix" result="effect1_dropShadow_21_2"/>
<feBlend mode="normal" in="SourceGraphic" in2="effect1_dropShadow_21_2" result="shape"/>
</filter>
<linearGradient id="paint0_linear_21_2" x1="56.6849" y1="121.14" x2="106.272" y2="22.46" gradientUnits="userSpaceOnUse">
<stop stop-color="#6A1D8C"/>
<stop offset="1" stop-color="#61F6FF"/>
</linearGradient>
<linearGradient id="paint1_linear_21_2" x1="42.597" y1="110.574" x2="51.3842" y2="106.143" gradientUnits="userSpaceOnUse">
<stop stop-color="white"/>
<stop offset="1" stop-color="white" stop-opacity="0"/>
</linearGradient>
<radialGradient id="paint2_radial_21_2" cx="0" cy="0" r="1" gradientUnits="userSpaceOnUse" gradientTransform="translate(55.0686 114.559) rotate(-68.9625) scale(5.59125 10.0598)">
<stop stop-color="white"/>
<stop offset="1" stop-color="white" stop-opacity="0"/>
</radialGradient>
<linearGradient id="paint3_linear_21_2" x1="83.7133" y1="112.031" x2="82.0794" y2="107.481" gradientUnits="userSpaceOnUse">
<stop stop-color="white"/>
<stop offset="1" stop-color="white" stop-opacity="0"/>
</linearGradient>
<linearGradient id="paint4_linear_21_2" x1="76.1724" y1="118.421" x2="141.428" y2="30.9602" gradientUnits="userSpaceOnUse">
<stop stop-color="#6A1D8C"/>
<stop offset="1" stop-color="#61F6FF"/>
</linearGradient>
<linearGradient id="paint5_linear_21_2" x1="54.9519" y1="105.319" x2="64.5794" y2="103.28" gradientUnits="userSpaceOnUse">
<stop stop-color="white"/>
<stop offset="1" stop-color="white" stop-opacity="0"/>
</linearGradient>
<linearGradient id="paint6_linear_21_2" x1="94.3321" y1="117.23" x2="93.9145" y2="112.414" gradientUnits="userSpaceOnUse">
<stop stop-color="white"/>
<stop offset="1" stop-color="white" stop-opacity="0"/>
</linearGradient>
<radialGradient id="paint7_radial_21_2" cx="0" cy="0" r="1" gradientUnits="userSpaceOnUse" gradientTransform="translate(66.8152 112.552) rotate(-45) scale(4.54164 8.17131)">
<stop stop-color="white"/>
<stop offset="1" stop-color="white" stop-opacity="0"/>
</radialGradient>
<linearGradient id="paint8_linear_21_2" x1="45.0449" y1="143.489" x2="93.8029" y2="79.0957" gradientUnits="userSpaceOnUse">
<stop stop-color="white"/>
<stop offset="1" stop-color="white" stop-opacity="0"/>
</linearGradient>
</defs>
</svg>
