<svg width="38" height="38" viewBox="0 0 38 38" fill="none" xmlns="http://www.w3.org/2000/svg">
<path d="M8.57568 36.6006H28.1792" stroke="white" stroke-linecap="round" stroke-linejoin="round"/>
<path d="M14.6271 36.6005C15.2521 35.7482 16.2124 33.4469 14.7123 31.4014" stroke="white" stroke-linecap="round" stroke-linejoin="round"/>
<path d="M21.6162 36.6005C20.8775 35.805 19.8434 33.6515 21.6162 31.4014" stroke="white" stroke-linecap="round" stroke-linejoin="round"/>
<rect x="0.5" y="3.88672" width="36.1614" height="27.4676" rx="3.5" stroke="white" stroke-linecap="round" stroke-linejoin="round"/>
<path d="M21.6489 16.9658H29.5755" stroke="white" stroke-linecap="round" stroke-linejoin="round"/>
<path d="M21.6492 1.28313C19.5355 0.192152 18.3252 2.47638 17.3024 4.3515L21.4893 6.82324L21.7345 6.39708C22.9277 4.3515 23.763 2.3741 21.6492 1.28313Z" fill="#FFD25E"/>
<path d="M29.5759 21.8242H10.3986M10.3986 21.8242V16.4545M10.3986 21.8242L14.575 18.841M10.3986 16.4545L14.575 18.841M10.3986 16.4545L17.3024 4.3515M14.575 18.841L21.4893 6.82324M17.3024 4.3515C18.3252 2.47638 19.5355 0.192152 21.6492 1.28313C23.763 2.3741 22.9277 4.3515 21.7345 6.39708L21.4893 6.82324M17.3024 4.3515L21.4893 6.82324" stroke="white" stroke-linecap="round" stroke-linejoin="round"/>
</svg>
