<svg width="32" height="40" viewBox="0 0 32 40" fill="none" xmlns="http://www.w3.org/2000/svg">
<circle cx="16.7227" cy="10.8953" r="2.46851" stroke="#FFD25E" stroke-linecap="round" stroke-linejoin="round"/>
<mask id="path-2-inside-1_106_238" fill="white">
<path d="M21.6701 22.2748C21.6701 20.3065 21.1488 18.4189 20.221 17.0272C19.2931 15.6354 18.0347 14.8535 16.7225 14.8535C15.4104 14.8535 14.152 15.6354 13.2241 17.0272C12.2963 18.4189 11.775 20.3065 11.775 22.2748L16.7225 22.2748H21.6701Z"/>
</mask>
<path d="M21.6701 22.2748C21.6701 20.3065 21.1488 18.4189 20.221 17.0272C19.2931 15.6354 18.0347 14.8535 16.7225 14.8535C15.4104 14.8535 14.152 15.6354 13.2241 17.0272C12.2963 18.4189 11.775 20.3065 11.775 22.2748L16.7225 22.2748H21.6701Z" stroke="#FFD25E" stroke-width="2" stroke-linecap="round" stroke-linejoin="round" mask="url(#path-2-inside-1_106_238)"/>
<path d="M29.5856 9.1634L16.7221 1L3.85852 9.1634V22.5217L16.7221 30.6851L29.5856 22.5217V9.1634Z" stroke="white"/>
<path d="M22.8087 36.5873V37.5541V38.3061C23.0537 38.4135 24.6459 41.6359 31.0149 37.4467C24.6459 33.2574 23.0537 36.4799 22.8087 36.5873Z" fill="#FFD25E"/>
<path d="M20.4816 36.5874C20.8491 36.1577 20.8491 36.2651 21.2165 36.2651M20.4816 36.5874V38.3061M20.4816 36.5874C19.4301 36.4337 17.857 36.3152 16.0723 36.2293M21.2165 36.2651C21.5104 36.2651 21.9922 36.2651 22.1963 36.2651M21.2165 36.2651H22.1963M22.1963 36.2651C22.3596 36.2651 22.7107 36.3295 22.8087 36.5873M22.8087 36.5873C22.8087 37.0169 22.8087 37.3393 22.8087 37.5541M22.8087 36.5873C23.0537 36.4799 24.6459 33.2574 31.0149 37.4467C24.6459 41.6359 23.0537 38.4135 22.8087 38.3061M22.8087 36.5873V37.5541M22.8087 37.5541V38.3061M20.4816 38.3061C20.8491 38.7357 20.8491 38.6283 21.2165 38.6283H22.1963C22.3596 38.6283 22.7107 38.5639 22.8087 38.3061M20.4816 38.3061C19.4301 38.4598 17.857 38.5783 16.0723 38.6641M16.0723 36.2293C11.6207 36.0152 5.85255 36.0044 3.57938 36.1577C1.0073 36.3726 0.966475 36.9812 1.0073 37.4467C0.966475 37.9122 1.0073 38.5209 3.57938 38.7357C5.85255 38.8891 11.6207 38.8782 16.0723 38.6641M16.0723 36.2293V38.6641" stroke="white" stroke-width="0.7" stroke-linejoin="round"/>
</svg>
