<svg width="22" height="22" viewBox="0 0 22 22" fill="none" xmlns="http://www.w3.org/2000/svg">
<g filter="url(#filter0_d_770_2220)">
<path fill-rule="evenodd" clip-rule="evenodd" d="M9.05859 7.9375C8.43943 7.9375 7.9375 8.43943 7.9375 9.05859V15.1289C7.9375 15.7481 8.43943 16.25 9.05859 16.25H15.1289C15.7481 16.25 16.25 15.7481 16.25 15.1289V9.05859C16.25 8.43943 15.7481 7.9375 15.1289 7.9375H9.05859ZM7.0625 9.05859C7.0625 7.95618 7.95618 7.0625 9.05859 7.0625H15.1289C16.2313 7.0625 17.125 7.95618 17.125 9.05859V15.1289C17.125 16.2313 16.2313 17.125 15.1289 17.125H9.05859C7.95618 17.125 7.0625 16.2313 7.0625 15.1289V9.05859Z" fill="#B1DFF7"/>
<path fill-rule="evenodd" clip-rule="evenodd" d="M7.06121 4.875L7.0625 4.875H12.9688L12.97 4.875C13.4914 4.87649 13.9909 5.08425 14.3596 5.45291C14.7282 5.82157 14.936 6.32115 14.9375 6.84251C14.9375 6.84596 14.9375 6.84941 14.9374 6.85286L14.9237 7.50911C14.9187 7.75068 14.7188 7.94244 14.4772 7.93741C14.2356 7.93237 14.0439 7.73246 14.0489 7.49089L14.0625 6.84026C14.0604 6.55181 13.9449 6.27568 13.7409 6.07163C13.5358 5.86659 13.258 5.75098 12.9681 5.75H7.06319C6.71529 5.75119 6.38196 5.88992 6.13594 6.13594C5.88992 6.38196 5.75119 6.71529 5.75 7.06319V12.9681C5.75098 13.258 5.86659 13.5358 6.07163 13.7409C6.27667 13.9459 6.55449 14.0615 6.84445 14.0625H7.5C7.74162 14.0625 7.9375 14.2584 7.9375 14.5C7.9375 14.7416 7.74162 14.9375 7.5 14.9375H6.84375L6.84251 14.9375C6.32115 14.936 5.82157 14.7282 5.45291 14.3596C5.08425 13.9909 4.87649 13.4914 4.875 12.97L4.875 12.9688V7.0625L4.875 7.06121C4.87671 6.48192 5.1076 5.92684 5.51722 5.51722C5.92684 5.1076 6.48192 4.87671 7.06121 4.875Z" fill="#B1DFF7"/>
</g>
<defs>
<filter id="filter0_d_770_2220" x="0" y="0" width="22" height="22" filterUnits="userSpaceOnUse" color-interpolation-filters="sRGB">
<feFlood flood-opacity="0" result="BackgroundImageFix"/>
<feColorMatrix in="SourceAlpha" type="matrix" values="0 0 0 0 0 0 0 0 0 0 0 0 0 0 0 0 0 0 127 0" result="hardAlpha"/>
<feOffset/>
<feGaussianBlur stdDeviation="2"/>
<feComposite in2="hardAlpha" operator="out"/>
<feColorMatrix type="matrix" values="0 0 0 0 1 0 0 0 0 1 0 0 0 0 1 0 0 0 0.5 0"/>
<feBlend mode="normal" in2="BackgroundImageFix" result="effect1_dropShadow_770_2220"/>
<feBlend mode="normal" in="SourceGraphic" in2="effect1_dropShadow_770_2220" result="shape"/>
</filter>
</defs>
</svg>
