<svg width="24" height="24" viewBox="0 0 24 24" fill="none" xmlns="http://www.w3.org/2000/svg">
<path d="M22.4139 11.6872C20.1672 7.53384 16.2272 5.02051 11.8672 5.02051C7.50722 5.02051 3.56055 7.53384 1.33388 11.6872L1.14722 12.0005L1.32055 12.3205C3.56722 16.4738 7.50722 18.9872 11.8672 18.9872C16.2272 18.9872 20.1739 16.5072 22.4139 12.3205L22.5872 12.0005L22.4139 11.6872ZM11.8672 17.6205C8.11388 17.6205 4.66722 15.5272 2.66722 12.0005C4.66722 8.47384 8.11388 6.38051 11.8672 6.38051C15.6206 6.38051 19.0272 8.48051 21.0606 12.0005C19.0272 15.5272 15.6139 17.6205 11.8672 17.6205Z" fill="#6E757C"/>
<path d="M12.0597 7.44641C11.1558 7.45301 10.2741 7.72733 9.52601 8.23473C8.77791 8.74213 8.19695 9.45985 7.85651 10.2972C7.51607 11.1346 7.43143 12.0541 7.61326 12.9396C7.7951 13.8251 8.23526 14.6368 8.87816 15.2722C9.52106 15.9077 10.3378 16.3384 11.2254 16.5099C12.1129 16.6814 13.0313 16.586 13.8647 16.2359C14.6981 15.8857 15.409 15.2964 15.9076 14.5425C16.4063 13.7885 16.6703 12.9037 16.6664 11.9997C16.6638 11.398 16.5425 10.8028 16.3094 10.248C16.0763 9.69329 15.736 9.19001 15.3081 8.76701C14.8801 8.34402 14.3729 8.00964 13.8155 7.78302C13.2581 7.55641 12.6614 7.44202 12.0597 7.44641ZM12.0597 15.2597C11.4212 15.2532 10.7989 15.0581 10.2709 14.699C9.74297 14.3398 9.33287 13.8327 9.09216 13.2413C8.85145 12.6499 8.79087 12.0005 8.91801 11.3748C9.04515 10.749 9.35435 10.1748 9.80678 9.72422C10.2592 9.27363 10.8347 8.96678 11.461 8.84219C12.0872 8.7176 12.7363 8.78084 13.3268 9.02396C13.9172 9.26708 14.4226 9.67924 14.7796 10.2087C15.1365 10.7381 15.3291 11.3612 15.3331 11.9997C15.3348 12.4295 15.2513 12.8553 15.0873 13.2525C14.9232 13.6497 14.682 14.0104 14.3775 14.3136C14.073 14.6169 13.7113 14.8566 13.3135 15.0191C12.9156 15.1815 12.4895 15.2633 12.0597 15.2597Z" fill="#6E757C"/>
</svg>
