<svg width="217" height="157" viewBox="0 0 217 157" fill="none" xmlns="http://www.w3.org/2000/svg">
<g filter="url(#filter0_d_1260_1087)">
<path d="M157.647 31.2803L73.6831 48.6165L102.922 57.802L180.805 39.3015L157.647 31.2803Z" fill="url(#paint0_linear_1260_1087)"/>
<path d="M80.2812 100.754C83.2137 99.288 90.1654 96.6143 94.5124 97.6492C99.8168 98.9121 92.0543 101.401 87.9143 102.565V108.626C89.6891 108.316 91.4027 108.314 92.7012 108.905C96.1167 110.457 90.9331 113.088 87.9143 114.209V108.626C85.021 109.131 81.9652 110.454 80.2812 111.363V100.754Z" fill="url(#paint1_linear_1260_1087)"/>
<path d="M73.4243 71.5155V48.6162L102.922 57.8018V81.348L73.4243 71.5155Z" fill="url(#paint2_linear_1260_1087)"/>
<path d="M102.922 81.3479L85.8442 75.6554L102.922 57.8018V81.3479Z" fill="url(#paint3_linear_1260_1087)"/>
<path d="M102.922 81.3479L85.8442 75.6554L102.922 57.8018V81.3479Z" fill="url(#paint4_linear_1260_1087)"/>
<path d="M73.4243 66.7286V48.6162L84.2918 52.0004L73.4243 66.7286Z" fill="black" fill-opacity="0.1"/>
<path d="M87.9141 114.209L98.9109 117.832V106.059L87.9141 102.565V114.209Z" fill="url(#paint5_linear_1260_1087)"/>
<path d="M87.9141 114.209L98.9109 117.832V106.059L87.9141 102.565V114.209Z" fill="url(#paint6_linear_1260_1087)"/>
<path d="M90.3721 115.048L98.9108 117.832V107.353L90.3721 115.048Z" fill="url(#paint7_linear_1260_1087)"/>
<path d="M87.9141 102.565V107.611L91.9247 103.841L87.9141 102.565Z" fill="black" fill-opacity="0.1"/>
<path d="M70.4487 107.993L80.2812 111.363V100.754L70.4487 97.6494V107.993Z" fill="url(#paint8_linear_1260_1087)"/>
<path d="M70.4487 97.6494V102.178L74.33 98.8751L70.4487 97.6494Z" fill="url(#paint9_linear_1260_1087)" fill-opacity="0.2"/>
<path d="M74.3301 109.323L80.2813 111.363V103.859L74.3301 109.323Z" fill="url(#paint10_linear_1260_1087)"/>
<path d="M73.4243 71.5156C74.0294 71.7005 74.7235 71.9251 75.4709 72.1978L102.922 81.3481C105.725 80.3131 113.53 81.2187 114.824 89.1106C115.859 100.107 105.035 104.118 98.9111 106.059L87.9143 102.566C92.2699 101.401 99.6615 98.7878 94.383 97.6493C91.071 96.8213 83.6018 99.3743 80.2812 100.754L70.4487 97.6493C75.71 96.2693 86.3618 92.1379 86.8793 86.6524C87.8699 78.0073 80.4765 74.0242 75.4709 72.1978L73.4243 71.5156Z" fill="url(#paint11_linear_1260_1087)"/>
<path d="M73.4243 71.5156C74.0294 71.7005 74.7235 71.9251 75.4709 72.1978L102.922 81.3481C105.725 80.3131 113.53 80.7012 114.824 89.3693C115.989 99.3312 105.035 104.118 98.9111 106.059L87.9143 102.566C92.2699 101.401 99.6615 98.7878 94.383 97.6493C91.071 96.8213 83.6018 99.3743 80.2812 100.754L70.4487 97.6493C75.71 96.2693 86.3618 92.1379 86.8793 86.6524C87.8699 78.0073 80.4765 74.0242 75.4709 72.1978L73.4243 71.5156Z" fill="url(#paint12_radial_1260_1087)"/>
<path d="M73.4243 71.5156C74.0294 71.7005 74.7235 71.9251 75.4709 72.1978L102.922 81.3481C105.725 80.3131 113.789 80.96 115.083 88.8518C116.247 98.8137 105.035 104.118 98.9111 106.059L87.9143 102.566C92.2699 101.401 99.6615 98.7878 94.383 97.6493C91.071 96.8213 83.6018 99.3743 80.2812 100.754L70.4487 97.6493C75.71 96.2693 86.3618 92.1379 86.8793 86.6524C87.8699 78.0073 80.4765 74.0242 75.4709 72.1978L73.4243 71.5156Z" fill="url(#paint13_linear_1260_1087)"/>
<path d="M80.2812 100.754L70.4487 97.6494C73.0376 96.9704 76.9316 95.6252 80.2812 93.7803L111.46 99.0195C107.968 102.717 102.575 104.898 98.9111 106.059L87.9143 102.566C92.2699 101.401 99.6615 98.7879 94.383 97.6494C91.071 96.8214 83.6018 99.3744 80.2812 100.754Z" fill="url(#paint14_linear_1260_1087)"/>
<path d="M73.4243 71.5156C74.8761 71.7807 76.7285 72.3363 78.594 73.2388L102.922 81.3481C105.725 80.3131 113.013 80.8306 114.565 88.5931L86.8793 86.6524C87.6845 79.6251 83.101 75.4194 78.594 73.2388L73.4243 71.5156Z" fill="black" fill-opacity="0.1"/>
<path d="M153.636 77.8555L173.56 83.8067C167.695 84.7986 153.766 85.1004 153.636 77.8555Z" fill="url(#paint15_linear_1260_1087)"/>
<path d="M181.064 39.3018L102.922 57.6729V81.3485C106.285 80.1841 113.44 81.4779 114.436 89.6285C115.575 98.9434 104.56 104.463 98.9111 106.059V117.832L173.69 94.5447V83.8066C168.342 84.4966 157.026 84.7898 154.542 80.4429C147.09 65.9529 169.118 53.7917 181.064 49.5223V39.3018Z" fill="url(#paint16_linear_1260_1087)"/>
<path d="M181.064 39.3018L102.922 57.6729V81.3485C106.285 80.1841 113.44 81.4779 114.436 89.6285C115.575 98.9434 104.56 104.463 98.9111 106.059V117.832L173.69 94.5447V83.8066C168.342 84.4966 157.026 84.7898 154.542 80.4429C147.09 65.9529 169.118 53.7917 181.064 49.5223V39.3018Z" fill="url(#paint17_radial_1260_1087)"/>
<path d="M98.9111 106.059V117.832L140.052 105.02L102.922 57.6729V81.3484C106.285 80.184 113.44 81.4778 114.436 89.6284C115.575 98.9433 104.56 104.463 98.9111 106.059Z" fill="url(#paint18_linear_1260_1087)"/>
<path d="M181.064 49.5223V39.3018L141.993 48.4873L157.891 63.7535C163.894 57.0906 174.162 51.9891 181.064 49.5223Z" fill="black" fill-opacity="0.1"/>
<path d="M181.064 39.3018L102.922 57.6729V81.3485C106.286 80.1841 113.44 81.4779 114.436 89.6284L154.542 80.4429C147.09 65.9529 169.118 53.7917 181.064 49.5223V39.3018Z" fill="url(#paint19_linear_1260_1087)"/>
<path d="M173.69 83.8061C168.342 84.4961 157.026 84.7894 154.542 80.4424L114.436 89.628C115.575 98.9429 104.56 104.463 98.9111 106.059V117.832L173.69 94.5442V83.8061Z" fill="url(#paint20_linear_1260_1087)"/>
<path d="M158.423 99.2984L117.8 54.1747L131 51.0713L166.057 96.9213L158.423 99.2984Z" fill="black" fill-opacity="0.1"/>
<path d="M35.7153 64.2711C42.3393 59.9241 66.2477 54.4386 77.3739 52.2393L99.3676 59.4842C75.3902 62.8911 29.0914 68.6181 35.7153 64.2711Z" fill="url(#paint21_linear_1260_1087)"/>
<path d="M98.8556 76.1737C45.1393 81.3487 33.9527 70.9987 35.074 65.1769L99.373 59.4844L98.8556 76.1737Z" fill="url(#paint22_linear_1260_1087)"/>
<path d="M76.9912 61.4659L99.373 59.4844L98.8877 75.1387L76.9912 61.4659Z" fill="black" fill-opacity="0.1"/>
<path d="M35.074 65.1773L43.8714 64.3984L70.5225 77.568C41.0086 77.229 34.1866 69.785 35.074 65.1773Z" fill="url(#paint23_linear_1260_1087)"/>
</g>
<g filter="url(#filter1_d_1260_1087)">
<path d="M106.156 23.0014C98.3935 22.8979 95.3316 28.6507 94.771 31.5401C98.1865 35.3696 132.074 76.6918 148.591 96.8743L156.224 92.3461C146.952 79.3656 123.958 47.3238 106.156 23.0014Z" fill="url(#paint24_linear_1260_1087)"/>
<path d="M106.156 23.0014C98.3935 22.8979 95.3316 28.6507 94.771 31.5401C98.1865 35.3696 132.074 76.6918 148.591 96.8743L156.224 92.3461C146.952 79.3656 123.958 47.3238 106.156 23.0014Z" fill="url(#paint25_linear_1260_1087)"/>
<path d="M173.56 87.8181C168.075 86.5761 146.003 86.0931 135.653 86.0068C139.172 88.6978 146.435 99.4618 149.626 104.507C161.571 104.809 185.566 105.025 185.98 103.472C186.498 101.532 176.794 88.8531 173.56 87.8181Z" fill="url(#paint26_linear_1260_1087)"/>
<path d="M173.56 87.8181C168.075 86.5761 146.003 86.0931 135.653 86.0068C139.172 88.6978 146.435 99.4618 149.626 104.507C161.571 104.809 185.566 105.025 185.98 103.472C186.498 101.532 176.794 88.8531 173.56 87.8181Z" fill="url(#paint27_radial_1260_1087)"/>
<path d="M124.915 102.955C126.054 99.0219 132.548 90.0174 135.653 86.0068C138.655 87.6628 146.779 99.203 149.626 104.507C147.452 108.751 139.405 117.833 135.265 120.162C131.341 116.065 125.303 107.095 124.915 102.955Z" fill="url(#paint28_linear_1260_1087)"/>
<path d="M135.653 86.0068C136.516 86.4827 137.801 87.7745 139.263 89.4999L125.693 101.014C127.82 96.579 132.986 89.4513 135.653 86.0068Z" fill="black" fill-opacity="0.1"/>
<path d="M149.626 104.508C147.452 108.751 139.405 117.833 135.265 120.162C133.594 118.417 131.54 115.789 129.702 113.027L148.748 102.955C149.078 103.514 149.373 104.036 149.626 104.508Z" fill="url(#paint29_linear_1260_1087)"/>
<path d="M149.626 104.507C144.037 112.373 137.723 118.221 135.265 120.161C136.947 120.679 171.619 119.256 174.207 117.057C176.277 115.297 182.918 107.353 185.98 103.602C170.196 105.025 166.574 104.507 149.626 104.507Z" fill="url(#paint30_linear_1260_1087)"/>
<path d="M149.626 104.507C144.037 112.373 137.723 118.221 135.265 120.161C136.815 120.638 166.399 119.466 173.042 117.557L154.93 104.523C153.309 104.514 151.554 104.507 149.626 104.507Z" fill="url(#paint31_linear_1260_1087)"/>
</g>
<defs>
<filter id="filter0_d_1260_1087" x="0" y="0.280273" width="216.064" height="156.552" filterUnits="userSpaceOnUse" color-interpolation-filters="sRGB">
<feFlood flood-opacity="0" result="BackgroundImageFix"/>
<feColorMatrix in="SourceAlpha" type="matrix" values="0 0 0 0 0 0 0 0 0 0 0 0 0 0 0 0 0 0 127 0" result="hardAlpha"/>
<feOffset dy="4"/>
<feGaussianBlur stdDeviation="17.5"/>
<feComposite in2="hardAlpha" operator="out"/>
<feColorMatrix type="matrix" values="0 0 0 0 0.811765 0 0 0 0 0.572549 0 0 0 0 0.803922 0 0 0 0.9 0"/>
<feBlend mode="normal" in2="BackgroundImageFix" result="effect1_dropShadow_1260_1087"/>
<feBlend mode="normal" in="SourceGraphic" in2="effect1_dropShadow_1260_1087" result="shape"/>
</filter>
<filter id="filter1_d_1260_1087" x="89.771" y="18" width="101.229" height="107.268" filterUnits="userSpaceOnUse" color-interpolation-filters="sRGB">
<feFlood flood-opacity="0" result="BackgroundImageFix"/>
<feColorMatrix in="SourceAlpha" type="matrix" values="0 0 0 0 0 0 0 0 0 0 0 0 0 0 0 0 0 0 127 0" result="hardAlpha"/>
<feOffset/>
<feGaussianBlur stdDeviation="2.5"/>
<feComposite in2="hardAlpha" operator="out"/>
<feColorMatrix type="matrix" values="0 0 0 0 0.811765 0 0 0 0 0.572549 0 0 0 0 0.803922 0 0 0 0.5 0"/>
<feBlend mode="normal" in2="BackgroundImageFix" result="effect1_dropShadow_1260_1087"/>
<feBlend mode="normal" in="SourceGraphic" in2="effect1_dropShadow_1260_1087" result="shape"/>
</filter>
<linearGradient id="paint0_linear_1260_1087" x1="98.1349" y1="61.1658" x2="155.06" y2="6.18162" gradientUnits="userSpaceOnUse">
<stop stop-color="#451E56"/>
<stop offset="1" stop-color="#005685"/>
</linearGradient>
<linearGradient id="paint1_linear_1260_1087" x1="110.426" y1="114.209" x2="73.5538" y2="105.929" gradientUnits="userSpaceOnUse">
<stop stop-color="#39064F"/>
<stop offset="1" stop-color="#1F0828"/>
</linearGradient>
<linearGradient id="paint2_linear_1260_1087" x1="80.0224" y1="75.2674" x2="103.051" y2="46.4168" gradientUnits="userSpaceOnUse">
<stop stop-color="#6A1D8C"/>
<stop offset="1" stop-color="#61F6FF"/>
</linearGradient>
<linearGradient id="paint3_linear_1260_1087" x1="139.147" y1="99.331" x2="85.9736" y2="73.8442" gradientUnits="userSpaceOnUse">
<stop stop-color="white"/>
<stop offset="1" stop-color="white" stop-opacity="0"/>
</linearGradient>
<linearGradient id="paint4_linear_1260_1087" x1="108.485" y1="72.4211" x2="100.464" y2="72.2917" gradientUnits="userSpaceOnUse">
<stop stop-color="white"/>
<stop offset="1" stop-color="white" stop-opacity="0"/>
</linearGradient>
<linearGradient id="paint5_linear_1260_1087" x1="86.6203" y1="115.503" x2="107.579" y2="96.2261" gradientUnits="userSpaceOnUse">
<stop stop-color="#6A1D8C"/>
<stop offset="1" stop-color="#61F6FF"/>
</linearGradient>
<linearGradient id="paint6_linear_1260_1087" x1="99.5578" y1="112.01" x2="97.4878" y2="112.01" gradientUnits="userSpaceOnUse">
<stop stop-color="white"/>
<stop offset="1" stop-color="white" stop-opacity="0"/>
</linearGradient>
<linearGradient id="paint7_linear_1260_1087" x1="107.191" y1="123.007" x2="93.3477" y2="112.657" gradientUnits="userSpaceOnUse">
<stop stop-color="white"/>
<stop offset="1" stop-color="white" stop-opacity="0"/>
</linearGradient>
<linearGradient id="paint8_linear_1260_1087" x1="68.6375" y1="111.881" x2="88.4318" y2="90.1457" gradientUnits="userSpaceOnUse">
<stop stop-color="#6A1D8C"/>
<stop offset="1" stop-color="#61F6FF"/>
</linearGradient>
<linearGradient id="paint9_linear_1260_1087" x1="71.0956" y1="97.6494" x2="72.3893" y2="102.178" gradientUnits="userSpaceOnUse">
<stop/>
<stop offset="1" stop-opacity="0"/>
</linearGradient>
<linearGradient id="paint10_linear_1260_1087" x1="103.439" y1="105.412" x2="75.8826" y2="108.517" gradientUnits="userSpaceOnUse">
<stop stop-color="white"/>
<stop offset="1" stop-color="white" stop-opacity="0"/>
</linearGradient>
<linearGradient id="paint11_linear_1260_1087" x1="75.365" y1="101.66" x2="84.4212" y2="73.9737" gradientUnits="userSpaceOnUse">
<stop stop-color="#6A1D8C"/>
<stop offset="1" stop-color="#300C40"/>
</linearGradient>
<radialGradient id="paint12_radial_1260_1087" cx="0" cy="0" r="1" gradientUnits="userSpaceOnUse" gradientTransform="translate(97.7468 89.7574) rotate(45.7795) scale(26.8981 25.1356)">
<stop stop-color="white" stop-opacity="0"/>
<stop offset="0.453125" stop-color="white" stop-opacity="0.260417"/>
<stop offset="1" stop-color="white"/>
</radialGradient>
<linearGradient id="paint13_linear_1260_1087" x1="87.6555" y1="91.1806" x2="117.929" y2="105.929" gradientUnits="userSpaceOnUse">
<stop stop-color="#6A1D8C"/>
<stop offset="1" stop-color="#6A1D8C" stop-opacity="0"/>
</linearGradient>
<linearGradient id="paint14_linear_1260_1087" x1="61.91" y1="80.8307" x2="46.1263" y2="119.384" gradientUnits="userSpaceOnUse">
<stop stop-color="white" stop-opacity="0"/>
<stop offset="0.453125" stop-color="white" stop-opacity="0.260417"/>
<stop offset="1" stop-color="white"/>
</linearGradient>
<linearGradient id="paint15_linear_1260_1087" x1="153.766" y1="91.8279" x2="163.598" y2="75.268" gradientUnits="userSpaceOnUse">
<stop stop-color="#492B56"/>
<stop offset="1" stop-color="#34253A"/>
</linearGradient>
<linearGradient id="paint16_linear_1260_1087" x1="93.4774" y1="124.689" x2="176.406" y2="31.4099" gradientUnits="userSpaceOnUse">
<stop stop-color="#6A1D8C"/>
<stop offset="1" stop-color="#00ABB6"/>
</linearGradient>
<radialGradient id="paint17_radial_1260_1087" cx="0" cy="0" r="1" gradientUnits="userSpaceOnUse" gradientTransform="translate(101.757 90.7928) rotate(-19.552) scale(14.6901 15.0997)">
<stop stop-color="white"/>
<stop offset="1" stop-color="white" stop-opacity="0"/>
</radialGradient>
<linearGradient id="paint18_linear_1260_1087" x1="89.4668" y1="128.053" x2="132.937" y2="99.4608" gradientUnits="userSpaceOnUse">
<stop stop-color="white"/>
<stop offset="1" stop-color="white" stop-opacity="0"/>
</linearGradient>
<linearGradient id="paint19_linear_1260_1087" x1="100.593" y1="70.6104" x2="104.474" y2="70.6104" gradientUnits="userSpaceOnUse">
<stop stop-color="white"/>
<stop offset="1" stop-color="white" stop-opacity="0"/>
</linearGradient>
<linearGradient id="paint20_linear_1260_1087" x1="97.2293" y1="112.657" x2="100.205" y2="112.398" gradientUnits="userSpaceOnUse">
<stop stop-color="white"/>
<stop offset="1" stop-color="white" stop-opacity="0"/>
</linearGradient>
<linearGradient id="paint21_linear_1260_1087" x1="37.92" y1="70.2223" x2="86.5648" y2="38.2668" gradientUnits="userSpaceOnUse">
<stop stop-color="#3B1E48"/>
<stop offset="1" stop-color="#00649B"/>
</linearGradient>
<linearGradient id="paint22_linear_1260_1087" x1="43.742" y1="80.8312" x2="94.4568" y2="15.3677" gradientUnits="userSpaceOnUse">
<stop stop-color="#5E0087"/>
<stop offset="1" stop-color="#61F6FF"/>
</linearGradient>
<linearGradient id="paint23_linear_1260_1087" x1="22.3952" y1="85.4891" x2="44.1301" y2="59.4849" gradientUnits="userSpaceOnUse">
<stop stop-color="white"/>
<stop offset="1" stop-color="white" stop-opacity="0"/>
</linearGradient>
<linearGradient id="paint24_linear_1260_1087" x1="117.023" y1="59.8731" x2="131.772" y2="43.7013" gradientUnits="userSpaceOnUse">
<stop stop-color="#78539E"/>
<stop offset="1" stop-color="#105B98"/>
</linearGradient>
<linearGradient id="paint25_linear_1260_1087" x1="118.705" y1="54.0513" x2="121.94" y2="51.4638" gradientUnits="userSpaceOnUse">
<stop stop-color="white" stop-opacity="0"/>
<stop offset="0.46875" stop-color="white" stop-opacity="0.3"/>
<stop offset="1" stop-color="white" stop-opacity="0"/>
</linearGradient>
<linearGradient id="paint26_linear_1260_1087" x1="146.521" y1="119.515" x2="182.746" y2="76.3037" gradientUnits="userSpaceOnUse">
<stop stop-color="#3B1E48"/>
<stop offset="1" stop-color="#002133"/>
</linearGradient>
<radialGradient id="paint27_radial_1260_1087" cx="0" cy="0" r="1" gradientUnits="userSpaceOnUse" gradientTransform="translate(139.5 99.5001) rotate(-34.6952) scale(7.90569 21.2676)">
<stop stop-color="white"/>
<stop offset="1" stop-color="white" stop-opacity="0"/>
</radialGradient>
<linearGradient id="paint28_linear_1260_1087" x1="122.586" y1="112.011" x2="148.202" y2="71.905" gradientUnits="userSpaceOnUse">
<stop stop-color="#6A1D8C"/>
<stop offset="1" stop-color="#61F6FF"/>
</linearGradient>
<linearGradient id="paint29_linear_1260_1087" x1="153.507" y1="129.736" x2="135.136" y2="108.389" gradientUnits="userSpaceOnUse">
<stop stop-color="white"/>
<stop offset="1" stop-color="white" stop-opacity="0"/>
</linearGradient>
<linearGradient id="paint30_linear_1260_1087" x1="142.381" y1="128.7" x2="195.036" y2="99.8497" gradientUnits="userSpaceOnUse">
<stop stop-color="#6A1D8C"/>
<stop offset="1" stop-color="#61F6FF"/>
</linearGradient>
<linearGradient id="paint31_linear_1260_1087" x1="118.058" y1="127.147" x2="176.277" y2="114.598" gradientUnits="userSpaceOnUse">
<stop stop-color="white"/>
<stop offset="1" stop-color="white" stop-opacity="0"/>
</linearGradient>
</defs>
</svg>
