<svg width="194" height="179" viewBox="0 0 194 179" fill="none" xmlns="http://www.w3.org/2000/svg">
<g filter="url(#filter0_d_1260_1146)">
<path d="M53.5252 31C45.241 31 35.5251 38.4658 35.5251 46.75L35.0251 110.75C34.5251 120.75 41.5251 126.5 52.2752 127H117.025C125.309 127 132.025 117.784 132.025 109.5V46C132.025 37.7158 125.309 31 117.025 31H53.5252Z" fill="url(#paint0_linear_1260_1146)"/>
<path d="M53.5252 31C45.241 31 35.5251 38.4658 35.5251 46.75L35.0251 110.75C34.5251 120.75 41.5251 126.5 52.2752 127H117.025C125.309 127 132.025 117.784 132.025 109.5V46C132.025 37.7158 125.309 31 117.025 31H53.5252Z" fill="url(#paint1_linear_1260_1146)"/>
<path d="M53.5252 31C45.241 31 35.5251 38.4658 35.5251 46.75L35.0251 110.75C34.5251 120.75 41.5251 126.5 52.2752 127H117.025C125.309 127 132.025 117.784 132.025 109.5V46C132.025 37.7158 125.309 31 117.025 31H53.5252Z" fill="url(#paint2_radial_1260_1146)"/>
<path d="M53.5252 31C45.241 31 35.5251 38.4658 35.5251 46.75L35.0251 110.75C34.5251 120.75 41.5251 126.5 52.2752 127H117.025C125.309 127 132.025 117.784 132.025 109.5V46C132.025 37.7158 125.309 31 117.025 31H53.5252Z" fill="url(#paint3_linear_1260_1146)"/>
<path fill-rule="evenodd" clip-rule="evenodd" d="M50.0249 33.5C41.7407 33.5 35.0249 40.2158 35.0249 48.5V112C35.0249 120.284 41.7407 127 50.0249 127H113.525C121.809 127 128.525 120.284 128.525 112V48.5C128.525 40.2158 121.809 33.5 113.525 33.5H50.0249ZM58.0249 41C49.7407 41 43.0249 47.7158 43.0249 56V104C43.0249 112.284 49.7407 119 58.0249 119H106.025C114.309 119 121.025 112.284 121.025 104V56C121.025 47.7158 114.309 41 106.025 41H58.0249Z" fill="url(#paint4_linear_1260_1146)"/>
<path fill-rule="evenodd" clip-rule="evenodd" d="M50.0249 33.5C41.7407 33.5 35.0249 40.2158 35.0249 48.5V112C35.0249 120.284 41.7407 127 50.0249 127H113.525C121.809 127 128.525 120.284 128.525 112V48.5C128.525 40.2158 121.809 33.5 113.525 33.5H50.0249ZM58.0249 41C49.7407 41 43.0249 47.7158 43.0249 56V104C43.0249 112.284 49.7407 119 58.0249 119H106.025C114.309 119 121.025 112.284 121.025 104V56C121.025 47.7158 114.309 41 106.025 41H58.0249Z" fill="url(#paint5_linear_1260_1146)"/>
<path fill-rule="evenodd" clip-rule="evenodd" d="M50.0249 33.5C41.7407 33.5 35.0249 40.2158 35.0249 48.5V112C35.0249 120.284 41.7407 127 50.0249 127H113.525C121.809 127 128.525 120.284 128.525 112V48.5C128.525 40.2158 121.809 33.5 113.525 33.5H50.0249ZM58.0249 41C49.7407 41 43.0249 47.7158 43.0249 56V104C43.0249 112.284 49.7407 119 58.0249 119H106.025C114.309 119 121.025 112.284 121.025 104V56C121.025 47.7158 114.309 41 106.025 41H58.0249Z" fill="url(#paint6_linear_1260_1146)"/>
<path d="M47.7753 126.832C41.46 125.882 36.434 120.995 35.2769 114.75L47.7753 126.832Z" fill="url(#paint7_radial_1260_1146)"/>
<path d="M128.275 48.5C128.275 40.2158 121.559 33.5 113.275 33.5H76.5249L88.7749 41H105.775C114.059 41 120.775 47.7158 120.775 56V64.75L128.275 70.75V48.5Z" fill="black" fill-opacity="0.15"/>
<path d="M35.0249 112C35.0249 120.284 41.7407 127 50.0249 127H89.7749L35.0249 82V112Z" fill="white" fill-opacity="0.1"/>
<path d="M43.5249 56C43.5249 47.9919 50.0168 41.5 58.0249 41.5H106.025C114.033 41.5 120.525 47.9919 120.525 56V104C120.525 112.008 114.033 118.5 106.025 118.5H58.0249C50.0168 118.5 43.5249 112.008 43.5249 104V56Z" fill="url(#paint8_linear_1260_1146)"/>
<path fill-rule="evenodd" clip-rule="evenodd" d="M106.025 41.5H58.0254C50.0173 41.5 43.5254 47.9919 43.5254 56V104C43.5254 112.008 50.0173 118.5 58.0254 118.5H106.025C114.034 118.5 120.525 112.008 120.525 104V56C120.525 47.9919 114.034 41.5 106.025 41.5ZM58.0254 41C49.7411 41 43.0254 47.7157 43.0254 56V104C43.0254 112.284 49.7411 119 58.0254 119H106.025C114.31 119 121.025 112.284 121.025 104V56C121.025 47.7157 114.31 41 106.025 41H58.0254Z" fill="url(#paint9_linear_1260_1146)"/>
<path d="M43.5249 56C43.5249 47.9919 50.0168 41.5 58.0249 41.5H106.025C114.033 41.5 120.525 47.9919 120.525 56V104C120.525 112.008 114.033 118.5 106.025 118.5H58.0249C50.0168 118.5 43.5249 112.008 43.5249 104V56Z" fill="url(#paint10_linear_1260_1146)"/>
<path d="M43.5249 56C43.5249 47.9919 50.0168 41.5 58.0249 41.5H106.025C114.033 41.5 120.525 47.9919 120.525 56V104C120.525 112.008 114.033 118.5 106.025 118.5H58.0249C50.0168 118.5 43.5249 112.008 43.5249 104V56Z" fill="url(#paint11_linear_1260_1146)"/>
<path d="M43.5249 104C43.5249 112.008 50.0168 118.5 58.0249 118.5H74.7498L43.5249 93.25V104Z" fill="white" fill-opacity="0.1"/>
<path d="M120.525 56C120.525 47.9919 114.033 41.5 106.025 41.5H89.0249L74.0249 65.75L63.7749 69.5L78.2749 82L80.2749 73.5L109.775 59.5L120.525 67.75V56Z" fill="black" fill-opacity="0.1"/>
<path d="M58.0249 118.5C50.0168 118.5 43.5249 112.008 43.5249 104L58.0249 118.5Z" fill="url(#paint12_radial_1260_1146)"/>
<path d="M79.5249 77.5C79.5249 83.0229 75.0478 87.5 69.5249 87.5C64.0021 87.5 59.5249 83.0229 59.5249 77.5C59.5249 71.9772 64.0021 67.5 69.5249 67.5C75.0478 67.5 79.5249 71.9772 79.5249 77.5Z" fill="url(#paint13_linear_1260_1146)"/>
<path d="M79.0249 77.75C79.0249 83.1348 74.6597 87.5 69.2749 87.5C63.8901 87.5 59.5249 83.1348 59.5249 77.75C59.5249 72.3652 63.8901 68 69.2749 68C74.6597 68 79.0249 72.3652 79.0249 77.75Z" fill="url(#paint14_radial_1260_1146)" fill-opacity="0.3"/>
<path d="M49.5249 55L68.576 73.4203L64.559 77.5749L45.5079 59.1546L49.5249 55Z" fill="url(#paint15_linear_1260_1146)"/>
<path d="M49.5249 55L68.576 73.4203L64.559 77.5749L45.5079 59.1546L49.5249 55Z" fill="url(#paint16_linear_1260_1146)"/>
<path d="M49.5249 55L68.576 73.4203L64.559 77.5749L45.5079 59.1546L49.5249 55Z" fill="url(#paint17_linear_1260_1146)"/>
<path d="M49.5244 55L45.5244 59.25C45.7744 58 46.7744 57 47.2744 56.5C48.2744 55.5 48.8577 55.3333 49.5244 55Z" fill="url(#paint18_linear_1260_1146)"/>
<path d="M72.542 77.5L91.5931 95.9203L87.5761 100.075L68.525 81.6546L72.542 77.5Z" fill="url(#paint19_linear_1260_1146)"/>
<path d="M72.542 77.5L91.5931 95.9203L87.5761 100.075L68.525 81.6546L72.542 77.5Z" fill="url(#paint20_linear_1260_1146)"/>
<path d="M87.5553 100.137L91.5951 95.925C91.3334 97.1726 90.324 98.1631 89.8193 98.6584C88.81 99.649 88.2251 99.8102 87.5553 100.137Z" fill="url(#paint21_linear_1260_1146)"/>
<path d="M49.5425 100.075L68.5936 81.6549L64.5766 77.5003L45.5255 95.9206L49.5425 100.075Z" fill="url(#paint22_linear_1260_1146)"/>
<path d="M49.5425 100.075L68.5936 81.6549L64.5766 77.5003L45.5255 95.9206L49.5425 100.075Z" fill="url(#paint23_linear_1260_1146)"/>
<path d="M49.5425 100.075L68.5936 81.6549L64.5766 77.5003L45.5255 95.9206L49.5425 100.075Z" fill="url(#paint24_linear_1260_1146)"/>
<path d="M49.5425 100.075L68.5936 81.6549L64.5766 77.5003L45.5255 95.9206L49.5425 100.075Z" fill="url(#paint25_linear_1260_1146)"/>
<path d="M49.5425 100.075L45.5425 95.8252C45.7925 97.0752 46.7925 98.0752 47.2925 98.5752C48.2925 99.5752 48.8758 99.7419 49.5425 100.075Z" fill="url(#paint26_linear_1260_1146)"/>
<path d="M64.3805 77.6331L68.3409 81.7291L64.8612 85.0935L56.6647 85.0935L64.3805 77.6331Z" fill="black" fill-opacity="0.1"/>
<path d="M49.5586 99.8887L45.5983 95.7927L46.3128 95.1018L55.4323 94.2095L49.5586 99.8887Z" fill="white" fill-opacity="0.1"/>
<path d="M87.5248 55L91.5649 59.19C91.3149 57.94 90.2748 57 89.7748 56.5C88.7748 55.5 88.1915 55.3333 87.5248 55Z" fill="url(#paint27_linear_1260_1146)"/>
<path d="M72.542 77.5752L91.5931 59.1549L87.5761 55.0003L68.525 73.4206L72.542 77.5752Z" fill="url(#paint28_linear_1260_1146)"/>
<path opacity="0.1" d="M72.542 77.5752L68.525 73.4206L74.6481 67.5002L83.9962 66.5002L72.542 77.5752Z" fill="black"/>
<path d="M76.5254 77.5C76.5254 81.366 73.3914 84.5 69.5254 84.5C65.6594 84.5 62.5254 81.366 62.5254 77.5C62.5254 73.634 65.6594 70.5 69.5254 70.5C73.3914 70.5 76.5254 73.634 76.5254 77.5Z" fill="url(#paint29_linear_1260_1146)"/>
<path d="M76.5254 77.5C76.5254 81.366 73.3914 84.5 69.5254 84.5C65.6594 84.5 62.5254 81.366 62.5254 77.5C62.5254 73.634 65.6594 70.5 69.5254 70.5C73.3914 70.5 76.5254 73.634 76.5254 77.5Z" fill="url(#paint30_radial_1260_1146)"/>
<path opacity="0.1" d="M76.5254 77.5C76.5254 73.634 73.3914 70.5 69.5254 70.5L70.0254 76.25L76.5254 77.5Z" fill="black"/>
<path d="M75.5254 77.5C75.5254 80.8137 72.8391 83.5 69.5254 83.5C66.2117 83.5 63.5254 80.8137 63.5254 77.5C63.5254 74.1863 66.2117 71.5 69.5254 71.5C72.8391 71.5 75.5254 74.1863 75.5254 77.5Z" fill="url(#paint31_linear_1260_1146)"/>
<path d="M75.5254 77.5C75.5254 80.8137 72.8391 83.5 69.5254 83.5C66.2117 83.5 63.5254 80.8137 63.5254 77.5C63.5254 74.1863 66.2117 71.5 69.5254 71.5C72.8391 71.5 75.5254 74.1863 75.5254 77.5Z" fill="url(#paint32_radial_1260_1146)"/>
<path d="M159 103.25C159 121.89 143.89 139 125.25 139C106.61 139 90 122.89 90 104.25C90 85.6104 106.61 69.5 125.25 69.5C143.89 69.5 159 84.6104 159 103.25Z" fill="url(#paint33_radial_1260_1146)"/>
<path d="M157 105.75C157 124.39 141.89 139.5 123.25 139.5C104.61 139.5 89.5 124.39 89.5 105.75C89.5 87.1104 104.61 72 123.25 72C141.89 72 157 87.1104 157 105.75Z" fill="url(#paint34_linear_1260_1146)"/>
<path d="M157 105.75C157 124.39 141.89 139.5 123.25 139.5C104.61 139.5 89.5 124.39 89.5 105.75C89.5 87.1104 104.61 72 123.25 72C141.89 72 157 87.1104 157 105.75Z" fill="url(#paint35_radial_1260_1146)"/>
<path d="M89.5 105.75C89.5 124.39 104.61 139.5 123.25 139.5C125.385 139.5 127.475 139.302 129.5 138.922L89.8678 100.75C89.6255 102.382 89.5 104.051 89.5 105.75Z" fill="white" fill-opacity="0.1"/>
<path d="M151.5 105.75C151.5 121.352 138.852 134 123.25 134C107.648 134 95 121.352 95 105.75C95 90.148 107.648 77.5 123.25 77.5C138.852 77.5 151.5 90.148 151.5 105.75Z" fill="url(#paint36_radial_1260_1146)"/>
<path opacity="0.1" d="M157 105.75C157 87.1104 141.89 72 123.25 72C115.954 72 109.2 74.3148 103.68 78.25L151.961 123.5C155.156 118.343 157 112.262 157 105.75Z" fill="black"/>
<path fill-rule="evenodd" clip-rule="evenodd" d="M123.25 134C138.852 134 151.5 121.352 151.5 105.75C151.5 90.148 138.852 77.5 123.25 77.5C107.648 77.5 95 90.148 95 105.75C95 121.352 107.648 134 123.25 134Z" fill="black" fill-opacity="0.15"/>
<path d="M150 105.75C150 120.524 138.024 132.5 123.25 132.5C108.476 132.5 96.5 120.524 96.5 105.75C96.5 90.9764 108.476 79 123.25 79C138.024 79 150 90.9764 150 105.75Z" fill="url(#paint37_linear_1260_1146)"/>
<path d="M120 132.305C108.329 130.891 98.9744 121.962 96.9204 110.5L120 132.305Z" fill="white" fill-opacity="0.1"/>
<path d="M150 105.75C150 90.9764 138.024 79 123.25 79C118.735 79 114.481 80.1187 110.75 82.0942L147.641 116.75C149.156 113.395 150 109.671 150 105.75Z" fill="black" fill-opacity="0.15"/>
<path d="M114.265 96.3237L124.849 109L126.5 107.489L115.695 95.0139L114.507 94.2883L113.869 93.059L112.16 92.4072L112.548 94.268L113.737 94.9936L114.265 96.3237Z" fill="url(#paint38_linear_1260_1146)"/>
<path d="M114.265 96.3237L124.849 109L126.5 107.489L115.695 95.0139L114.507 94.2883L113.869 93.059L112.16 92.4072L112.548 94.268L113.737 94.9936L114.265 96.3237Z" fill="url(#paint39_linear_1260_1146)"/>
<path d="M139.163 92.0587L120 107.889L120.637 108.66L139.8 92.8297L140.158 91.8855L139.163 92.0587Z" fill="url(#paint40_linear_1260_1146)"/>
<path d="M139.163 92.0587L120 107.889L120.637 108.66L139.8 92.8297L140.158 91.8855L139.163 92.0587Z" fill="url(#paint41_linear_1260_1146)"/>
<path d="M126 105.5C126 106.881 124.881 108 123.5 108C122.119 108 121 106.881 121 105.5C121 104.119 122.119 103 123.5 103C124.881 103 126 104.119 126 105.5Z" fill="url(#paint42_linear_1260_1146)"/>
<path d="M125 105.5C125 106.328 124.328 107 123.5 107C122.672 107 122 106.328 122 105.5C122 104.672 122.672 104 123.5 104C124.328 104 125 104.672 125 105.5Z" fill="url(#paint43_linear_1260_1146)"/>
</g>
<defs>
<filter id="filter0_d_1260_1146" x="0" y="0" width="194" height="178.5" filterUnits="userSpaceOnUse" color-interpolation-filters="sRGB">
<feFlood flood-opacity="0" result="BackgroundImageFix"/>
<feColorMatrix in="SourceAlpha" type="matrix" values="0 0 0 0 0 0 0 0 0 0 0 0 0 0 0 0 0 0 127 0" result="hardAlpha"/>
<feOffset dy="4"/>
<feGaussianBlur stdDeviation="17.5"/>
<feComposite in2="hardAlpha" operator="out"/>
<feColorMatrix type="matrix" values="0 0 0 0 0.811765 0 0 0 0 0.572549 0 0 0 0 0.803922 0 0 0 0.8 0"/>
<feBlend mode="normal" in2="BackgroundImageFix" result="effect1_dropShadow_1260_1146"/>
<feBlend mode="normal" in="SourceGraphic" in2="effect1_dropShadow_1260_1146" result="shape"/>
</filter>
<linearGradient id="paint0_linear_1260_1146" x1="36.7752" y1="123" x2="144.275" y2="15.75" gradientUnits="userSpaceOnUse">
<stop stop-color="#54166F"/>
<stop offset="1" stop-color="#312F49"/>
</linearGradient>
<linearGradient id="paint1_linear_1260_1146" x1="90.2752" y1="35" x2="90.0252" y2="26.75" gradientUnits="userSpaceOnUse">
<stop stop-color="#54166F"/>
<stop offset="1" stop-color="#2C87B9"/>
</linearGradient>
<radialGradient id="paint2_radial_1260_1146" cx="0" cy="0" r="1" gradientUnits="userSpaceOnUse" gradientTransform="translate(50.7752 112.25) rotate(-44.7316) scale(150.969 124.78)">
<stop offset="0.589789" stop-color="#6A1D8C" stop-opacity="0"/>
<stop offset="0.734644" stop-color="#2C87B9" stop-opacity="0.5"/>
<stop offset="0.766831" stop-color="#54166F" stop-opacity="0"/>
<stop offset="1" stop-color="#54166F" stop-opacity="0"/>
</radialGradient>
<linearGradient id="paint3_linear_1260_1146" x1="127.525" y1="59" x2="139.025" y2="59.75" gradientUnits="userSpaceOnUse">
<stop stop-color="#6A1D8C" stop-opacity="0"/>
<stop offset="1" stop-color="#202020"/>
</linearGradient>
<linearGradient id="paint4_linear_1260_1146" x1="27.5249" y1="144.5" x2="128.265" y2="26.2308" gradientUnits="userSpaceOnUse">
<stop stop-color="#B029F2"/>
<stop offset="1" stop-color="#4DB6BC"/>
</linearGradient>
<linearGradient id="paint5_linear_1260_1146" x1="33.0249" y1="84.5" x2="37.0249" y2="84.5" gradientUnits="userSpaceOnUse">
<stop stop-color="white"/>
<stop offset="1" stop-color="white" stop-opacity="0"/>
</linearGradient>
<linearGradient id="paint6_linear_1260_1146" x1="70.2749" y1="128" x2="70.2749" y2="125.75" gradientUnits="userSpaceOnUse">
<stop stop-color="white"/>
<stop offset="1" stop-color="white" stop-opacity="0"/>
</linearGradient>
<radialGradient id="paint7_radial_1260_1146" cx="0" cy="0" r="1" gradientUnits="userSpaceOnUse" gradientTransform="translate(44.2754 117.25) rotate(136.79) scale(11.3192 21.9926)">
<stop offset="0.205656" stop-color="white" stop-opacity="0"/>
<stop offset="0.507378" stop-color="white" stop-opacity="0"/>
<stop offset="0.813689" stop-color="white"/>
</radialGradient>
<linearGradient id="paint8_linear_1260_1146" x1="35" y1="132.5" x2="123.025" y2="41.5" gradientUnits="userSpaceOnUse">
<stop stop-color="#9807DE"/>
<stop offset="1" stop-color="#59B7D1"/>
</linearGradient>
<linearGradient id="paint9_linear_1260_1146" x1="43.0254" y1="132" x2="126.525" y2="28.75" gradientUnits="userSpaceOnUse">
<stop/>
<stop offset="1" stop-opacity="0"/>
</linearGradient>
<linearGradient id="paint10_linear_1260_1146" x1="80.5249" y1="120.75" x2="80.5249" y2="116.5" gradientUnits="userSpaceOnUse">
<stop/>
<stop offset="1" stop-opacity="0"/>
</linearGradient>
<linearGradient id="paint11_linear_1260_1146" x1="41.7749" y1="81.5" x2="44.7749" y2="81.5" gradientUnits="userSpaceOnUse">
<stop/>
<stop offset="1" stop-opacity="0"/>
</linearGradient>
<radialGradient id="paint12_radial_1260_1146" cx="0" cy="0" r="1" gradientUnits="userSpaceOnUse" gradientTransform="translate(52.7749 107.75) rotate(142.883) scale(11.6001 22.6641)">
<stop stop-opacity="0"/>
<stop offset="0.48498" stop-opacity="0"/>
<stop offset="0.909308"/>
</radialGradient>
<linearGradient id="paint13_linear_1260_1146" x1="54.5249" y1="92.8572" x2="87.0249" y2="55.7143" gradientUnits="userSpaceOnUse">
<stop stop-color="#8B32B1"/>
<stop offset="1" stop-color="#245C7A"/>
</linearGradient>
<radialGradient id="paint14_radial_1260_1146" cx="0" cy="0" r="1" gradientUnits="userSpaceOnUse" gradientTransform="translate(71.7124 74.2679) rotate(117.681) scale(23.9864 20.795)">
<stop stop-color="white" stop-opacity="0"/>
<stop offset="0.518104" stop-color="white" stop-opacity="0"/>
<stop offset="0.650502" stop-color="white"/>
</radialGradient>
<linearGradient id="paint15_linear_1260_1146" x1="61.5249" y1="61.75" x2="54.2749" y2="70" gradientUnits="userSpaceOnUse">
<stop stop-color="#386377"/>
<stop offset="1" stop-color="#6A1D8C"/>
</linearGradient>
<linearGradient id="paint16_linear_1260_1146" x1="61.5249" y1="61.75" x2="54.2749" y2="70" gradientUnits="userSpaceOnUse">
<stop offset="0.58664" stop-color="white" stop-opacity="0"/>
<stop offset="0.734819" stop-color="white" stop-opacity="0.3"/>
<stop offset="0.87974" stop-color="white" stop-opacity="0"/>
</linearGradient>
<linearGradient id="paint17_linear_1260_1146" x1="54.4998" y1="69" x2="55.7498" y2="67.25" gradientUnits="userSpaceOnUse">
<stop stop-opacity="0.3"/>
<stop offset="1" stop-opacity="0"/>
</linearGradient>
<linearGradient id="paint18_linear_1260_1146" x1="44.0244" y1="61.75" x2="51.0244" y2="50.5" gradientUnits="userSpaceOnUse">
<stop stop-color="#535353"/>
<stop offset="1" stop-color="#101010" stop-opacity="0"/>
</linearGradient>
<linearGradient id="paint19_linear_1260_1146" x1="84.542" y1="84.25" x2="77.292" y2="92.5" gradientUnits="userSpaceOnUse">
<stop stop-color="#146997"/>
<stop offset="1" stop-color="#6A1D8C"/>
</linearGradient>
<linearGradient id="paint20_linear_1260_1146" x1="84.542" y1="84.25" x2="77.292" y2="92.5" gradientUnits="userSpaceOnUse">
<stop offset="0.58664" stop-color="white" stop-opacity="0"/>
<stop offset="0.734819" stop-color="white" stop-opacity="0.3"/>
<stop offset="0.87974" stop-color="white" stop-opacity="0"/>
</linearGradient>
<linearGradient id="paint21_linear_1260_1146" x1="88.0254" y1="99.9998" x2="90.2754" y2="95.9998" gradientUnits="userSpaceOnUse">
<stop stop-color="#4F4F4F"/>
<stop offset="1" stop-color="#101010" stop-opacity="0"/>
</linearGradient>
<linearGradient id="paint22_linear_1260_1146" x1="79.2754" y1="46.7502" x2="50.0254" y2="100" gradientUnits="userSpaceOnUse">
<stop stop-color="#48AFE4"/>
<stop offset="1" stop-color="#6A1D8C"/>
</linearGradient>
<linearGradient id="paint23_linear_1260_1146" x1="57.7754" y1="80.7502" x2="44.5254" y2="105.25" gradientUnits="userSpaceOnUse">
<stop offset="0.692058" stop-color="white" stop-opacity="0"/>
<stop offset="0.744389" stop-color="white" stop-opacity="0.3"/>
<stop offset="0.779567" stop-color="white" stop-opacity="0"/>
</linearGradient>
<linearGradient id="paint24_linear_1260_1146" x1="58.2754" y1="90.5002" x2="59.5254" y2="92.0002" gradientUnits="userSpaceOnUse">
<stop stop-color="white" stop-opacity="0"/>
<stop offset="0.96875" stop-color="white" stop-opacity="0.22"/>
</linearGradient>
<linearGradient id="paint25_linear_1260_1146" x1="57.0254" y1="89.0002" x2="55.0254" y2="83.2502" gradientUnits="userSpaceOnUse">
<stop stop-opacity="0"/>
<stop offset="0.96875" stop-opacity="0.22"/>
</linearGradient>
<linearGradient id="paint26_linear_1260_1146" x1="45.5254" y1="100" x2="51.0254" y2="90.7502" gradientUnits="userSpaceOnUse">
<stop offset="0.0680171" stop-color="white"/>
<stop offset="0.343153" stop-color="#6A1D8C"/>
</linearGradient>
<linearGradient id="paint27_linear_1260_1146" x1="86.7749" y1="60.5" x2="95.7749" y2="52" gradientUnits="userSpaceOnUse">
<stop offset="0.343153" stop-color="#71388A"/>
<stop offset="0.453558" stop-color="#3B134D"/>
</linearGradient>
<linearGradient id="paint28_linear_1260_1146" x1="94.7749" y1="48.0002" x2="73.0249" y2="77.5002" gradientUnits="userSpaceOnUse">
<stop stop-color="#295E66"/>
<stop offset="1" stop-color="#864D9F"/>
</linearGradient>
<linearGradient id="paint29_linear_1260_1146" x1="59.0254" y1="88.25" x2="81.7754" y2="62.25" gradientUnits="userSpaceOnUse">
<stop stop-color="#6A1D8C"/>
<stop offset="1" stop-color="#349AD1"/>
</linearGradient>
<radialGradient id="paint30_radial_1260_1146" cx="0" cy="0" r="1" gradientUnits="userSpaceOnUse" gradientTransform="translate(71.2754 75) rotate(117.681) scale(17.221 14.9297)">
<stop stop-color="white" stop-opacity="0"/>
<stop offset="0.518104" stop-color="white" stop-opacity="0"/>
<stop offset="0.650502" stop-color="white"/>
</radialGradient>
<linearGradient id="paint31_linear_1260_1146" x1="60.5254" y1="86.7143" x2="80.0254" y2="64.4286" gradientUnits="userSpaceOnUse">
<stop stop-color="#6A1D8C"/>
<stop offset="1" stop-color="#349AD1"/>
</linearGradient>
<radialGradient id="paint32_radial_1260_1146" cx="0" cy="0" r="1" gradientUnits="userSpaceOnUse" gradientTransform="translate(71.7754 75) rotate(133.025) scale(10.2591)">
<stop stop-color="white" stop-opacity="0"/>
<stop offset="0.379453" stop-color="white" stop-opacity="0"/>
<stop offset="1" stop-color="white" stop-opacity="0.43"/>
</radialGradient>
<radialGradient id="paint33_radial_1260_1146" cx="0" cy="0" r="1" gradientUnits="userSpaceOnUse" gradientTransform="translate(124 103) rotate(-50.8176) scale(47.0884)">
<stop offset="0.665014" stop-color="#54166F"/>
<stop offset="0.787751" stop-color="#2C87B9"/>
<stop offset="0.958333" stop-color="#6A1D8C"/>
</radialGradient>
<linearGradient id="paint34_linear_1260_1146" x1="93.5" y1="134" x2="158.47" y2="63.3248" gradientUnits="userSpaceOnUse">
<stop stop-color="#9A2ECE"/>
<stop offset="1" stop-color="#61F6FF"/>
</linearGradient>
<radialGradient id="paint35_radial_1260_1146" cx="0" cy="0" r="1" gradientUnits="userSpaceOnUse" gradientTransform="translate(131.688 93.6964) rotate(117.681) scale(83.0298 71.9825)">
<stop stop-color="white" stop-opacity="0"/>
<stop offset="0.550371" stop-color="white" stop-opacity="0"/>
<stop offset="0.650502" stop-color="white"/>
</radialGradient>
<radialGradient id="paint36_radial_1260_1146" cx="0" cy="0" r="1" gradientUnits="userSpaceOnUse" gradientTransform="translate(130.313 95.6607) rotate(117.681) scale(69.499 60.2521)">
<stop stop-opacity="0"/>
<stop offset="0.550371" stop-opacity="0"/>
<stop offset="0.650502" stop-opacity="0.7"/>
</radialGradient>
<linearGradient id="paint37_linear_1260_1146" x1="158" y1="62.4999" x2="94.1327" y2="141.259" gradientUnits="userSpaceOnUse">
<stop stop-color="#68B0D8"/>
<stop offset="1" stop-color="#8E15C9"/>
</linearGradient>
<linearGradient id="paint38_linear_1260_1146" x1="113.966" y1="103.841" x2="121.978" y2="84.2892" gradientUnits="userSpaceOnUse">
<stop stop-color="#6A1D8C"/>
<stop offset="1" stop-color="#2C87B9"/>
</linearGradient>
<linearGradient id="paint39_linear_1260_1146" x1="117.529" y1="101.258" x2="118.389" y2="100.437" gradientUnits="userSpaceOnUse">
<stop stop-color="white" stop-opacity="0.5"/>
<stop offset="1" stop-color="white" stop-opacity="0"/>
</linearGradient>
<linearGradient id="paint40_linear_1260_1146" x1="143.748" y1="84.032" x2="118.218" y2="110.738" gradientUnits="userSpaceOnUse">
<stop stop-color="#2C87B9"/>
<stop offset="1" stop-color="#6A1D8C"/>
</linearGradient>
<linearGradient id="paint41_linear_1260_1146" x1="120.5" y1="107" x2="118.815" y2="109.053" gradientUnits="userSpaceOnUse">
<stop stop-color="white" stop-opacity="0"/>
<stop offset="1" stop-color="white"/>
</linearGradient>
<linearGradient id="paint42_linear_1260_1146" x1="127.15" y1="101.23" x2="120.779" y2="108.819" gradientUnits="userSpaceOnUse">
<stop stop-color="#68B0D8"/>
<stop offset="1" stop-color="#6A1D8C"/>
</linearGradient>
<linearGradient id="paint43_linear_1260_1146" x1="128.25" y1="97.5" x2="121.867" y2="107.491" gradientUnits="userSpaceOnUse">
<stop stop-color="#68B0D8"/>
<stop offset="1" stop-color="#5F1C7C"/>
</linearGradient>
</defs>
</svg>
