<svg width="24" height="24" viewBox="0 0 24 24" fill="none" xmlns="http://www.w3.org/2000/svg">
<g filter="url(#filter0_d_240_866)">
<path fill-rule="evenodd" clip-rule="evenodd" d="M9.50391 8.0625C8.70784 8.0625 8.0625 8.70784 8.0625 9.50391V17.3086C8.0625 18.1047 8.70784 18.75 9.50391 18.75H17.3086C18.1047 18.75 18.75 18.1047 18.75 17.3086V9.50391C18.75 8.70784 18.1047 8.0625 17.3086 8.0625H9.50391ZM6.9375 9.50391C6.9375 8.08652 8.08652 6.9375 9.50391 6.9375H17.3086C18.726 6.9375 19.875 8.08652 19.875 9.50391V17.3086C19.875 18.726 18.726 19.875 17.3086 19.875H9.50391C8.08652 19.875 6.9375 18.726 6.9375 17.3086V9.50391Z" fill="#B1DFF7"/>
<path fill-rule="evenodd" clip-rule="evenodd" d="M6.93584 4.125L6.9375 4.125H14.5312L14.5329 4.125C15.2032 4.12691 15.8455 4.39404 16.3195 4.86803C16.7935 5.34201 17.0606 5.98433 17.0625 6.65465C17.0625 6.65909 17.0625 6.66353 17.0624 6.66797L17.0448 7.51172C17.0383 7.82231 16.7813 8.06885 16.4707 8.06238C16.1601 8.05591 15.9136 7.79888 15.92 7.48828L15.9375 6.65176C15.9348 6.2809 15.7863 5.92588 15.524 5.66352C15.2604 5.3999 14.9032 5.25125 14.5304 5.25H6.93839C6.49108 5.25152 6.06252 5.42989 5.7462 5.7462C5.42989 6.06252 5.25152 6.49108 5.25 6.93839V14.5304C5.25125 14.9032 5.3999 15.2604 5.66352 15.524C5.92715 15.7876 6.28435 15.9363 6.65716 15.9375H7.5C7.81066 15.9375 8.0625 16.1893 8.0625 16.5C8.0625 16.8107 7.81066 17.0625 7.5 17.0625H6.65625L6.65465 17.0625C5.98433 17.0606 5.34201 16.7935 4.86803 16.3195C4.39404 15.8455 4.12691 15.2032 4.125 14.5329L4.125 14.5312V6.9375L4.125 6.93584C4.1272 6.19103 4.42405 5.47737 4.95071 4.95071C5.47737 4.42405 6.19103 4.1272 6.93584 4.125Z" fill="#B1DFF7"/>
</g>
<defs>
<filter id="filter0_d_240_866" x="-1" y="-1" width="26" height="26" filterUnits="userSpaceOnUse" color-interpolation-filters="sRGB">
<feFlood flood-opacity="0" result="BackgroundImageFix"/>
<feColorMatrix in="SourceAlpha" type="matrix" values="0 0 0 0 0 0 0 0 0 0 0 0 0 0 0 0 0 0 127 0" result="hardAlpha"/>
<feOffset/>
<feGaussianBlur stdDeviation="2"/>
<feComposite in2="hardAlpha" operator="out"/>
<feColorMatrix type="matrix" values="0 0 0 0 1 0 0 0 0 1 0 0 0 0 1 0 0 0 0.5 0"/>
<feBlend mode="normal" in2="BackgroundImageFix" result="effect1_dropShadow_240_866"/>
<feBlend mode="normal" in="SourceGraphic" in2="effect1_dropShadow_240_866" result="shape"/>
</filter>
</defs>
</svg>
