<svg width="41" height="37" viewBox="0 0 41 37" fill="none" xmlns="http://www.w3.org/2000/svg">
<g filter="url(#filter0_d_939_1396)">
<path d="M27.365 11.7542C26.0576 11.1561 24.6555 10.7154 23.1897 10.463C23.163 10.4581 23.1363 10.4703 23.1225 10.4946C22.9422 10.8144 22.7425 11.2315 22.6026 11.5594C21.026 11.3241 19.4574 11.3241 17.9131 11.5594C17.7732 11.2243 17.5662 10.8144 17.3851 10.4946C17.3714 10.4711 17.3447 10.4589 17.318 10.463C15.8529 10.7146 14.4509 11.1553 13.1427 11.7542C13.1314 11.7591 13.1216 11.7672 13.1152 11.7778C10.4559 15.7391 9.72739 19.6032 10.0848 23.4193C10.0864 23.4379 10.0969 23.4558 10.1115 23.4671C11.866 24.7519 13.5656 25.5318 15.2336 26.0488C15.2603 26.0569 15.2886 26.0472 15.3055 26.0253C15.7001 25.488 16.0518 24.9215 16.3534 24.3258C16.3712 24.2909 16.3542 24.2495 16.3178 24.2357C15.7599 24.0247 15.2287 23.7674 14.7177 23.4753C14.6773 23.4517 14.6741 23.3941 14.7112 23.3665C14.8188 23.2862 14.9263 23.2026 15.029 23.1181C15.0476 23.1027 15.0735 23.0995 15.0953 23.1092C18.4524 24.6375 22.0868 24.6375 25.4042 23.1092C25.4261 23.0987 25.452 23.1019 25.4713 23.1173C25.5741 23.2017 25.6816 23.2862 25.7899 23.3665C25.8271 23.3941 25.8247 23.4517 25.7843 23.4753C25.2733 23.7731 24.742 24.0247 24.1833 24.2349C24.147 24.2487 24.1308 24.2909 24.1486 24.3258C24.4566 24.9207 24.8084 25.4872 25.1956 26.0245C25.2118 26.0472 25.2409 26.0569 25.2676 26.0488C26.9437 25.5318 28.6433 24.7519 30.3978 23.4671C30.4132 23.4558 30.4229 23.4387 30.4245 23.4201C30.8522 19.0082 29.7081 15.1759 27.3916 11.7786C27.386 11.7672 27.3763 11.7591 27.365 11.7542ZM16.8547 21.0957C15.844 21.0957 15.0112 20.1705 15.0112 19.0342C15.0112 17.898 15.8279 16.9728 16.8547 16.9728C17.8896 16.9728 18.7144 17.9061 18.6982 19.0342C18.6982 20.1705 17.8815 21.0957 16.8547 21.0957ZM23.6707 21.0957C22.6601 21.0957 21.8273 20.1705 21.8273 19.0342C21.8273 17.898 22.6439 16.9728 23.6707 16.9728C24.7057 16.9728 25.5304 17.9061 25.5142 19.0342C25.5142 20.1705 24.7057 21.0957 23.6707 21.0957Z" fill="white"/>
</g>
<defs>
<filter id="filter0_d_939_1396" x="0" y="0.461914" width="40.5127" height="35.5898" filterUnits="userSpaceOnUse" color-interpolation-filters="sRGB">
<feFlood flood-opacity="0" result="BackgroundImageFix"/>
<feColorMatrix in="SourceAlpha" type="matrix" values="0 0 0 0 0 0 0 0 0 0 0 0 0 0 0 0 0 0 127 0" result="hardAlpha"/>
<feOffset/>
<feGaussianBlur stdDeviation="5"/>
<feComposite in2="hardAlpha" operator="out"/>
<feColorMatrix type="matrix" values="0 0 0 0 0.811765 0 0 0 0 0.572549 0 0 0 0 0.803922 0 0 0 1 0"/>
<feBlend mode="normal" in2="BackgroundImageFix" result="effect1_dropShadow_939_1396"/>
<feBlend mode="normal" in="SourceGraphic" in2="effect1_dropShadow_939_1396" result="shape"/>
</filter>
</defs>
</svg>
