<svg width="41" height="41" viewBox="0 0 41 41" fill="none" xmlns="http://www.w3.org/2000/svg">
<g filter="url(#filter0_d_939_1398)">
<path d="M20.5 11.8919C23.3036 11.8919 23.6357 11.9026 24.7429 11.9531C25.7666 11.9998 26.3226 12.1709 26.6926 12.3146C27.1827 12.5051 27.5325 12.7327 27.8999 13.1001C28.2673 13.4675 28.4949 13.8173 28.6853 14.3074C28.8291 14.6774 29.0002 15.2334 29.0469 16.2571C29.0974 17.3643 29.1081 17.6964 29.1081 20.5C29.1081 23.3037 29.0974 23.6357 29.0469 24.7429C29.0002 25.7666 28.8291 26.3226 28.6853 26.6926C28.4949 27.1827 28.2673 27.5325 27.8999 27.8999C27.5325 28.2673 27.1827 28.4949 26.6926 28.6854C26.3226 28.8291 25.7666 29.0002 24.7429 29.0469C23.6358 29.0974 23.3038 29.1081 20.5 29.1081C17.6962 29.1081 17.3641 29.0974 16.2571 29.0469C15.2334 29.0002 14.6774 28.8291 14.3074 28.6854C13.8173 28.4949 13.4675 28.2673 13.1001 27.8999C12.7327 27.5325 12.5051 27.1827 12.3146 26.6926C12.1709 26.3226 11.9998 25.7666 11.9531 24.7429C11.9026 23.6357 11.8919 23.3037 11.8919 20.5C11.8919 17.6964 11.9026 17.3643 11.9531 16.2571C11.9998 15.2334 12.1709 14.6774 12.3146 14.3074C12.5051 13.8173 12.7327 13.4675 13.1001 13.1001C13.4675 12.7327 13.8173 12.5051 14.3074 12.3146C14.6774 12.1709 15.2334 11.9998 16.2571 11.9531C17.3643 11.9026 17.6963 11.8919 20.5 11.8919ZM20.5 10C17.6483 10 17.2908 10.0121 16.1709 10.0632C15.0532 10.1142 14.29 10.2917 13.6221 10.5513C12.9316 10.8196 12.346 11.1786 11.7623 11.7623C11.1786 12.3461 10.8196 12.9316 10.5512 13.6221C10.2916 14.29 10.1142 15.0533 10.0631 16.1709C10.012 17.2908 10 17.6484 10 20.5C10 23.3517 10.012 23.7092 10.0631 24.8291C10.1142 25.9468 10.2916 26.71 10.5512 27.3779C10.8196 28.0684 11.1786 28.654 11.7623 29.2377C12.346 29.8214 12.9316 30.1805 13.6221 30.4488C14.29 30.7084 15.0532 30.8858 16.1709 30.9369C17.2908 30.988 17.6483 31 20.5 31C23.3516 31 23.7092 30.988 24.8291 30.9369C25.9467 30.8858 26.71 30.7084 27.3779 30.4488C28.0684 30.1805 28.6539 29.8214 29.2377 29.2377C29.8214 28.654 30.1804 28.0684 30.4487 27.3779C30.7083 26.71 30.8858 25.9468 30.9368 24.8291C30.9879 23.7092 31 23.3517 31 20.5C31 17.6484 30.9879 17.2908 30.9368 16.1709C30.8858 15.0533 30.7083 14.29 30.4487 13.6221C30.1804 12.9316 29.8214 12.3461 29.2377 11.7623C28.6539 11.1786 28.0684 10.8196 27.3779 10.5513C26.71 10.2917 25.9467 10.1142 24.8291 10.0632C23.7092 10.0121 23.3516 10 20.5 10ZM20.5 15.1081C17.5221 15.1081 15.1081 17.5222 15.1081 20.5C15.1081 23.4779 17.5221 25.8919 20.5 25.8919C23.4778 25.8919 25.8919 23.4779 25.8919 20.5C25.8919 17.5222 23.4778 15.1081 20.5 15.1081ZM20.5 24C18.567 24 17 22.433 17 20.5C17 18.567 18.567 17 20.5 17C22.433 17 24 18.567 24 20.5C24 22.433 22.433 24 20.5 24ZM27.3649 14.8951C27.3649 15.591 26.8008 16.1551 26.1049 16.1551C25.409 16.1551 24.8449 15.591 24.8449 14.8951C24.8449 14.1992 25.409 13.6351 26.1049 13.6351C26.8008 13.6351 27.3649 14.1992 27.3649 14.8951Z" fill="white"/>
</g>
<defs>
<filter id="filter0_d_939_1398" x="0" y="0" width="41" height="41" filterUnits="userSpaceOnUse" color-interpolation-filters="sRGB">
<feFlood flood-opacity="0" result="BackgroundImageFix"/>
<feColorMatrix in="SourceAlpha" type="matrix" values="0 0 0 0 0 0 0 0 0 0 0 0 0 0 0 0 0 0 127 0" result="hardAlpha"/>
<feOffset/>
<feGaussianBlur stdDeviation="5"/>
<feComposite in2="hardAlpha" operator="out"/>
<feColorMatrix type="matrix" values="0 0 0 0 0.811765 0 0 0 0 0.572549 0 0 0 0 0.803922 0 0 0 1 0"/>
<feBlend mode="normal" in2="BackgroundImageFix" result="effect1_dropShadow_939_1398"/>
<feBlend mode="normal" in="SourceGraphic" in2="effect1_dropShadow_939_1398" result="shape"/>
</filter>
</defs>
</svg>
