<svg width="18" height="20" viewBox="0 0 18 20" fill="none" xmlns="http://www.w3.org/2000/svg">
<path d="M0.420727 5.21488C-0.516158 6.75667 0.332818 7.69635 0.83652 7.93568C3.06536 8.5781 2.87647 6.80201 4.31202 5.06372C5.06758 4.24496 6.46535 3.17427 8.99645 3.0987C11.1517 3.03434 12.6105 4.119 13.0764 4.49689C12.9631 4.52208 12.4342 4.49689 11.9431 4.72362C11.2178 5.14686 11.6409 5.70613 11.9431 5.93287L16.7786 8.12463C17.232 8.27578 17.7231 7.93568 17.7231 7.48221V2.45628C17.7835 1.85166 17.4586 1.51156 17.1564 1.51156C16.4009 1.51156 16.2875 2.15397 15.7964 2.83417C14.9023 1.88945 12.2907 0 8.99645 0C4.31202 0 1.59183 3.28764 0.420727 5.21488Z" fill="#B1DFF7"/>
<path d="M17.5793 14.1699C18.5162 12.6281 17.6672 11.6884 17.1635 11.4491C14.9346 10.8067 15.1235 12.5828 13.688 14.321C12.9324 15.1398 11.5347 16.2105 9.00355 16.2861C6.84834 16.3504 5.38949 15.2658 4.92357 14.8879C5.0369 14.8627 5.56579 14.8879 6.0569 14.6611C6.78223 14.2379 6.35912 13.6786 6.0569 13.4519L1.22136 11.2601C0.768034 11.109 0.276924 11.4491 0.276924 11.9026V16.9285C0.21648 17.5331 0.541368 17.8732 0.84359 17.8732C1.59914 17.8732 1.71247 17.2308 2.20358 16.5506C3.09765 17.4953 5.70935 19.3848 9.00355 19.3848C13.688 19.3848 16.4082 16.0971 17.5793 14.1699Z" fill="#B1DFF7"/>
</svg>
