<svg width="9" height="19" viewBox="0 0 9 19" fill="none" xmlns="http://www.w3.org/2000/svg">
<path opacity="0.8" d="M1.725 12.3V10.3C2.64167 10.3 3.41667 10.1167 4.05 9.75C4.68333 9.38333 5.16667 8.90833 5.5 8.325C5.83333 7.725 6 7.08333 6 6.4C6 5.71667 5.83333 5.075 5.5 4.475C5.16667 3.875 4.68333 3.39167 4.05 3.025C3.41667 2.65833 2.64167 2.475 1.725 2.475H0.375V0.5H1.725C3.075 0.5 4.24167 0.775 5.225 1.325C6.20833 1.875 6.96667 2.6 7.5 3.5C8.05 4.38333 8.325 5.35 8.325 6.4C8.325 7.45 8.05833 8.425 7.525 9.325C6.99167 10.225 6.225 10.95 5.225 11.5C4.24167 12.0333 3.075 12.3 1.725 12.3ZM2.4 18.25C1.95 18.25 1.55833 18.0917 1.225 17.775C0.908333 17.4417 0.75 17.05 0.75 16.6C0.75 16.15 0.908333 15.7667 1.225 15.45C1.55833 15.1167 1.95 14.95 2.4 14.95C2.85 14.95 3.23333 15.1167 3.55 15.45C3.88333 15.7667 4.05 16.15 4.05 16.6C4.05 17.05 3.88333 17.4417 3.55 17.775C3.23333 18.0917 2.85 18.25 2.4 18.25Z" fill="white"/>
</svg>
