<svg width="16" height="16" viewBox="0 0 16 16" fill="none" xmlns="http://www.w3.org/2000/svg">
<path fill-rule="evenodd" clip-rule="evenodd" d="M15.0577 9.94231H9.94231L9.94231 15.0577H15.0577V9.94231ZM9.94231 9C9.42189 9 9 9.42189 9 9.94231V15.0577C9 15.5781 9.42189 16 9.94231 16H15.0577C15.5781 16 16 15.5781 16 15.0577V9.94231C16 9.42189 15.5781 9 15.0577 9H9.94231Z" fill="#B1DFF7"/>
<path fill-rule="evenodd" clip-rule="evenodd" d="M15.0577 0.942308H9.94231L9.94231 6.05769H15.0577V0.942308ZM9.94231 0C9.42189 0 9 0.421885 9 0.942308V6.05769C9 6.57811 9.42189 7 9.94231 7H15.0577C15.5781 7 16 6.57811 16 6.05769V0.942308C16 0.421886 15.5781 0 15.0577 0H9.94231Z" fill="#B1DFF7"/>
<path fill-rule="evenodd" clip-rule="evenodd" d="M6.05769 9.94231H0.942308L0.942308 15.0577H6.05769V9.94231ZM0.942308 9C0.421886 9 0 9.42189 0 9.94231V15.0577C0 15.5781 0.421885 16 0.942308 16H6.05769C6.57811 16 7 15.5781 7 15.0577V9.94231C7 9.42189 6.57811 9 6.05769 9H0.942308Z" fill="#B1DFF7"/>
<path fill-rule="evenodd" clip-rule="evenodd" d="M6.05769 0.942308H0.942308L0.942308 6.05769H6.05769V0.942308ZM0.942308 0C0.421886 0 0 0.421885 0 0.942308V6.05769C0 6.57811 0.421885 7 0.942308 7H6.05769C6.57811 7 7 6.57811 7 6.05769V0.942308C7 0.421886 6.57811 0 6.05769 0H0.942308Z" fill="#B1DFF7"/>
</svg>
