<svg width="11" height="18" viewBox="0 0 11 18" fill="none" xmlns="http://www.w3.org/2000/svg">
<path d="M4.86057 18C4.73095 18 4.62078 17.9533 4.53005 17.86C4.45228 17.78 4.41339 17.6733 4.41339 17.54V16.14C3.50609 16.06 2.72192 15.8467 2.06088 15.5C1.39984 15.14 0.894344 14.7 0.544383 14.18C0.207384 13.6467 0.025923 13.08 0 12.48C0 12.3733 0.0388846 12.28 0.116654 12.2C0.207384 12.1067 0.311076 12.06 0.42773 12.06H1.43873C1.67203 12.06 1.83405 12.1933 1.92478 12.46C2.0544 13.02 2.3914 13.5 2.93578 13.9C3.48017 14.3 4.25138 14.5 5.24941 14.5C6.32522 14.5 7.13531 14.3067 7.6797 13.92C8.22408 13.52 8.49627 12.9667 8.49627 12.26C8.49627 11.8067 8.36017 11.44 8.08798 11.16C7.82875 10.88 7.43991 10.6333 6.92145 10.42C6.40299 10.2067 5.6253 9.94 4.58837 9.62C3.57738 9.32667 2.77376 9.01333 2.17753 8.68C1.5813 8.34667 1.13413 7.93333 0.836017 7.44C0.537903 6.94667 0.388845 6.32667 0.388845 5.58C0.388845 4.59333 0.745287 3.76 1.45817 3.08C2.17105 2.38667 3.15613 1.97333 4.41339 1.84V0.46C4.41339 0.326666 4.45228 0.219999 4.53005 0.139999C4.62078 0.0466665 4.73095 0 4.86057 0H5.59937C5.72899 0 5.83268 0.0466665 5.91045 0.139999C6.00118 0.219999 6.04654 0.326666 6.04654 0.46V1.86C6.87608 1.96667 7.58248 2.20667 8.16575 2.58C8.76198 2.95333 9.20915 3.39333 9.50727 3.9C9.81834 4.40667 9.98684 4.91333 10.0128 5.42C10.0128 5.52667 9.97388 5.62 9.89611 5.7C9.83131 5.78 9.73409 5.82 9.60448 5.82H8.57404C8.30185 5.82 8.13335 5.69333 8.06854 5.44C7.99077 4.88 7.68618 4.42 7.15475 4.06C6.62333 3.68667 5.95581 3.5 5.1522 3.5C4.27082 3.5 3.57738 3.67333 3.07188 4.02C2.56638 4.36667 2.31363 4.88 2.31363 5.56C2.31363 6.01333 2.43028 6.38667 2.66359 6.68C2.90986 6.97333 3.27926 7.23333 3.7718 7.46C4.26434 7.67333 4.9837 7.92 5.92989 8.2C7.03162 8.50667 7.90004 8.82667 8.53515 9.16C9.17027 9.48 9.64336 9.88667 9.95444 10.38C10.2655 10.86 10.4211 11.4733 10.4211 12.22C10.4211 13.3533 10.0322 14.2667 9.25452 14.96C8.47683 15.64 7.4075 16.04 6.04654 16.16V17.54C6.04654 17.6733 6.00118 17.78 5.91045 17.86C5.83268 17.9533 5.72899 18 5.59937 18H4.86057Z" fill="#B1DFF7"/>
</svg>
