<svg width="20" height="16" viewBox="0 0 20 16" fill="none" xmlns="http://www.w3.org/2000/svg">
<path fill-rule="evenodd" clip-rule="evenodd" d="M7.75244 9.94231H1.69475L1.69475 15.0577H7.75244V9.94231ZM1.69475 9C1.07846 9 0.578857 9.42189 0.578857 9.94231V15.0577C0.578857 15.5781 1.07846 16 1.69475 16H7.75244C8.36873 16 8.86833 15.5781 8.86833 15.0577V9.94231C8.86833 9.42189 8.36873 9 7.75244 9H1.69475Z" fill="#B1DFF7"/>
<path fill-rule="evenodd" clip-rule="evenodd" d="M12.3527 12.5C12.3527 13.9126 13.7088 15.0577 15.3816 15.0577C17.0543 15.0577 18.4104 13.9126 18.4104 12.5C18.4104 11.0874 17.0543 9.94231 15.3816 9.94231C13.7088 9.94231 12.3527 11.0874 12.3527 12.5ZM15.3816 9C13.0925 9 11.2368 10.567 11.2368 12.5C11.2368 14.433 13.0925 16 15.3816 16C17.6706 16 19.5263 14.433 19.5263 12.5C19.5263 10.567 17.6706 9 15.3816 9Z" fill="#B1DFF7"/>
<path fill-rule="evenodd" clip-rule="evenodd" d="M9.46041 1.3388L6.65719 5.92896H12.2636L9.46041 1.3388ZM10.1963 0.401639C9.86921 -0.13388 9.05161 -0.13388 8.72456 0.401639L5.43078 5.79508C5.10373 6.3306 5.51254 7 6.16662 7H12.7542C13.4083 7 13.8171 6.3306 13.49 5.79508L10.1963 0.401639Z" fill="#B1DFF7"/>
</svg>
