<svg width="50" height="50" viewBox="0 0 50 50" fill="none" xmlns="http://www.w3.org/2000/svg">
<circle cx="25" cy="25" r="25" fill="#ECEFF4"/>
<path fill-rule="evenodd" clip-rule="evenodd" d="M22.2266 20.625C21.342 20.625 20.625 21.342 20.625 22.2266V30.8984C20.625 31.783 21.342 32.5 22.2266 32.5H30.8984C31.783 32.5 32.5 31.783 32.5 30.8984V22.2266C32.5 21.342 31.783 20.625 30.8984 20.625H22.2266ZM19.375 22.2266C19.375 20.6517 20.6517 19.375 22.2266 19.375H30.8984C32.4733 19.375 33.75 20.6517 33.75 22.2266V30.8984C33.75 32.4733 32.4733 33.75 30.8984 33.75H22.2266C20.6517 33.75 19.375 32.4733 19.375 30.8984V22.2266Z" fill="black"/>
<path fill-rule="evenodd" clip-rule="evenodd" d="M19.3732 16.25L19.375 16.25H27.8125L27.8143 16.25C28.5591 16.2521 29.2728 16.5489 29.7994 17.0756C30.3261 17.6022 30.6229 18.3159 30.625 19.0607C30.625 19.0657 30.625 19.0706 30.6249 19.0755L30.6053 20.013C30.5981 20.3581 30.3126 20.6321 29.9675 20.6249C29.6223 20.6177 29.3484 20.3321 29.3556 19.987L29.375 19.0575C29.372 18.6454 29.207 18.251 28.9155 17.9595C28.6226 17.6666 28.2258 17.5014 27.8115 17.5H19.376C18.879 17.5017 18.4028 17.6999 18.0513 18.0513C17.6999 18.4028 17.5017 18.879 17.5 19.376V27.8115C17.5014 28.2258 17.6666 28.6226 17.9595 28.9155C18.2524 29.2085 18.6493 29.3736 19.0635 29.375H20C20.3452 29.375 20.625 29.6548 20.625 30C20.625 30.3452 20.3452 30.625 20 30.625H19.0625L19.0607 30.625C18.3159 30.6229 17.6022 30.3261 17.0756 29.7994C16.5489 29.2728 16.2521 28.5591 16.25 27.8143L16.25 27.8125V19.375L16.25 19.3732C16.2524 18.5456 16.5823 17.7526 17.1675 17.1675C17.7526 16.5823 18.5456 16.2524 19.3732 16.25Z" fill="black"/>
</svg>
