<svg width="19" height="18" viewBox="0 0 19 18" fill="none" xmlns="http://www.w3.org/2000/svg">
<path d="M17.1895 0.258209H1.81037C1.40249 0.258209 1.01132 0.411711 0.722904 0.684945C0.43449 0.958179 0.272461 1.32876 0.272461 1.71518V16.2848C0.272461 16.6713 0.43449 17.0418 0.722904 17.3151C1.01132 17.5883 1.40249 17.7418 1.81037 17.7418H17.1895C17.5973 17.7418 17.9885 17.5883 18.2769 17.3151C18.5653 17.0418 18.7274 16.6713 18.7274 16.2848V1.71518C18.7274 1.32876 18.5653 0.958179 18.2769 0.684945C17.9885 0.411711 17.5973 0.258209 17.1895 0.258209ZM17.1895 16.2848H1.81037V11.9139L5.65514 8.27153L9.9536 12.3438C10.2417 12.6151 10.6315 12.7674 11.0378 12.7674C11.4441 12.7674 11.8339 12.6151 12.1221 12.3438L13.3447 11.1855L17.1895 14.8279V16.2848ZM17.1895 12.7663L14.4289 10.151C14.1408 9.87965 13.751 9.72734 13.3447 9.72734C12.9384 9.72734 12.5486 9.87965 12.2605 10.151L11.0378 11.3093L6.73937 7.23708C6.45122 6.96572 6.06144 6.81341 5.65514 6.81341C5.24885 6.81341 4.85907 6.96572 4.57092 7.23708L1.81037 9.85234V1.71518H17.1895V12.7663Z" fill="#6E757C"/>
</svg>
