<svg width="35" height="33" viewBox="0 0 35 33" fill="none" xmlns="http://www.w3.org/2000/svg">
<path d="M32.6073 0.912109L19.4419 10.6536L21.8901 4.91261L32.6073 0.912109Z" fill="#E17726" stroke="#E17726" stroke-width="0.25" stroke-linecap="round" stroke-linejoin="round"/>
<path d="M2.23926 0.912109L15.2875 10.7445L12.9565 4.9126L2.23926 0.912109Z" fill="#E27625" stroke="#E27625" stroke-width="0.25" stroke-linecap="round" stroke-linejoin="round"/>
<path d="M27.8667 23.499L24.3638 28.8504L31.8645 30.9156L34.0132 23.616L27.8667 23.499Z" fill="#E27625" stroke="#E27625" stroke-width="0.25" stroke-linecap="round" stroke-linejoin="round"/>
<path d="M0.846191 23.616L2.98181 30.9156L10.4696 28.8504L6.97961 23.499L0.846191 23.616Z" fill="#E27625" stroke="#E27625" stroke-width="0.25" stroke-linecap="round" stroke-linejoin="round"/>
<path d="M10.0659 14.4592L7.98242 17.6024L15.405 17.9401L15.1576 9.95215L10.0659 14.4592Z" fill="#E27625" stroke="#E27625" stroke-width="0.25" stroke-linecap="round" stroke-linejoin="round"/>
<path d="M24.7804 14.4593L19.6107 9.86133L19.4414 17.9403L26.864 17.6026L24.7804 14.4593Z" fill="#E27625" stroke="#E27625" stroke-width="0.25" stroke-linecap="round" stroke-linejoin="round"/>
<path d="M10.4697 28.8504L14.9623 26.6813L11.0948 23.668L10.4697 28.8504Z" fill="#E27625" stroke="#E27625" stroke-width="0.25" stroke-linecap="round" stroke-linejoin="round"/>
<path d="M19.8843 26.6813L24.3638 28.8504L23.7518 23.668L19.8843 26.6813Z" fill="#E27625" stroke="#E27625" stroke-width="0.25" stroke-linecap="round" stroke-linejoin="round"/>
<path d="M24.3638 28.8507L19.8843 26.6816L20.2488 29.5911L20.2098 30.825L24.3638 28.8507Z" fill="#D5BFB2" stroke="#D5BFB2" stroke-width="0.25" stroke-linecap="round" stroke-linejoin="round"/>
<path d="M10.4697 28.8507L14.6368 30.825L14.6108 29.5911L14.9623 26.6816L10.4697 28.8507Z" fill="#D5BFB2" stroke="#D5BFB2" stroke-width="0.25" stroke-linecap="round" stroke-linejoin="round"/>
<path d="M14.7146 21.7453L10.9902 20.6543L13.6207 19.4463L14.7146 21.7453Z" fill="#233447" stroke="#233447" stroke-width="0.25" stroke-linecap="round" stroke-linejoin="round"/>
<path d="M20.1318 21.7453L21.2257 19.4463L23.8692 20.6543L20.1318 21.7453Z" fill="#233447" stroke="#233447" stroke-width="0.25" stroke-linecap="round" stroke-linejoin="round"/>
<path d="M10.4694 28.8504L11.1205 23.499L6.97949 23.616L10.4694 28.8504Z" fill="#CC6228" stroke="#CC6228" stroke-width="0.25" stroke-linecap="round" stroke-linejoin="round"/>
<path d="M23.7261 23.499L24.3642 28.8504L27.8671 23.616L23.7261 23.499Z" fill="#CC6228" stroke="#CC6228" stroke-width="0.25" stroke-linecap="round" stroke-linejoin="round"/>
<path d="M26.864 17.6025L19.4414 17.9402L20.1315 21.746L21.2255 19.4469L23.8689 20.6549L26.864 17.6025Z" fill="#CC6228" stroke="#CC6228" stroke-width="0.25" stroke-linecap="round" stroke-linejoin="round"/>
<path d="M10.9905 20.6549L13.621 19.4469L14.7149 21.746L15.405 17.9402L7.98242 17.6025L10.9905 20.6549Z" fill="#CC6228" stroke="#CC6228" stroke-width="0.25" stroke-linecap="round" stroke-linejoin="round"/>
<path d="M7.98242 17.6025L11.0947 23.6683L10.9905 20.6549L7.98242 17.6025Z" fill="#E27525" stroke="#E27525" stroke-width="0.25" stroke-linecap="round" stroke-linejoin="round"/>
<path d="M23.8691 20.6549L23.752 23.6683L26.8643 17.6025L23.8691 20.6549Z" fill="#E27525" stroke="#E27525" stroke-width="0.25" stroke-linecap="round" stroke-linejoin="round"/>
<path d="M15.4051 17.9395L14.7148 21.7452L15.5873 26.2392L15.7827 20.3164L15.4051 17.9395Z" fill="#E27525" stroke="#E27525" stroke-width="0.25" stroke-linecap="round" stroke-linejoin="round"/>
<path d="M19.4418 17.9395L19.0771 20.3035L19.2595 26.2392L20.132 21.7452L19.4418 17.9395Z" fill="#E27525" stroke="#E27525" stroke-width="0.25" stroke-linecap="round" stroke-linejoin="round"/>
<path d="M20.1318 21.7454L19.2593 26.2394L19.8844 26.681L23.752 23.6677L23.8691 20.6543L20.1318 21.7454Z" fill="#F5841F" stroke="#F5841F" stroke-width="0.25" stroke-linecap="round" stroke-linejoin="round"/>
<path d="M10.9902 20.6543L11.0945 23.6677L14.962 26.681L15.5871 26.2394L14.7146 21.7454L10.9902 20.6543Z" fill="#F5841F" stroke="#F5841F" stroke-width="0.25" stroke-linecap="round" stroke-linejoin="round"/>
<path d="M20.2103 30.8249L20.2493 29.5909L19.9108 29.3052H14.9364L14.6108 29.5909L14.6368 30.8249L10.4697 28.8506L11.9282 30.0455L14.8842 32.0848H19.9498L22.9188 30.0455L24.3643 28.8506L20.2103 30.8249Z" fill="#C0AC9D" stroke="#C0AC9D" stroke-width="0.25" stroke-linecap="round" stroke-linejoin="round"/>
<path d="M19.8843 26.6818L19.2592 26.2402H15.587L14.962 26.6818L14.6104 29.5913L14.9359 29.3055H19.9104L20.249 29.5913L19.8843 26.6818Z" fill="#161616" stroke="#161616" stroke-width="0.25" stroke-linecap="round" stroke-linejoin="round"/>
<path d="M33.1668 11.29L34.2737 5.91273L32.6068 0.912109L19.8843 10.3289L24.7805 14.4592L31.6953 16.4725L33.2189 14.6931L32.5548 14.2124L33.6095 13.2514L32.8022 12.6279L33.857 11.8226L33.1668 11.29Z" fill="#763E1A" stroke="#763E1A" stroke-width="0.25" stroke-linecap="round" stroke-linejoin="round"/>
<path d="M0.572754 5.91371L1.69266 11.291L0.976444 11.8235L2.04425 12.6289L1.23688 13.2523L2.29167 14.2134L1.62754 14.6941L3.15114 16.4735L10.0659 14.4602L14.9622 10.3299L2.23959 0.913086L0.572754 5.91371Z" fill="#763E1A" stroke="#763E1A" stroke-width="0.25" stroke-linecap="round" stroke-linejoin="round"/>
<path d="M31.6954 16.4722L24.7807 14.459L26.8643 17.6023L23.752 23.6679L27.8669 23.616H34.0134L31.6954 16.4722Z" fill="#F5841F" stroke="#F5841F" stroke-width="0.25" stroke-linecap="round" stroke-linejoin="round"/>
<path d="M10.0658 14.459L3.1511 16.4722L0.846191 23.616H6.97961L11.0946 23.6679L7.98232 17.6023L10.0658 14.459Z" fill="#F5841F" stroke="#F5841F" stroke-width="0.25" stroke-linecap="round" stroke-linejoin="round"/>
<path d="M19.4416 17.9407L19.8843 10.3293L21.8897 4.91309H12.9565L14.9619 10.3293L15.4047 17.9407L15.574 20.3306L15.587 26.2404H19.2592L19.2723 20.3306L19.4416 17.9407Z" fill="#F5841F" stroke="#F5841F" stroke-width="0.25" stroke-linecap="round" stroke-linejoin="round"/>
</svg>
