<svg width="48" height="48" viewBox="0 0 48 48" fill="none" xmlns="http://www.w3.org/2000/svg">
<path d="M0 24C0 10.7452 10.7452 0 24 0C37.2548 0 48 10.7452 48 24C48 37.2548 37.2548 48 24 48C10.7452 48 0 37.2548 0 24Z" fill="black"/>
<path d="M34.9674 17.5809C34.8632 17.4757 34.739 17.3922 34.6022 17.3354C34.4654 17.2786 34.3187 17.2496 34.1706 17.25H33.375V15.375C33.3747 15.0767 33.256 14.7908 33.0451 14.5799C32.8342 14.369 32.5483 14.2503 32.25 14.25H16.0606C15.1826 14.25 14.3405 14.5988 13.7197 15.2197C13.0988 15.8405 12.75 16.6826 12.75 17.5606V30.4394C12.75 31.3174 13.0988 32.1595 13.7197 32.7803C14.3405 33.4012 15.1826 33.75 16.0606 33.75H34.1263C34.4238 33.7494 34.7091 33.6312 34.9198 33.4211C35.1306 33.2111 35.2497 32.9262 35.2513 32.6286L35.2955 18.3788C35.2964 18.2307 35.2679 18.0839 35.2116 17.9469C35.1553 17.8099 35.0723 17.6855 34.9674 17.5809ZM33.7525 32.25H16.0606C15.5804 32.25 15.1199 32.0592 14.7803 31.7197C14.4408 31.3801 14.25 30.9196 14.25 30.4394V17.5606C14.25 17.0804 14.4408 16.6199 14.7803 16.2803C15.1199 15.9408 15.5804 15.75 16.0606 15.75H31.875V17.25H16.125V18.75H33.7944L33.7525 32.25Z" fill="white"/>
<path d="M30.375 24.375H31.875V25.875H30.375V24.375Z" fill="white"/>
</svg>
