<svg width="15" height="24" viewBox="0 0 15 24" fill="none" xmlns="http://www.w3.org/2000/svg">
<path d="M14.8663 13.9152C14.783 13.8162 14.6683 13.748 14.541 13.7216C14.4136 13.6953 14.281 13.7123 14.1647 13.77L7.50004 17.0714L0.835369 13.77C0.71914 13.7123 0.586649 13.6952 0.459374 13.7215C0.332099 13.7477 0.217501 13.8158 0.134157 13.9146C0.0508138 14.0135 0.00361019 14.1373 0.00019879 14.266C-0.00321261 14.3948 0.0373682 14.5209 0.115363 14.624L7.0385 23.7691C7.04542 23.7783 7.05696 23.7817 7.06504 23.7909C7.10354 23.8359 7.14912 23.8745 7.20004 23.9052C7.21827 23.9192 7.23756 23.9318 7.25773 23.9429C7.33287 23.9805 7.41587 24.0001 7.50004 24.0001C7.58421 24.0001 7.66721 23.9805 7.74235 23.9429C7.76252 23.9318 7.78181 23.9192 7.80004 23.9052C7.85096 23.8745 7.89654 23.8359 7.93504 23.7909C7.94312 23.7817 7.95466 23.7783 7.96158 23.7691L14.8847 14.624C14.9626 14.521 15.0032 14.395 14.9998 14.2664C14.9965 14.1378 14.9494 14.014 14.8663 13.9152ZM6.92311 18.0637V21.7115L2.505 15.8814L6.92311 18.0637ZM8.07697 21.7115V18.0637L12.4951 15.8814L8.07697 21.7115Z" fill="#FFCF53"/>
<path d="M0.0161539 12.061C0.0155888 12.0924 0.0179061 12.1237 0.0230771 12.1547C0.0288464 12.173 0.0426929 12.1867 0.0496161 12.2039C0.052369 12.2197 0.056224 12.2354 0.0611543 12.2507C0.0680775 12.2656 0.0853852 12.2713 0.0934621 12.285C0.132111 12.3485 0.1831 12.4036 0.243464 12.4474C0.263079 12.4611 0.276925 12.4771 0.296541 12.4885C0.316156 12.4999 0.310387 12.5022 0.318464 12.5057L7.2416 15.9351H7.25775C7.33313 15.9719 7.41603 15.9911 7.50006 15.9911C7.58409 15.9911 7.667 15.9719 7.74237 15.9351H7.75853L14.6817 12.5057C14.6986 12.4941 14.7148 12.4815 14.7301 12.4679C14.7662 12.4456 14.7995 12.4191 14.8294 12.3891C14.8549 12.3632 14.8777 12.3349 14.8974 12.3045C14.9123 12.2873 14.9261 12.2694 14.939 12.2507C14.947 12.2336 14.9459 12.2164 14.9528 12.2004C14.9618 12.1857 14.9699 12.1704 14.977 12.1547C14.9788 12.1342 14.9788 12.1135 14.977 12.093C14.9852 12.0535 14.9883 12.0132 14.9863 11.973C14.985 11.9395 14.9807 11.9062 14.9736 11.8735C14.9641 11.834 14.9502 11.7956 14.932 11.7592C14.9271 11.7409 14.9209 11.7229 14.9136 11.7055L7.99045 0.273978C7.98237 0.261404 7.96737 0.256831 7.9593 0.2454C7.90878 0.169943 7.84019 0.108045 7.75966 0.0652267C7.67913 0.0224083 7.58915 0 7.49776 0C7.40636 0 7.31638 0.0224083 7.23585 0.0652267C7.15532 0.108045 7.08673 0.169943 7.03621 0.2454C7.02814 0.256831 7.01314 0.261404 7.00506 0.273978L0.0819239 11.7055C0.0358802 11.7866 0.0105301 11.8776 0.00807696 11.9707C0.00807696 11.981 0 11.989 0 11.9992C0.00407031 12.0201 0.00946559 12.0408 0.0161539 12.061ZM6.92313 14.4993L1.86694 11.9947L6.92313 9.49004V14.4993ZM8.07699 9.49004L13.1332 11.9947L8.07699 14.4993V9.49004ZM8.07699 8.212V2.62658L12.9082 10.6046L8.07699 8.212ZM6.92313 8.212L2.09079 10.6058L6.92313 2.62658V8.212Z" fill="#FFCF53"/>
</svg>
