<svg width="14" height="14" viewBox="0 0 14 14" fill="none" xmlns="http://www.w3.org/2000/svg">
<path fill-rule="evenodd" clip-rule="evenodd" d="M9.72632 0C9.37363 0 9.08772 0.286916 9.08772 0.640845C9.08772 0.994774 9.37363 1.28169 9.72632 1.28169H11.8417L5.49423 7.78282C4.92082 7.35305 4.20932 7.09859 3.4386 7.09859C1.53951 7.09859 0 8.64352 0 10.5493C0 12.4551 1.53951 14 3.4386 14C5.33768 14 6.87719 12.4551 6.87719 10.5493C6.87719 9.88067 6.6877 9.25646 6.35965 8.72781L12.7228 2.21059V4.23944C12.7228 4.59337 13.0087 4.88028 13.3614 4.88028C13.7141 4.88028 14 4.59337 14 4.23944V0.640845C14 0.286916 13.7141 0 13.3614 0H9.72632ZM6.35965 8.72781C6.13215 8.36117 5.83801 8.04049 5.49423 7.78282L3.37544 9.95291C3.12861 10.2057 3.13274 10.6115 3.38465 10.8592C3.63657 11.1069 4.04089 11.1027 4.28772 10.8499L6.35965 8.72781Z" fill="#B1DFF7"/>
</svg>
