<svg width="33" height="38" viewBox="0 0 33 38" fill="none" xmlns="http://www.w3.org/2000/svg">
<g filter="url(#filter0_d_122_393)">
<path fill-rule="evenodd" clip-rule="evenodd" d="M24.1567 11.6462C25.9762 11.6462 27.4512 10.1584 27.4512 8.32308C27.4512 6.48779 25.9762 5 24.1567 5C22.3373 5 20.8623 6.48779 20.8623 8.32308C20.8623 8.75643 20.9445 9.17041 21.0941 9.55L10.3833 17.9381C9.81477 17.4674 9.08731 17.1849 8.29443 17.1849C6.47497 17.1849 5 18.6727 5 20.508C5 22.3432 6.47497 23.831 8.29443 23.831C9.23467 23.831 10.0829 23.4337 10.6831 22.7965L21.0423 28.2678C20.9255 28.6238 20.8623 29.0044 20.8623 29.3999C20.8623 31.3881 22.4602 32.9999 24.4313 32.9999C26.4024 32.9999 28.0002 31.3881 28.0002 29.3999C28.0002 27.4117 26.4024 25.7999 24.4313 25.7999C23.3885 25.7999 22.4501 26.251 21.7976 26.9704L11.4397 21.4997C11.5366 21.1865 11.5889 20.8534 11.5889 20.508C11.5889 20.0166 11.4832 19.5502 11.2934 19.1306L21.9467 10.7875C22.5312 11.3211 23.3063 11.6462 24.1567 11.6462Z" fill="#ECEFF4"/>
</g>
<defs>
<filter id="filter0_d_122_393" x="0" y="0" width="33.0002" height="37.9999" filterUnits="userSpaceOnUse" color-interpolation-filters="sRGB">
<feFlood flood-opacity="0" result="BackgroundImageFix"/>
<feColorMatrix in="SourceAlpha" type="matrix" values="0 0 0 0 0 0 0 0 0 0 0 0 0 0 0 0 0 0 127 0" result="hardAlpha"/>
<feOffset/>
<feGaussianBlur stdDeviation="2.5"/>
<feComposite in2="hardAlpha" operator="out"/>
<feColorMatrix type="matrix" values="0 0 0 0 0 0 0 0 0 0 0 0 0 0 0 0 0 0 0.25 0"/>
<feBlend mode="normal" in2="BackgroundImageFix" result="effect1_dropShadow_122_393"/>
<feBlend mode="normal" in="SourceGraphic" in2="effect1_dropShadow_122_393" result="shape"/>
</filter>
</defs>
</svg>
